<?xml version="1.0" encoding="UTF-8"?>
<svg xmlns="http://www.w3.org/2000/svg" xmlns:xlink="http://www.w3.org/1999/xlink" width="500px" height="500px" viewBox="0 0 500 500" version="1.1">
<g id="surface1">
<path style="fill:none;stroke-width:2;stroke-linecap:round;stroke-linejoin:round;stroke:rgb(83.921569%,54.509804%,33.72549%);stroke-opacity:1;stroke-miterlimit:4;" d="M 207.301258 210.399078 L 102.600494 139.799563 L 200.50091 201.600839 C 202.001105 199.000773 104.600754 138.49953 105.298705 137.298933 C 105.298705 137.298933 197.000455 197.100442 197.50052 196.201836 C 198.800154 193.999514 106.699957 134.901422 106.699957 134.901422 C 107.900648 132.798536 196.099269 193.498652 197.000455 192.099183 C 197.000455 192.099183 107.601144 135.000858 108.999721 132.6991 C 108.999721 132.6991 194.50013 189.399681 195.200756 188.29852 L 110.700477 131.200195 C 111.598989 129.598172 195.099139 184.298986 195.099139 184.298986 C 195.099139 184.298986 113.79981 129.999598 114.099314 129.598172 C 114.099314 129.598172 193.700561 180.10058 194.000066 179.599717 L 115.701126 126.699798 C 115.701126 126.699798 193.098879 177.401078 194.000066 175.898491 C 194.000066 175.898491 116.800199 127.001789 118.198777 124.700031 C 119.600028 122.398273 194.200626 172.801245 194.200626 172.801245 C 194.401187 172.499255 120.300654 122.899136 120.300654 122.899136 C 121.199166 121.300795 195.200756 169.600881 195.200756 169.600881 C 196.099269 167.899422 120.600158 122.7997 122.100353 120.199634 C 123.600548 117.599569 195.000195 166.499953 195.000195 166.499953 C 195.000195 166.499953 124.301174 120.29907 124.900182 119.201592 C 125.798694 117.500133 196.398773 163.200153 196.398773 163.200153 C 196.700951 162.599855 126.900442 116.299536 126.900442 116.299536 C 127.400507 115.40093 196.50039 160.600088 196.50039 160.600088 C 197.50052 158.799192 127.900571 117.201825 129.200206 115.198375 C 129.200206 115.198375 196.799894 158.000022 197.000455 157.80115 L 130.900961 113.198608 C 130.900961 113.198608 197.201016 156.898861 198.099528 155.399956 C 198.099528 155.399956 131.499969 111.699703 132.000034 110.801097 C 132.000034 110.801097 198.50065 152.899327 198.899098 152.100156 C 199.300219 151.300986 134.70092 108.698211 134.70092 108.698211 L 199.099658 147.90175 L 136.399001 105.600966 C 137.300188 104.098378 198.800154 146.999461 200.099788 144.900258 C 200.099788 144.900258 139.300448 103.998942 139.399391 103.899506 L 200.800414 141.79933 C 200.800414 141.79933 139.599952 103.100336 140.699025 101.200005 L 201.300479 138.400094 C 202.399552 136.499763 141.300708 100.400834 142.300837 98.599939 C 143.300967 96.799044 202.699056 135.700592 202.699056 135.700592 L 144.699545 96.600172 C 144.699545 96.600172 202.300609 134.098569 202.899617 133.001091 C 202.899617 133.001091 145.100666 94.799277 145.400171 94.298414 C 146.298683 92.898945 203.300739 129.900162 203.300739 129.900162 C 204.199251 128.198703 147.499374 92.199211 147.499374 92.199211 L 204.800934 128.301822 C 204.800934 128.301822 148.499504 90.998614 148.799008 90.501434 C 149.101186 90.000572 203.99869 126.600363 204.699316 125.598637 C 205.801063 123.801425 149.499633 89.698581 150.101316 88.799975 C 151.200389 86.899644 203.699186 123.900861 204.800934 122.099966 L 150.799267 85.699047 C 151.700454 84.100706 204.99882 119.798208 205.801063 118.498175 C 206.600633 117.201825 153.000088 83.599844 153.299592 83.098981 L 206.99908 115.699237 C 207.301258 115.098939 154.500283 81.099214 154.89873 80.498916 C 154.89873 80.498916 206.400072 112.598309 206.99908 111.500831 L 156.89899 77.699978 C 156.89899 77.699978 205.99895 109.401628 207.100698 107.700169 C 208.199771 105.998709 158.099681 74.59905 158.099681 74.59905 L 206.499015 103.0009 C 206.499015 103.0009 159.800437 71.700677 159.89938 71.501805 C 160.000997 71.29925 206.499015 99.999408 206.499015 99.999408 L 160.89951 69.200047 C 160.89951 69.200047 205.99895 96.500736 206.199511 96.099309 C 206.199511 96.099309 162.001257 66.898289 162.300761 66.500545 C 163.10033 65.200513 205.199381 92.898945 205.900007 91.598912 L 163.10033 62.699883 C 163.300891 62.298456 205.600503 87.098516 205.600503 87.098516 C 205.600503 87.098516 164.199404 60.199253 164.600525 59.499519 C 165.301151 58.298922 203.99869 83.098981 204.399812 82.399247 C 205.100438 81.099214 165.999103 56.501709 165.999103 56.501709 C 165.999103 56.501709 202.600113 79.600309 203.300739 78.399712 C 203.99869 77.199116 165.400094 54.601378 166.199663 53.301345 C 166.999232 52.001312 201.698926 75.199348 202.300609 74.098187 C 202.899617 73.000709 166.199663 50.999587 166.699728 50.100981 L 200.899357 70.599516 C 200.899357 70.599516 167.900419 48.598394 168.10098 48.399522 C 168.10098 48.399522 199.899227 68.699184 200.599853 67.601706 C 201.300479 66.500545 168.499427 46.300319 168.699988 46.101447 C 168.699988 46.101447 198.599593 63.701608 198.899098 63.200745 L 168.499427 42.698528 C 168.499427 42.698528 197.800024 60.199253 197.898968 59.900945 C 198.399033 59.101775 168.601045 40.098462 168.601045 40.098462 L 195.898708 54.601378 L 169.200053 36.599791 C 169.499557 36.098928 192.598814 48.399522 192.598814 48.399522 L 168.499427 32.099394 L 189.798985 43.298827 C 190.101163 42.801647 168.499427 28.89903 168.499427 28.89903 C 168.798931 28.298731 186.600709 38.400686 186.600709 38.400686 C 186.999156 37.800387 167.999362 25.801784 167.999362 25.801784 C 167.999362 25.59923 182.300685 32.19883 182.300685 32.19883 C 182.501246 31.801086 168.400484 22.700856 168.400484 22.700856 L 176.898914 25.400358 L 166.900289 18.701322 C 166.900289 18.701322 170.799191 18.701322 170.799191 18.701322 C 170.799191 18.701322 165.199533 14.900659 165.199533 14.900659 " transform="matrix(1.460748,0,0,1.06067,0.431246,0)"/>
<path style="fill:none;stroke-width:2;stroke-linecap:round;stroke-linejoin:round;stroke:rgb(83.921569%,54.509804%,33.72549%);stroke-opacity:1;stroke-miterlimit:4;" d="M 214.598998 466.299305 C 214.598998 466.299305 218.701135 465.201827 218.800078 465.201827 L 218.599517 464.999272 C 218.599517 464.999272 222.001029 464.200102 222.099972 464.200102 C 222.198915 464.200102 221.500964 463.798675 221.500964 463.798675 L 226.100491 463.500367 L 224.001288 462.100898 C 224.001288 462.100898 229.298768 462.601761 229.298768 462.498642 C 229.298768 462.399206 226.999004 460.900302 226.999004 460.900302 L 231.799093 461.198609 L 228.699759 459.099406 C 228.699759 459.099406 234.401035 459.401397 234.499978 459.298278 L 232.601336 457.998245 L 237.299807 457.998245 C 237.299807 457.998245 233.90097 455.899042 233.999913 455.799606 C 234.098856 455.70017 239.800132 456.900767 239.800132 456.900767 L 235.599051 454.10183 C 235.799612 453.799839 243.100026 456.201033 243.100026 456.201033 C 243.100026 456.201033 238.000433 452.801797 238.000433 452.801797 C 238.000433 452.801797 245.899854 455.39818 245.998798 455.199308 C 246.100415 455.000436 240.500757 451.501764 240.500757 451.501764 C 240.500757 451.501764 249.298692 453.298977 249.298692 453.199541 C 249.298692 453.199541 242.300456 448.79858 242.501017 448.599708 L 252.60126 451.700636 C 252.60126 451.501764 244.699164 446.301633 244.699164 446.301633 C 244.899725 446.099078 255.500032 449.899741 255.500032 449.800305 L 247.60061 444.401302 C 247.60061 444.401302 258.0993 448.599708 258.200917 448.400836 C 258.299861 448.198281 249.298692 442.50097 249.400309 442.401534 C 249.400309 442.401534 259.701112 446.599941 259.800055 446.301633 C 259.800055 446.301633 250.699943 440.298648 250.699943 440.199212 C 250.699943 440.199212 262.899388 445.0016 262.899388 444.898481 C 263.099949 444.600173 252.60126 438.000573 252.60126 438.000573 C 252.60126 438.000573 265.30077 443.900439 265.501331 443.499012 C 265.699217 443.101269 254.200398 435.90137 254.200398 435.90137 C 254.200398 435.698816 268.600664 441.801236 268.600664 441.801236 C 268.600664 441.801236 255.09891 432.701006 255.09891 432.701006 C 255.299471 432.29958 271.298875 439.900905 271.298875 439.900905 L 257.200787 430.399248 C 257.200787 430.399248 274.200321 438.398317 274.499826 437.901138 C 274.499826 437.901138 258.898869 428.101173 259.201047 427.600311 C 259.201047 427.600311 276.599029 435.798252 276.79959 435.59938 C 276.79959 435.59938 260.201177 424.499383 260.201177 424.399947 C 260.399064 424.101639 279.299914 433.699048 279.299914 433.699048 C 279.599418 433.198186 261.09969 421.799881 261.201307 421.501573 C 261.500811 421.000711 281.00067 432.100708 281.099613 431.798717 C 281.399117 431.301537 263.198893 419.700678 263.198893 419.700678 C 263.600014 419.000944 283.300434 429.699514 283.300434 429.699514 L 263.501071 416.301442 C 263.501071 416.301442 285.699141 427.29832 285.699141 427.198884 C 285.699141 427.099448 264.600144 413.498822 264.800705 413.101078 C 264.800705 413.101078 288.49897 426.200842 288.900092 425.501108 C 289.301213 424.801373 265.699217 409.900714 265.800835 409.900714 C 265.800835 409.900714 290.100782 423.899084 290.298669 423.501341 C 290.49923 423.099914 266.899908 408.898989 267.399973 408.000383 C 267.399973 408.000383 292.70005 422.499616 292.798994 422.098189 C 293.299059 421.199583 268.199542 405.499753 268.199542 405.499753 C 268.199542 405.499753 293.799124 420.098422 293.799124 420.098422 C 294.101302 419.501806 268.30116 402.899687 268.30116 402.899687 C 268.30116 402.899687 295.299319 418.500081 295.598823 417.899783 C 296.098888 417.100613 268.900168 399.898195 268.900168 399.898195 C 268.900168 399.898195 297.901261 416.59975 298.099147 416.098887 C 298.401326 415.498589 269.199672 396.598395 269.199672 396.598395 C 269.499176 396.101216 299.398781 414.09912 299.398781 414.09912 C 299.898846 413.29995 270.298745 394.499192 270.298745 394.499192 C 270.298745 394.499192 300.70109 411.499055 301.000594 410.998192 L 270.900428 390.69853 L 303.500918 409.598723 C 303.500918 409.598723 269.600794 387.601284 269.999241 386.90155 L 304.300488 406.600914 L 271.100988 384.198366 C 271.100988 384.198366 307.699325 404.800019 307.699325 404.700583 L 270.900428 379.801087 C 271.199932 379.200789 309.600641 401.901645 309.699585 401.798527 L 269.600794 374.700392 C 269.79868 374.398402 309.699585 400.200186 310.40021 398.999589 C 311.100836 397.798992 268.699607 372.601189 269.400233 371.400592 C 269.400233 371.400592 312.601031 397.798992 313.200039 396.80095 C 313.200039 396.80095 267.998981 368.100792 268.699607 366.800759 C 269.400233 365.500727 314.299112 393.600586 314.299112 393.600586 C 315.200299 391.998562 267.699477 362.399798 267.801095 362.200927 C 268.801225 360.400031 315.799307 392.201117 316.598876 390.801648 C 317.40112 389.398497 266.199282 358.400264 266.899908 357.199667 C 267.600534 355.99907 316.901055 388.499891 317.40112 387.800156 L 266.199282 353.200133 C 266.199282 353.200133 319.000258 386.301252 319.099201 385.999261 L 265.30077 349.701461 C 265.501331 349.39947 320.799957 383.701186 320.799957 383.701186 C 321.099461 383.200323 262.099819 346.600533 263.198893 344.799638 C 263.198893 344.799638 321.701143 380.898566 321.89903 380.500822 C 321.89903 380.500822 259.800055 339.901497 260.399064 338.999208 C 261.000746 338.100602 323.800346 378.199064 323.800346 378.199064 C 323.800346 378.000192 257.200787 334.800802 257.898739 333.699641 C 258.599365 332.59848 324.399355 376.000425 324.399355 376.000425 C 324.89942 375.201255 255.401088 329.401798 255.401088 329.401798 C 255.700593 328.900936 325.001037 373.698667 325.001037 373.698667 C 325.001037 373.698667 250.900504 327.000605 252.299081 324.698847 L 326.699119 370.800294 C 328.399874 367.798802 245.800911 316.198916 245.800911 316.198916 C 246.998928 314.099713 326.600175 368.498536 327.199184 367.401058 C 328.199313 365.600163 233.499848 304.200312 233.499848 304.200312 C 234.098856 303.099152 328.800996 364.701556 328.800996 364.701556 C 328.800996 364.701556 203.600243 286.298161 206.199511 281.900883 L 329.699508 361.00033 L 160.600006 246.799997 C 161.501192 245.400528 327.600305 362.59867 330.10063 358.400264 C 332.600955 354.198175 154.700844 240.100961 154.700844 240.100961 C 155.398795 238.900364 331.400264 356.798241 331.400264 356.798241 C 331.400264 356.798241 147.699934 241.301558 151.299332 235.199138 C 154.89873 229.1004 330.999142 353.899867 330.999142 353.899867 C 333.900589 348.799172 148.900625 231.000731 148.900625 231.000731 L 331.900329 350.600067 C 335.799231 344.000467 146.4003 225.399173 146.4003 225.399173 C 147.798878 223.101098 331.199703 350.600067 332.999402 347.399703 L 144.801162 220.401597 C 144.801162 220.199042 333.400524 345.101628 333.999532 344.099903 C 336.900978 338.999208 144.999049 216.501498 144.999049 216.501498 C 145.600731 215.499773 332.699898 343.698477 334.200093 341.20153 L 144.801162 213.301134 C 147.40043 208.701302 334.799101 337.400867 334.799101 337.400867 C 338.700677 330.701831 141.699155 216.199508 145.499114 209.599908 C 149.40069 203.000308 335.59867 334.701366 335.59867 334.701366 C 339.59919 327.799775 145.699675 206.598416 145.699675 206.598416 C 147.298813 203.799478 335.700288 331.199011 335.700288 331.199011 L 83.699644 160.401216 C 86.900594 154.899094 335.700288 329.700106 336.400913 328.300637 C 336.400913 328.300637 82.199449 162.898162 84.798717 158.500884 C 84.798717 158.500884 334.999662 326.499742 336.299296 324.201667 C 336.299296 324.201667 84.60083 160.30178 87.101155 156.000255 L 336.700418 321.701037 C 341.201002 314.000277 88.700293 154.298795 88.700293 154.298795 C 88.700293 154.298795 329.999012 325.99888 335.299166 316.799214 C 336.900978 314.000277 91.000057 151.901284 91.000057 151.901284 C 95.599585 143.898533 335.999792 314.401703 335.999792 314.401703 C 338.901238 309.49988 90.200488 154.50135 92.599195 150.199825 C 95.000577 145.8983 334.900719 310.998784 334.900719 310.998784 C 334.900719 310.998784 88.799236 156.699989 93.599325 148.100622 L 334.900719 307.901539 C 337.499987 303.401142 95.701202 146.498598 95.701202 146.498598 L 334.400654 303.898322 C 336.5988 300.101342 97.500901 144.001652 97.500901 144.001652 C 98.698918 142.10132 334.700158 301.298256 334.700158 301.298256 C 337.700547 296.101808 96.399154 148.498366 99.699048 142.701619 C 99.699048 142.701619 333.298906 298.399883 333.798971 297.501277 C 337.401043 291.398856 101.30086 140.598733 101.30086 140.598733 C 101.800925 139.700127 330.600695 297.000414 332.999402 292.901444 C 335.400784 288.798791 221.300403 217.499541 221.300403 217.499541 L 332.699898 289.601644 L 226.100491 217.598977 C 227.90019 214.501731 329.199443 289.200217 331.499207 285.300119 C 331.499207 285.300119 230.400515 219.101564 231.200084 217.598977 L 330.301191 280.501414 C 332.298776 277.098495 233.799352 218.199275 235.000043 216.199508 C 236.200734 214.199741 328.498818 275.098728 328.498818 275.098728 C 328.498818 275.098728 237.500368 215.698645 238.299937 214.299177 C 238.299937 214.299177 326.501232 275.098728 328.199313 272.200355 C 329.801126 269.298298 238.500498 216.100072 240.300197 212.899708 L 326.300671 267.501086 C 326.300671 267.501086 241.500887 213.40057 242.698904 211.098812 L 324.300411 262.698698 C 325.698989 260.400623 245.300846 209.401036 245.300846 209.401036 C 245.699294 208.701302 321.099461 261.000922 322.500712 258.400856 L 246.60048 207.198714 L 320.299892 253.200725 L 248.801301 204.900639 C 248.801301 204.900639 316.299372 250.600659 317.700624 248.298902 C 317.700624 248.298902 249.60087 203.298616 249.999317 202.598881 L 315.098681 242.999334 C 315.40086 242.399036 250.999447 199.700508 250.999447 199.700508 L 313.101096 238.9998 L 252.400699 198.098484 C 252.400699 198.098484 307.300877 233.19937 308.19939 231.700466 C 309.100576 230.201561 252.900764 195.999281 253.598715 194.901803 C 254.299341 193.800642 302.300228 223.800833 302.300228 223.800833 L 253.598715 190.898586 C 253.799276 190.500842 295.999944 215.698645 295.999944 215.698645 L 253.101324 186.70018 C 253.400829 186.199317 285.800759 205.099511 285.800759 205.099511 L 252.200138 182.398655 " transform="matrix(1.460748,0,0,1.06067,0.431246,0)"/>
<path style="fill:none;stroke-width:2;stroke-linecap:round;stroke-linejoin:round;stroke:rgb(83.921569%,54.509804%,33.72549%);stroke-opacity:1;stroke-miterlimit:4;" d="M 124.100613 358.4997 C 124.100613 358.300828 116.399078 353.299569 116.399078 353.299569 C 116.599638 352.901825 132.000034 360.598903 132.098978 360.400031 C 132.098978 360.400031 110.79942 346.09967 110.79942 346.000234 C 111.299485 345.201064 136.399001 360.201159 136.399001 360.201159 C 136.399001 360.201159 109.098664 342.299008 109.299225 341.901264 C 109.299225 341.901264 140.001074 359.600861 140.001074 359.501425 C 140.001074 359.501425 107.298965 338.100602 107.601144 337.699175 C 107.601144 337.699175 142.899846 359.099998 143.498854 358.201392 C 144.100536 357.299103 107.601144 334.001631 107.700087 334.001631 C 107.900648 333.699641 146.4003 356.301061 146.4003 356.301061 L 106.400453 329.29868 C 107.101079 327.998647 147.19987 355.299336 147.900495 353.899867 C 148.601121 352.500398 106.100949 327.799775 106.999461 326.30087 C 107.900648 324.798283 149.700194 352.400962 149.700194 352.400962 C 149.700194 352.400962 106.499396 323.800241 106.699957 323.398814 C 106.900518 323.00107 153.099031 350.500631 153.099031 350.500631 C 153.599096 349.701461 107.298965 320.699312 107.79903 319.900142 C 107.79903 319.900142 154.200779 347.80113 154.398665 347.399703 C 154.89873 346.401661 108.700217 316.500906 108.700217 316.500906 C 109.299225 315.499181 155.398795 345.201064 155.500413 344.998509 L 21.900173 254.799066 C 21.900173 254.799066 156.000478 343.201297 156.201039 342.79987 C 157.701233 340.100369 21.900173 252.199 21.900173 252.199 C 21.900173 252.199 157.099551 342.600998 157.89912 340.998975 C 159.399315 338.498345 22.499181 252.000128 23.499311 250.298669 C 24.499441 248.600892 158.399185 337.90173 158.800307 337.301431 C 161.501192 332.499044 25.29901 247.201423 25.29901 247.201423 C 25.601189 246.700561 157.500673 337.599739 159.300372 334.399375 L 25.900693 244.299367 C 25.900693 244.299367 156.398925 334.900238 159.198754 330.200969 C 162.001257 325.5017 27.598774 241.301558 27.598774 241.301558 C 27.900953 240.800695 157.599616 331.298447 159.698819 327.799775 L 28.200457 238.9998 C 28.200457 238.9998 157.701233 328.8015 159.800437 325.199709 C 161.89964 321.601602 29.700652 237.500895 29.700652 237.500895 L 159.698819 320.898184 C 162.300761 316.500906 30.200716 233.398242 30.200716 233.398242 C 30.200716 233.398242 155.299852 319.299844 157.399055 315.598617 C 159.500932 311.901073 31.500351 233.799669 32.799985 231.501594 C 32.799985 231.501594 155.099291 312.298817 155.398795 311.499647 C 155.398795 311.499647 32.398863 231.700466 33.701171 229.299272 C 33.701171 229.299272 150.999828 307.098686 151.799397 305.798653 C 152.598966 304.49862 34.701301 226.699206 34.701301 226.699206 C 35.198692 225.900036 141.899716 295.199519 141.899716 295.199519 C 143.801032 291.899719 36.501 224.099141 36.501 224.099141 L 137.099627 288.401047 C 137.399131 287.900184 35.000805 224.600003 37.198952 220.898777 C 37.198952 220.898777 135.000424 284.898692 135.200985 284.500948 C 135.70105 283.701778 38.001195 221.101331 38.899707 219.499308 L 133.200725 280.298859 C 134.70092 277.79823 39.899837 217.300669 39.899837 217.300669 L 131.200465 275.500155 C 131.499969 274.999292 41.900097 215.201466 41.900097 215.201466 C 43.699796 212.100538 129.299149 270.001716 129.299149 270.001716 L 44.199861 212.6014 C 44.900487 211.301367 128.299019 266.499361 128.601197 265.998498 C 129.49971 264.499594 45.400552 210.999377 45.900617 210.200206 C 46.400681 209.401036 128.101132 262.499827 128.101132 262.499827 C 129.70027 259.700889 46.700186 207.600141 46.700186 207.600141 C 48.20038 204.900639 127.700011 257.99943 127.700011 257.99943 C 128.700141 256.301653 48.098763 204.900639 48.400941 204.399777 C 49.299454 203.000308 127.101002 253.399597 127.101002 253.399597 C 127.101002 253.399597 50.799649 202.400009 51.000209 202.101702 C 52.500404 199.501636 126.199816 249.201191 126.298759 248.8992 C 126.298759 248.8992 51.700835 201.099977 52.799908 199.299081 C 52.799908 199.299081 127.298889 245.901391 127.601067 245.5994 C 128.101132 244.80023 52.898852 198.698783 54.399047 196.201836 C 55.899241 193.701206 127.400507 243.09877 127.900571 242.200164 C 127.900571 242.200164 55.500794 195.601538 56.500924 193.999514 C 57.501054 192.401173 127.798954 238.9998 127.798954 238.9998 C 129.101262 236.701725 57.099932 194.599812 58.501184 192.198619 C 59.899761 189.801108 128.601197 236.200862 128.601197 236.200862 C 129.799214 234.201095 57.899501 191.900311 59.300753 189.499117 C 60.69933 187.101606 129.299149 233.700233 129.299149 233.700233 C 129.299149 233.700233 60.199265 190.500842 61.600517 188.000213 C 62.999094 185.499583 129.49971 231.799902 130.200335 230.499869 C 130.900961 229.199836 62.999094 185.101839 62.999094 185.101839 C 63.999224 183.300944 130.598783 227.999239 131.098848 227.100633 C 132.000034 225.399173 64.90041 182.398655 64.90041 182.398655 C 66.101101 180.398888 132.098978 225.00143 132.098978 225.00143 C 132.098978 225.00143 66.200044 181.599484 66.700109 180.800314 C 67.200174 180.001144 134.200855 222.099373 134.200855 222.099373 C 134.500359 221.598511 68.299248 177.699386 68.299248 177.699386 L 134.898807 219.69818 C 135.599432 218.40183 69.299377 177.898258 70.299507 176.101045 C 71.299637 174.30015 135.500489 218.799573 136.500619 217.300669 C 137.500749 215.801764 72.200824 173.898723 72.200824 173.898723 C 72.700889 173.000117 137.70131 214.199741 137.70131 214.199741 L 74.599531 171.600648 C 74.800092 171.298658 139.099887 214.601167 140.399521 212.398845 C 141.699155 210.200206 75.899165 168.901147 75.899165 168.901147 C 76.099726 168.49972 142.19922 209.699344 142.19922 209.699344 L 77.300417 165.800219 C 78.198929 164.301314 143.899976 206.80097 143.899976 206.80097 C 143.899976 206.80097 79.501237 163.399025 79.600181 163.399025 " transform="matrix(1.460748,0,0,1.06067,0.431246,0)"/>
<path style="fill:none;stroke-width:2;stroke-linecap:round;stroke-linejoin:round;stroke:rgb(83.921569%,54.509804%,33.72549%);stroke-opacity:1;stroke-miterlimit:4;" d="M 79.001172 453.700403 C 79.300676 453.199541 61.998964 442.401534 61.998964 442.19898 C 61.998964 442.19898 94.09939 461.798908 94.500512 460.999737 C 94.898959 460.200567 48.098763 432.001272 49.098893 430.399248 C 50.099023 428.800908 102.998942 463.901794 102.998942 463.901794 L 41.801154 422.599052 C 41.801154 422.599052 109.400843 468.501627 110.598859 466.299305 L 37.600073 417.001177 C 37.600073 417.001177 87.799106 448.901698 88.700293 447.299675 C 89.598805 445.701334 31.398733 409.698159 31.898798 408.998425 C 32.398863 408.298691 83.999148 441.200938 83.999148 441.200938 L 28.799465 404.000848 L 79.501237 435.098517 C 79.899685 434.398783 25.900693 398.900153 25.900693 398.900153 C 26.499701 397.798992 75.3991 430.100941 76.198669 428.800908 C 77.000913 427.500875 22.400238 392.598861 22.400238 392.598861 L 74.500588 423.899084 C 75.300157 422.599052 19.899913 387.000986 19.899913 387.000986 C 19.899913 387.000986 71.401255 420.901275 72.398711 419.299252 C 73.39884 417.700911 17.899654 382.500589 17.899654 382.500589 L 71.799702 415.80058 C 72.599271 414.401111 16.099955 380.699694 17.100084 378.898798 C 18.100214 377.101586 70.799572 412.50078 70.799572 412.50078 C 70.799572 412.50078 14.099695 376.298733 14.899264 374.799828 C 15.698833 373.300923 68.90093 408.898989 69.598882 407.598956 C 70.299507 406.298923 13.201182 369.500261 13.201182 369.500261 C 13.201182 369.500261 68.400865 404.100284 68.499808 403.698858 C 69.098817 402.498261 11.700988 366.200461 12.000492 365.600163 C 12.299996 364.999864 66.700109 401.198228 67.499679 399.798759 C 68.299248 398.399291 11.398809 361.998372 11.398809 361.998372 C 12.500557 360.201159 66.90067 396.200652 66.90067 396.200652 C 68.098687 394.101448 11.299866 359.199434 11.59937 358.901127 C 12.099435 358.098273 66.999614 392.598861 66.999614 392.598861 C 67.499679 391.799691 10.099175 354.098739 10.099175 354.098739 C 10.398679 353.498441 66.799053 390.400222 67.601296 389.100189 C 68.400865 387.800156 10.700858 350.600067 10.700858 350.600067 C 11.000362 349.999769 67.700239 386.201816 67.700239 386.201816 L 10.200793 347.399703 C 11.398809 345.3005 68.499808 384.09893 68.90093 383.299759 C 69.700499 381.999727 9.200663 342.998742 9.200663 342.998742 L 68.90093 380.198831 C 69.098817 379.801087 9.500167 340.501795 9.59911 340.199805 C 10.099175 339.400634 68.598752 376.398169 68.90093 375.900989 C 69.200434 375.400127 9.000102 335.500536 9.000102 335.500536 L 70.500068 373.098369 C 71.700759 371.098602 8.401094 331.199011 8.401094 331.199011 C 8.901159 330.399841 70.599012 370.800294 71.401255 369.500261 C 71.401255 369.500261 7.901029 327.799775 8.299476 327.000605 C 9.200663 325.5017 70.500068 368.601655 71.799702 366.399333 C 73.099336 364.200694 9.200663 324.098548 9.200663 324.098548 C 9.799671 323.00107 72.000263 365.401291 73.000393 363.699831 L 8.59898 320.301569 C 9.099045 319.498716 74.201084 361.600628 74.201084 361.600628 C 74.39897 361.199202 8.401094 317.200641 8.401094 317.200641 C 9.500167 315.399745 75.000653 358.698572 75.000653 358.698572 C 75.000653 358.698572 8.098915 314.501139 8.401094 313.801405 C 9.799671 311.400211 76.300287 355.601327 76.300287 355.601327 C 76.300287 355.601327 8.901159 312.199381 9.700728 310.700477 C 10.500297 309.201572 76.899295 353.001261 77.300417 352.500398 L 9.200663 306.601506 C 9.200663 306.601506 78.600051 351.299802 79.100116 350.500631 C 79.600181 349.701461 10.200793 304.100877 10.200793 304.100877 L 79.100116 347.701694 C 80.001302 346.199106 8.799541 302.701408 9.799671 300.900512 L 80.899815 345.499372 C 81.498823 344.398211 10.59924 297.998456 10.59924 297.998456 C 10.799801 297.700148 82.900074 342.700434 82.900074 342.700434 C 82.900074 342.700434 10.200793 296.499552 11.500427 294.499784 C 12.800061 292.500017 84.100765 339.400634 84.100765 339.400634 C 84.100765 339.400634 10.200793 292.098591 11.299866 290.301378 C 11.299866 290.301378 84.100765 340.000933 85.400399 337.798611 C 85.400399 337.798611 12.000492 290.198259 12.701117 288.798791 C 13.399069 287.399322 86.798977 336.20027 87.499602 335.099109 L 13.300126 285.001811 C 14.201312 283.499223 88.499732 334.299939 89.400919 332.59848 C 90.299431 330.900703 13.800191 282.000319 13.899134 281.698328 C 14.698703 280.398295 91.099 331.898745 91.500122 331.298447 C 92.599195 329.401798 14.59976 279.698561 14.698703 279.400253 C 14.800321 279.098262 93.299821 329.000372 93.398764 328.900936 L 15.300386 276.199889 C 15.300386 276.199889 93.898829 328.300637 94.898959 326.499742 C 94.898959 326.499742 14.59976 274.80042 15.59989 272.999525 L 97.899349 324.400539 L 16.501076 269.401417 C 16.501076 269.401417 99.198983 323.49825 100.30073 321.800473 L 18.199158 266.399925 C 18.399719 266.101617 102.600494 319.200408 102.600494 319.200408 C 103.600624 317.498948 18.501336 263.600987 18.998727 262.801817 C 20.199418 260.798367 104.999201 316.89865 105.199762 316.699778 C 105.199762 316.699778 18.899783 260.798367 19.80097 259.100591 C 21.199547 256.798833 106.699957 314.799447 106.699957 314.799447 C 108.299095 312.000509 19.80097 259.299463 21.199547 257.100823 " transform="matrix(1.460748,0,0,1.06067,0.431246,0)"/>
<path style="fill:none;stroke-width:6;stroke-linecap:round;stroke-linejoin:round;stroke:rgb(5.490196%,5.098039%,5.490196%);stroke-opacity:1;stroke-miterlimit:4;" d="M 110.098794 466.299305 C 111.598989 467.30103 111.299485 467.400466 110.098794 466.899603 C 95.500641 461.5006 69.799442 450.500039 55.800298 438.199445 C 31.599294 416.098887 12.099435 381.10112 8.098915 347.101395 C 6.499777 325.899444 9.000102 302.999716 12.701117 282.401745 C 14.800321 270.999758 17.001141 262.901253 21.100604 252.898734 C 25.601189 240.498705 35.800374 220.199042 46.499625 205.401502 C 62.801207 182.998953 86.900594 151.499858 101.498747 136.801753 C 110.598859 128.301822 122.300914 118.800166 130.999904 109.199073 C 140.800643 98.099077 151.598837 82.001503 157.500673 69.999217 C 164.301021 54.100516 171.400874 32.298266 164.699469 14.200925 C 161.399575 6.699036 176.200962 23.698898 176.898914 24.700623 C 184.699392 35.200322 192.598814 47.699787 197.50052 60.401808 C 202.100048 73.998752 205.600503 90.501434 206.301128 104.300933 C 206.301128 122.298837 198.000585 138.49953 195.200756 156.799425 C 192.29931 172.900681 194.000066 193.498652 203.300739 206.598416 C 207.801323 212.001102 215.20068 214.601167 221.399346 216.199508 C 234.598921 219.69818 245.699294 206.701534 250.499382 194.301505 C 253.499772 182.800081 246.899984 179.599717 262.698828 188.29852 C 272.200062 193.498652 280.800109 200.400242 287.998905 208.498747 C 296.401066 217.900967 304.698935 225.999472 310.801332 236.598606 C 322.701273 259.601453 333.999532 286.40128 334.900719 312.398253 C 336.098735 324.499975 336.700418 335.599972 333.601085 347.300267 C 328.399874 366.498769 318.599136 385.498398 308.998959 402.398825 C 298.500269 420.901275 281.399117 433.400741 264.199023 444.500738 C 251.298951 452.499806 231.200084 464.8004 215.20068 466.601295 C 233.200344 456.698213 243.60009 450.301167 255.598975 431.500409 C 263.30051 420.499848 268.30116 407.201212 268.900168 393.401714 C 269.699737 383.100887 270.100859 372.700625 267.900038 362.59867 C 264.100079 345.900798 253.598715 328.499509 243.300586 314.799447 C 239.099506 309.400444 234.299417 305.301473 228.999264 300.801077 C 218.800078 292.301145 210.200031 285.101247 200.399292 277.599358 C 186.80127 267.099659 173.098955 258.901719 161.300631 246.799997 C 152.299462 238.701492 146.19974 228.30123 145.100666 215.9012 C 144.600601 213.798314 145.400171 204.701767 142.498724 206.999842 C 138.698765 210.800505 136.099497 216.100072 133.70079 221.101331 C 128.900701 231.199603 125.49919 241.099003 126.100872 251.900692 C 126.798824 262.801817 128.400636 273.500387 133.799733 282.998361 C 136.500619 287.900184 139.800513 292.901444 143.100407 297.199286 C 147.40043 302.800844 150.900885 306.001208 154.200779 312.501372 C 157.099551 318.301802 159.500932 325.601136 158.800307 332.200736 C 157.599616 340.899539 152.200519 349.701461 145.999179 355.498208 C 136.70118 363.600395 121.998735 355.899634 113.700866 350.401195 C 106.7989 345.101628 104.999201 330.399841 106.100949 321.498483 C 106.601014 317.498948 108.200152 313.10167 103.499006 317.598384 C 98.198853 322.599644 92.500252 327.100041 88.200228 333.198778 C 76.000783 350.198641 65.999484 370.601422 67.601296 392.499425 C 68.499808 407.201212 70.599012 420.69872 76.500848 430.800675 C 84.60083 444.799045 95.701202 457.099639 109.700347 465.901561 L 109.900907 466.199869 Z M 110.098794 466.299305 " transform="matrix(1.460748,0,0,1.06067,0.431246,0)"/>
</g>
</svg>
