<?xml version="1.0" encoding="UTF-8"?>
<svg xmlns="http://www.w3.org/2000/svg" xmlns:xlink="http://www.w3.org/1999/xlink" width="500px" height="500px" viewBox="0 0 500 348" version="1.1">
<defs>
<filter id="alpha" filterUnits="objectBoundingBox" x="0%" y="0%" width="100%" height="100%">
  <feColorMatrix type="matrix" in="SourceGraphic" values="0 0 0 0 1 0 0 0 0 1 0 0 0 0 1 0 0 0 1 0"/>
</filter>
<mask id="mask0">
  <g filter="url(#alpha)">
<rect x="0" y="0" width="500" height="348" style="fill:rgb(0%,0%,0%);fill-opacity:0.501961;stroke:none;"/>
  </g>
</mask>
<clipPath id="clip1">
  <rect x="0" y="0" width="500" height="348"/>
</clipPath>
<g id="surface5" clip-path="url(#clip1)">
<path style=" stroke:none;fill-rule:nonzero;fill:rgb(19.607843%,19.607843%,92.941176%);fill-opacity:1;" d="M 496.289062 139.5 C 496.289062 139.5 474.480469 118.921875 429.652344 126.183594 C 424.804688 91.078125 387.246094 70.5 387.246094 70.5 C 387.246094 70.5 352.109375 112.867188 377.554688 160.078125 C 370.285156 163.710938 358.167969 168.550781 339.996094 168.550781 L 6.816406 168.550781 C 0.757812 191.550781 0.757812 344.078125 167.953125 344.078125 C 287.898438 344.078125 377.554688 288.394531 419.957031 186.710938 C 482.960938 191.550781 496.289062 139.5 496.289062 139.5 "/>
<path style="fill:none;stroke-width:0.9;stroke-linecap:round;stroke-linejoin:round;stroke:rgb(100%,100%,100%);stroke-opacity:1;stroke-miterlimit:4;" d="M 347.049159 154.121007 C 350.260395 159.261493 405.360833 109.24098 409.14919 115.31082 C 413.160011 121.729167 352.391548 154.330757 352.391548 154.330757 C 354.851561 158.261148 404.89011 115.31082 407.688657 119.780106 C 411.389962 125.711188 355.870387 150.710151 358.049901 154.198453 C 359.910226 157.180129 401.920683 118.97983 405.42854 124.601127 C 406.679504 126.588911 359.610382 148.580383 362.850636 153.759592 C 363.260101 154.421111 400.231237 123.968651 403.12006 128.599283 C 403.429577 129.089776 371.758916 151.991239 371.758916 151.991239 C 372.510139 153.201334 396.658897 133.839804 397.819585 135.698511 C 398.980273 137.560445 381.898815 147.789787 382.050349 148.028579 C 382.688728 149.051513 389.610942 142.710612 389.878545 143.139793 " transform="matrix(1.211566,0,0,1.210519,0.187223,0)"/>
<path style="fill:none;stroke-width:0.9;stroke-linecap:round;stroke-linejoin:round;stroke:rgb(100%,100%,100%);stroke-opacity:1;stroke-miterlimit:4;" d="M 319.260354 58.691252 C 319.299044 58.759017 319.440905 58.458913 319.489267 58.549267 C 319.508612 58.581536 315.449428 64.07053 315.520359 64.180246 C 316.029772 64.990203 322.029884 60.111097 322.029884 60.111097 C 322.719849 61.211478 311.928675 68.091275 312.650881 69.240059 C 313.3215 70.311397 324.019175 60.950097 324.551157 61.808458 C 324.609191 61.908493 310.890504 72.070069 311.0904 72.399215 C 312.228519 74.219199 325.98912 62.670046 326.169672 62.97015 C 326.198689 63.018554 309.500903 75.700356 309.581506 75.819752 C 309.949057 76.410279 326.820946 62.469977 327.97841 64.319003 C 329.248719 66.348737 307.93075 78.969228 308.211249 79.398408 C 309.88135 82.07998 329.590477 65.32903 329.909666 65.838883 C 330.970406 67.539471 305.390133 80.879565 306.931268 83.328799 C 307.821129 84.761552 332.050491 67.629825 332.050491 67.629825 C 333.011282 69.169067 304.871047 86.020052 305.80927 87.539932 C 307.898508 90.879796 333.330472 68.059005 334.349298 69.701509 C 335.02959 70.798662 304.019876 88.520916 305.209581 90.408665 C 305.209581 90.408665 334.329953 68.630171 335.938795 71.208481 C 336.038744 71.360146 304.200427 91.689753 304.819461 92.680418 C 304.961323 92.909529 334.539522 68.220352 337.189759 72.460527 C 337.189759 72.460527 302.149879 92.590064 304.380979 96.178401 C 306.408959 99.421457 338.269844 73.151088 339.098446 74.48058 C 339.230635 74.680649 304.081135 98.540508 304.17141 98.698627 C 306.128459 101.838422 339.378946 74.280511 340.45903 76.019821 C 340.649254 76.319925 302.459395 99.850638 304.058566 102.409587 C 306.699131 106.640081 342.461217 78.420651 342.461217 78.420651 C 343.770215 80.508469 303.329911 103.38089 304.110152 104.620028 C 306.940941 109.140946 343.480043 79.688831 343.631577 79.93085 C 344.360232 81.098996 302.501309 104.68134 304.281031 107.521031 C 304.281031 107.521031 344.17968 80.498789 345.121127 81.999307 C 347.610158 85.991009 304.039221 109.66048 304.619565 110.589833 C 307.711509 115.530251 343.979784 80.050246 346.649366 84.319464 C 346.83959 84.629248 304.900064 112.471129 304.900064 112.471129 C 306.070425 114.349197 346.968555 84.861587 347.558572 85.810302 C 349.038449 88.178862 302.649619 110.241326 305.261167 114.420189 C 307.621233 118.189234 346.078695 83.580499 348.480674 87.420536 C 349.318948 88.759708 306.018839 117.731011 306.018839 117.731011 C 308.401473 121.54846 349.941206 90.279588 349.941206 90.279588 C 352.910633 95.029617 303.329911 114.510543 306.560493 119.689753 C 309.791075 124.868962 350.540895 91.751065 350.750464 92.080211 C 354.119683 97.46917 304.000531 116.720985 307.289147 121.980867 C 308.059715 123.220005 351.09867 93.419383 351.630652 94.27129 C 351.630652 94.27129 306.250976 121.33871 308.159663 124.401058 C 309.768506 126.979369 350.399033 93.409702 352.468927 96.710843 C 355.180423 101.051053 309.420299 127.440819 309.420299 127.440819 C 310.239229 128.750949 353.36846 99.970034 353.36846 99.970034 C 355.709181 103.719717 310.148953 129.160768 310.410108 129.580268 C 311.538555 131.390571 353.890769 102.409587 353.890769 102.409587 C 354.010062 102.609656 308.669076 127.198799 311.528882 131.771347 C 314.720774 136.879564 355.580215 103.948829 355.709181 104.158578 " transform="matrix(1.211566,0,0,1.210519,0.187223,0)"/>
<path style="fill:none;stroke-width:0.9;stroke-linecap:round;stroke-linejoin:round;stroke:rgb(100%,100%,100%);stroke-opacity:1;stroke-miterlimit:4;" d="M 5.629565 139.461102 C 5.671479 139.519186 5.710169 139.409471 5.710169 139.409471 C 5.810117 139.570817 4.981515 142.458912 5.049221 142.568627 C 5.058894 142.591216 9.901542 139.080325 10.111111 139.409471 C 10.478662 139.999998 4.649429 145.960122 4.649429 145.960122 C 5.410324 147.179899 14.989224 139.19004 15.131086 139.409471 C 16.149912 141.039067 3.688637 148.71914 4.378602 149.81952 C 5.010532 150.819866 20.128493 137.950902 21.040923 139.409471 C 21.040923 139.409471 4.040068 152.578539 4.268981 152.949635 C 4.501119 153.320731 24.200573 136.621411 25.941605 139.409471 C 27.17 141.38112 3.840172 155.970033 4.249636 156.608964 C 6.31953 159.919785 31.78051 139.409471 31.78051 139.409471 C 33.898766 142.800966 1.979847 155.708653 4.301223 159.409932 C 4.610739 159.910105 35.459247 138.050937 36.310418 139.409471 C 38.119156 142.310474 2.06045 158.629017 4.420516 162.42065 C 5.291031 163.821134 40.43086 138.13161 41.240118 139.409471 C 41.240118 139.409471 2.87938 161.778492 4.539808 164.440703 C 4.778394 164.83116 44.599664 139.409471 44.599664 139.409471 C 45.370232 140.638928 2.73107 164.059926 4.749377 167.299755 C 4.910584 167.561136 49.390726 139.409471 49.390726 139.409471 C 51.679861 143.078481 3.140535 167.370748 5.049221 170.420189 C 5.748858 171.53993 54.681529 139.409471 54.681529 139.409471 C 56.238786 141.910335 1.341468 166.380083 5.310376 172.740345 C 5.900393 173.68906 54.349443 132.529674 58.650437 139.409471 C 60.968589 143.120431 2.48926 170.339516 5.658583 175.40901 C 9.350215 181.311049 62.029329 137.41846 63.27062 139.409471 C 63.818723 140.290421 4.82998 176.080209 6.03903 178.009908 C 9.198681 183.069722 66.401254 137.140945 67.8102 139.409471 C 69.751128 142.520224 3.720879 176.319001 6.480737 180.749565 C 9.240595 185.180128 72.001573 138.389764 72.639951 139.409471 C 76.151033 145.030769 4.920256 179.791169 6.880529 182.921283 C 8.05089 184.799352 75.451396 137.708883 76.508911 139.409471 C 77.88884 141.619912 6.190565 183.72156 7.428632 185.709344 C 12.80971 194.328451 77.069911 132.290882 81.519215 139.409471 C 85.968518 146.531287 3.969137 182.140368 8.079907 188.720062 C 11.839246 194.72859 83.998573 134.611039 86.990569 139.409471 C 92.368423 148.018898 7.580166 189.200873 8.560303 190.759476 C 8.560303 190.759476 90.298529 138.728591 90.730563 139.409471 C 92.548974 142.320154 4.659101 185.699663 9.060043 192.740806 C 9.060043 192.740806 90.450064 133.058889 94.409299 139.409471 C 99.80005 148.041487 6.119634 189.620373 9.801594 195.499824 C 12.509866 199.840034 99.571137 139.409471 99.571137 139.409471 C 101.241238 142.081362 6.95146 191.959891 10.340024 197.381119 C 14.179967 203.518724 99.500206 133.620374 103.120907 139.409471 C 107.589556 146.57001 10.878454 199.168834 10.878454 199.168834 C 12.771021 202.189233 104.820026 136.689176 106.519144 139.409471 C 106.519144 139.409471 6.071272 192.821479 11.758643 201.931079 C 11.758643 201.931079 106.18061 130.399906 111.809947 139.409471 C 116.478492 146.879795 12.248711 204.109251 12.838727 205.051512 C 13.328796 205.8292 112.31936 130.49994 117.890662 139.409471 C 117.99061 139.570817 6.728995 196.438858 13.899467 207.900884 C 13.899467 207.900884 117.871317 130.390225 123.500654 139.409471 C 125.609237 142.791285 13.261089 207.829892 14.921518 210.488875 L 128.66894 139.409471 C 133.859794 147.709114 13.62864 209.28846 16.011275 213.099455 C 24.79059 227.149472 125.599565 126.079058 133.930725 139.409471 C 138.428391 146.618414 15.121414 212.218505 16.830204 214.961389 C 22.991523 224.809954 135.339671 135.598477 137.728754 139.409471 C 143.071143 147.951133 16.659325 215.309896 17.971548 217.410622 C 21.46006 222.98997 138.17046 132.01014 142.790643 139.409471 C 142.790643 139.409471 12.181004 208.768926 19.399839 220.321306 C 19.399839 220.321306 143.229125 130.380544 148.881031 139.409471 C 154.529713 148.438398 18.010237 218.459372 20.479923 222.409124 C 21.959801 224.790592 142.980867 122.881178 153.31099 139.409471 C 162.728683 154.479195 19.690011 221.379736 21.469732 224.229108 C 28.34036 235.220003 156.689882 138.560791 157.21864 139.409471 L 22.740041 226.468592 L 162.061288 139.409471 C 166.101127 145.879449 21.798594 225.081015 24.371452 229.198567 C 24.371452 229.198567 162.309546 130.209517 168.0614 139.409471 C 176.679508 153.211015 17.990892 218.969225 25.319347 230.699086 C 34.450093 245.310587 167.339194 132.90077 171.411274 139.409471 C 180.909571 154.611499 26.418777 232.370631 26.418777 232.370631 C 26.418777 232.370631 166.36873 125.31105 175.180286 139.409471 C 175.551061 139.990317 22.5208 225.968419 27.608482 234.109942 C 34.630644 245.33963 168.461192 122.280971 179.168539 139.409471 C 189.87911 156.541198 22.449869 225.458565 29.520393 236.778606 C 29.781548 237.188425 183.820963 136.969918 185.349203 139.409471 C 185.349203 139.409471 19.180598 219.788864 31.100218 238.869652 C 34.130904 243.719715 189.640524 138.418806 190.259557 139.409471 C 202.811108 159.490605 21.360112 222.918978 32.180303 240.241093 C 39.51843 251.980634 192.300434 137.441049 193.528829 139.409471 C 195.711567 142.89132 26.451018 230.521605 33.640835 242.019127 C 35.478591 244.958853 192.239175 130.428948 197.849167 139.409471 C 199.590199 142.191078 22.688455 223.709573 35.430229 244.100492 C 35.430229 244.100492 189.350352 117.608388 202.969091 139.409471 C 202.969091 139.409471 34.878903 242.3515 37.180934 246.039872 C 37.180934 246.039872 207.308774 138.589833 207.821411 139.409471 C 210.310442 143.401173 38.580208 247.530709 38.580208 247.530709 C 51.779809 268.650912 199.0292 119.270253 211.609768 139.409471 C 224.841611 160.581304 40.611412 249.579805 40.611412 249.579805 C 52.169929 268.089428 207.78917 124.778608 216.929588 139.409471 C 224.270939 151.158693 34.969178 239.331101 42.539443 251.438512 C 46.360041 257.559982 210.368477 121.080556 221.820598 139.409471 C 228.291434 149.761436 35.900953 239.098763 45.009129 253.681222 C 51.799154 264.549494 224.029129 133.258958 227.878745 139.409471 C 238.540953 156.470206 40.96929 245.678456 47.079023 255.459256 C 50.499828 260.928888 219.750705 118.531288 232.798772 139.409471 C 232.798772 139.409471 48.068832 255.639964 48.868417 256.921052 C 58.508575 272.348964 235.771423 137.570126 236.919214 139.409471 C 242.951568 149.070875 39.708654 240.918747 50.499828 258.198913 C 50.499828 258.198913 229.610104 121.819521 240.601174 139.409471 C 245.269719 146.889476 52.408515 259.628439 52.408515 259.628439 C 54.330099 262.710149 229.539173 114.991355 244.798996 139.409471 C 244.798996 139.409471 40.350257 238.721213 54.23015 260.938569 C 68.110044 283.159152 235.810112 118.77008 248.70987 139.409471 C 261.609627 160.048862 42.210582 239.550532 56.580544 262.539122 C 68.039113 280.871264 253.629897 139.409471 253.629897 139.409471 C 258.901355 147.851098 52.340808 253.071334 59.388764 264.349425 C 72.610934 285.511578 247.629785 120.690098 259.330165 139.409471 C 271.101475 158.238559 62.039001 265.940298 62.039001 265.940298 C 75.351448 287.241208 264.521019 139.409471 264.521019 139.409471 C 264.521019 139.409471 62.290484 263.939606 64.37005 267.260109 C 71.440574 278.58015 258.759493 123.071567 268.970323 139.409471 C 279.181153 155.750603 60.301193 258.689405 66.301305 268.299177 C 66.301305 268.299177 267.080981 130.629017 272.568456 139.409471 C 286.938418 162.401288 61.191054 256.388609 69.718887 270.028807 C 84.488641 293.669236 278.758792 139.409471 278.758792 139.409471 C 288.569829 155.108445 66.220702 262.239018 71.659815 270.94848 C 80.700285 285.411543 268.528617 117.498673 282.198942 139.39011 C 289.021208 150.310013 73.620088 271.839111 73.620088 271.839111 C 89.44091 297.160765 280.16129 130.119164 285.848661 139.219083 C 285.848661 139.219083 70.331472 262.290649 77.260134 273.381579 C 89.398996 292.810875 280.690048 117.898811 293.441495 138.29941 C 302.078948 152.129996 75.000017 266.889013 79.639545 274.320613 C 79.639545 274.320613 294.708579 129.318887 299.480296 136.950557 C 315.939497 163.288692 82.409075 274.469052 83.108712 275.579113 C 84.488641 277.789554 339.620756 74.771003 357.840333 103.910106 C 370.288711 123.839574 79.639545 266.450151 85.929829 276.521374 C 106.680351 309.729625 363.008618 103.38089 363.008618 103.38089 L 88.680015 277.370054 C 98.800569 293.569201 358.778556 89.230839 367.480491 103.16146 C 381.460333 125.530481 83.45047 264.991583 91.739717 278.251004 C 113.509065 313.088851 353.739235 74.06108 371.929795 103.17114 C 393.689471 137.989626 92.619905 275.311278 94.999316 279.109365 C 113.941099 309.429521 359.681313 76.949175 376.198548 103.390571 C 379.061578 107.959892 85.449433 258.150509 99.158448 280.080669 C 99.158448 280.080669 368.599265 83.999999 381.060541 103.929467 C 402.059321 137.541083 102.098857 278.760858 103.478786 280.971299 C 103.478786 280.971299 379.870835 95.649186 385.538862 104.720063 C 391.609905 114.439551 106.799644 281.558599 106.799644 281.558599 C 113.0996 291.649183 384.948845 99.521492 388.65015 105.439666 C 389.691545 107.101531 110.968448 282.210437 110.968448 282.210437 C 127.659786 308.929349 382.140625 90.350581 392.209593 106.469054 C 398.690101 116.8307 115.930389 282.839687 115.930389 282.839687 C 131.051574 307.028692 391.619577 100.770311 396.020519 107.821135 C 408.04976 127.069723 108.698658 264.081591 120.731123 283.330179 C 143.071143 319.081244 383.64952 84.138756 399.341376 109.24098 C 420.440104 143.001035 118.80954 273.358991 125.261031 283.669005 C 125.770444 284.488644 382.94021 79.8889 402.159269 110.651145 C 415.658715 132.258613 130.271334 283.930386 130.271334 283.930386 C 137.728754 295.860316 390.871578 89.721331 404.970713 112.28074 C 423.380514 141.739309 111.961481 248.931193 133.888811 284.040101 C 139.869579 293.611151 401.098529 104.371555 406.808469 113.500517 C 428.068404 147.518725 117.500542 251.580496 137.81903 284.088505 C 150.918683 305.050589 392.3708 88.859743 408.620432 114.868732 C 424.870064 140.880947 135.881326 274.530363 141.839524 284.069144 C 141.839524 284.069144 331.218664 134.869192 345.088886 157.060733 C 360.500243 181.711188 138.641184 270.729049 146.911086 283.97879 C 152.211561 292.45914 343.209216 161.320269 343.209216 161.320269 C 350.621498 173.179207 149.838599 278.409123 153.178801 283.749679 C 167.319849 306.38008 326.640395 143.920708 340.768547 166.528521 C 345.559609 174.189233 149.138962 267.521489 159.05962 283.410852 C 160.810324 286.208593 328.300824 155.298834 338.340775 171.378584 C 346.439797 184.341129 163.060769 283.110748 163.060769 283.110748 C 167.481056 290.180933 328.719961 162.020511 336.619088 174.660364 C 349.618793 195.470782 169.550949 282.510541 169.550949 282.510541 C 171.859429 286.208593 323.109969 162.959546 333.710919 179.929927 C 342.899699 194.641463 164.108612 262.800503 175.950854 281.758668 C 181.651122 290.881175 319.869715 167.780567 330.680234 185.080094 C 336.918932 195.070643 179.681176 276.931193 182.160535 280.900307 C 188.041354 290.31001 327.601187 190.020511 327.601187 190.020511 C 328.800564 191.95021 184.069222 275.669467 186.861321 280.138753 C 192.64864 289.409699 321.069093 187.190501 325.160518 193.718563 L 194.141414 278.780219 C 204.31033 295.050358 311.651399 184.09911 321.201282 199.378584 C 327.388394 209.28846 202.021196 277.06027 202.021196 277.06027 C 204.719795 281.371437 316.648806 205.429062 316.648806 205.429062 C 318.941165 209.088391 208.150273 267.440816 212.470612 274.359336 C 212.870404 274.988586 304.519617 204.270597 310.171522 213.309205 C 314.940015 220.940875 217.310036 263.249045 222.349356 271.309895 C 225.931368 277.031228 303.529808 220.579459 303.529808 220.579459 C 309.278437 229.779413 232.389307 266.359798 233.059927 267.421455 C 235.590871 271.471241 293.941235 225.371438 295.740302 228.249852 C 296.878421 230.079517 247.948974 259.709112 248.519646 260.628785 L 283.250009 238.930963 " transform="matrix(1.211566,0,0,1.210519,0.187223,0)"/>
<path style="fill:none;stroke-width:6;stroke-linecap:butt;stroke-linejoin:miter;stroke:rgb(11.372549%,10.980392%,12.941176%);stroke-opacity:1;stroke-miterlimit:10;" d="M 409.471603 115.239828 C 409.471603 115.239828 391.471267 98.240404 354.471113 104.239252 C 350.469964 75.238906 319.469923 58.239483 319.469923 58.239483 C 319.469923 58.239483 290.468844 93.238675 311.470848 132.239251 C 305.470736 135.240288 295.469475 139.238444 280.470807 139.238444 L 5.471583 139.238444 C 0.470952 158.238559 0.470952 284.240171 138.470305 284.240171 C 237.470541 284.240171 311.470848 238.240402 346.468815 154.240403 C 398.47086 158.238559 409.471603 115.239828 409.471603 115.239828 " transform="matrix(1.211566,0,0,1.210519,0.187223,0)"/>
</g>
<mask id="mask1">
  <g filter="url(#alpha)">
<rect x="0" y="0" width="500" height="348" style="fill:rgb(0%,0%,0%);fill-opacity:0.501961;stroke:none;"/>
  </g>
</mask>
<clipPath id="clip2">
  <rect x="0" y="0" width="500" height="348"/>
</clipPath>
<g id="surface8" clip-path="url(#clip2)">
<path style=" stroke:none;fill-rule:nonzero;fill:rgb(30.588235%,37.254902%,86.666667%);fill-opacity:1;" d="M 221.867188 114.792969 L 271.542969 114.792969 L 271.542969 158.964844 L 221.867188 158.964844 Z M 221.867188 114.792969 "/>
<path style="fill:none;stroke-width:0.9;stroke-linecap:round;stroke-linejoin:round;stroke:rgb(100%,100%,100%);stroke-opacity:1;stroke-miterlimit:4;" d="M 183.211602 94.990894 C 183.211602 94.990894 183.198706 94.971532 183.211602 94.990894 C 183.379257 95.258728 183.211602 97.449808 183.211602 97.449808 C 183.211602 97.449808 187.128924 94.939263 187.161165 94.981213 C 187.480355 95.491067 183.140671 100.379853 183.211602 100.489569 C 183.878998 101.560907 191.600797 94.300333 192.029607 94.981213 C 192.1489 95.171602 182.689293 102.971071 183.211602 103.810071 C 183.820963 104.781374 196.968979 94.381006 197.339754 94.981213 C 197.839495 95.791171 181.970311 104.381236 183.211602 106.359339 C 183.398602 106.659443 200.841163 94.038952 201.431179 94.981213 C 201.431179 94.981213 182.769896 108.921515 183.211602 109.641118 L 206.680068 94.971532 C 207.598946 96.439782 183.021378 112.138756 183.211602 112.43886 C 183.211602 112.43886 210.981062 94.658521 211.171286 94.971532 C 212.238474 96.691482 183.211602 114.510543 183.211602 114.510543 C 184.459342 116.511235 214.488919 94.958625 214.488919 94.958625 C 215.401349 96.410739 181.960638 115.901347 183.211602 117.898811 C 184.459342 119.899503 219.931256 94.948944 219.931256 94.948944 C 221.849615 98.030654 180.590382 116.879104 183.211602 121.070875 C 184.41098 122.990893 223.729285 95.749221 223.729285 95.749221 C 224.860956 97.559524 180.238951 119.099226 183.211602 123.858935 C 184.269118 125.559523 223.729285 98.540508 223.729285 98.540508 C 227.050142 103.858475 183.211602 126.57923 183.211602 126.57923 C 183.340567 126.78898 222.839424 99.831276 223.729285 101.260803 C 225.080197 103.419613 180.380813 124.239712 183.211602 128.77031 C 184.230428 130.399906 221.978581 100.650915 223.729285 103.448656 C 225.1608 105.73977 185.120289 131.161459 185.120289 131.161459 C 187.509372 134.988588 222.010822 104.290882 223.729285 107.030539 C 226.431109 111.338479 188.599129 130.929121 188.750663 131.148552 C 190.669022 134.230262 222.220391 106.869193 223.738957 109.289384 C 223.738957 109.289384 192.048951 129.499595 193.071002 131.148552 C 193.071002 131.148552 223.700268 111.919325 223.738957 111.990317 C 225.351024 114.558947 195.869549 128.989741 197.220461 131.148552 C 199.171062 134.259304 223.619664 114.381466 223.738957 114.581536 C 223.738957 114.581536 200.460715 128.98006 201.821299 131.148552 C 203.17866 133.32027 222.939372 116.1595 223.74863 117.450269 C 223.938854 117.760053 207.11855 130.829086 207.318447 131.148552 C 207.408722 131.290536 223.058665 119.780106 223.74863 120.880487 C 224.13875 121.509736 210.281425 129.809379 211.1197 131.138871 C 211.36151 131.529328 223.181182 122.329375 223.761526 123.239366 C 224.461163 124.368789 216.82964 130.800044 217.039208 131.12919 C 217.509932 131.890744 223.619664 126.688946 223.761526 126.930965 C 223.929181 127.198799 222.549252 130.719371 222.800735 131.12919 C 222.800735 131.12919 223.74863 130.49994 223.761526 130.528983 " transform="matrix(1.211566,0,0,1.210519,0.187223,0)"/>
</g>
<mask id="mask2">
  <g filter="url(#alpha)">
<rect x="0" y="0" width="500" height="348" style="fill:rgb(0%,0%,0%);fill-opacity:0.501961;stroke:none;"/>
  </g>
</mask>
<clipPath id="clip3">
  <rect x="0" y="0" width="500" height="348"/>
</clipPath>
<g id="surface11" clip-path="url(#clip3)">
<path style=" stroke:none;fill-rule:nonzero;fill:rgb(30.588235%,37.254902%,86.666667%);fill-opacity:1;" d="M 220.351562 59.316406 L 270.027344 59.316406 L 270.027344 103.488281 L 220.351562 103.488281 Z M 220.351562 59.316406 "/>
<path style="fill:none;stroke-width:0.9;stroke-linecap:round;stroke-linejoin:round;stroke:rgb(100%,100%,100%);stroke-opacity:1;stroke-miterlimit:4;" d="M 181.960638 49.158925 C 181.960638 49.158925 181.950966 49.139564 181.960638 49.158925 C 182.131518 49.429987 181.960638 51.621066 181.960638 51.621066 C 181.960638 51.621066 185.881184 49.110521 185.910202 49.149244 C 186.229391 49.659098 181.889708 54.551111 181.960638 54.660827 C 182.631258 55.728938 190.349833 48.471591 190.778643 49.149244 C 190.90116 49.339633 181.441553 57.139102 181.960638 57.981329 C 182.57 58.949406 195.721239 48.549037 196.08879 49.149244 C 196.588531 49.959202 180.719347 58.549267 181.960638 60.530597 C 182.150862 60.830701 199.590199 48.21021 200.180216 49.149244 C 200.180216 49.149244 181.518932 63.089546 181.960638 63.80915 L 205.429105 49.139564 C 206.351207 50.61104 181.770415 66.310014 181.960638 66.610118 C 181.960638 66.610118 209.730098 48.829779 209.920322 49.139564 C 210.990734 50.859513 181.960638 68.678574 181.960638 68.678574 C 183.211602 70.679266 213.241179 49.129883 213.241179 49.129883 C 214.150385 50.578771 180.709675 70.069378 181.960638 72.070069 C 183.211602 74.070761 218.680292 49.120202 218.680292 49.120202 C 220.598652 52.198685 179.339418 71.050362 181.960638 75.238906 C 183.160016 77.158925 222.481545 49.920479 222.481545 49.920479 C 223.609992 51.730782 178.991212 73.270484 181.960638 78.030194 C 183.021378 79.730781 222.481545 52.708539 222.481545 52.708539 C 225.799179 58.029733 181.960638 80.750489 181.960638 80.750489 C 182.089604 80.960238 221.588461 53.999308 222.481545 55.428834 C 223.829233 57.590871 179.129849 78.41097 181.960638 82.941568 C 182.979465 84.571164 220.730841 54.818946 222.481545 57.619914 C 223.909836 59.911028 183.869325 85.32949 183.869325 85.32949 C 186.258408 89.159846 220.759858 58.458913 222.481545 61.19857 C 225.180145 65.509737 187.351389 85.100379 187.499699 85.31981 C 189.421283 88.40152 220.969427 61.040451 222.491218 63.460642 C 222.491218 63.460642 190.801212 83.670853 191.820038 85.31981 C 191.820038 85.31981 222.449304 66.090583 222.491218 66.161576 C 224.10006 68.730205 194.618586 83.160999 195.969498 85.31981 C 197.920098 88.430562 222.368701 68.549498 222.491218 68.749567 C 222.491218 68.749567 199.209751 83.151318 200.570336 85.31981 C 201.93092 87.491528 221.688409 70.330758 222.50089 71.621527 C 222.691114 71.931312 205.870811 85.000344 206.070707 85.31981 C 206.160983 85.458567 221.810926 73.951364 222.50089 75.048518 C 222.89101 75.680995 209.030461 83.980637 209.868736 85.310129 C 210.110546 85.700586 221.930219 76.500633 222.510563 77.410625 C 223.2102 78.540047 215.578676 84.971302 215.791469 85.300448 C 216.258968 86.058775 222.368701 80.860204 222.510563 81.098996 C 222.681442 81.370057 221.301513 84.890629 221.549771 85.300448 C 221.549771 85.300448 222.50089 84.671198 222.510563 84.700241 " transform="matrix(1.211566,0,0,1.210519,0.187223,0)"/>
</g>
<mask id="mask3">
  <g filter="url(#alpha)">
<rect x="0" y="0" width="500" height="348" style="fill:rgb(0%,0%,0%);fill-opacity:0.501961;stroke:none;"/>
  </g>
</mask>
<clipPath id="clip4">
  <rect x="0" y="0" width="500" height="348"/>
</clipPath>
<g id="surface14" clip-path="url(#clip4)">
<path style=" stroke:none;fill-rule:nonzero;fill:rgb(30.588235%,37.254902%,86.666667%);fill-opacity:1;" d="M 161.289062 115 L 210.964844 115 L 210.964844 159.171875 L 161.289062 159.171875 Z M 161.289062 115 "/>
<path style="fill:none;stroke-width:0.9;stroke-linecap:round;stroke-linejoin:round;stroke:rgb(100%,100%,100%);stroke-opacity:1;stroke-miterlimit:4;" d="M 133.208519 95.158694 C 133.208519 95.158694 133.198847 95.139332 133.208519 95.158694 C 133.379398 95.429755 133.208519 97.620835 133.208519 97.620835 C 133.208519 97.620835 137.129065 95.11029 137.161307 95.149013 C 137.480496 95.658867 133.140812 100.55088 133.208519 100.660595 C 133.879139 101.728706 141.600938 94.47136 142.029748 95.149013 C 142.149041 95.339401 132.689434 103.138871 133.208519 103.981098 C 133.821105 104.949174 146.96912 94.548806 147.339895 95.149013 C 147.839636 95.95897 131.970452 104.549036 133.208519 106.530366 C 133.398743 106.83047 150.841304 94.209979 151.43132 95.149013 C 151.43132 95.149013 132.770037 109.089315 133.208519 109.808918 L 156.680209 95.139332 C 157.599087 96.610809 133.021519 112.309783 133.208519 112.609886 C 133.208519 112.609886 160.981203 94.829548 161.171427 95.139332 C 162.238615 96.859282 133.208519 114.68157 133.208519 114.68157 C 134.459483 116.679035 164.48906 95.129652 164.48906 95.129652 C 165.40149 96.578539 131.96078 116.069146 133.208519 118.069838 C 134.459483 120.070529 169.931397 95.119971 169.931397 95.119971 C 171.849756 98.198454 130.590523 117.050131 133.208519 121.238675 C 134.411121 123.158693 173.729426 95.920247 173.729426 95.920247 C 174.861097 97.73055 130.239092 119.270253 133.208519 124.029962 C 134.269259 125.73055 173.729426 98.711535 173.729426 98.711535 C 177.050283 104.029502 133.208519 126.750257 133.208519 126.750257 C 133.340709 126.960007 172.839565 99.999076 173.729426 101.428603 C 175.080338 103.59064 130.380954 124.410739 133.208519 128.941337 C 134.230569 130.570933 171.978722 100.818715 173.729426 103.619683 C 175.160941 105.910797 135.12043 131.329259 135.12043 131.329259 C 137.509513 135.159615 172.010963 104.458682 173.729426 107.201566 C 176.43125 111.509506 138.59927 131.100148 138.750804 131.319578 C 140.669164 134.401289 172.220532 107.04022 173.739099 109.460411 C 173.739099 109.460411 142.049093 129.670621 143.071143 131.319578 C 143.071143 131.319578 173.700409 112.090352 173.739099 112.161344 C 175.351165 114.729974 145.869691 129.160768 147.220602 131.319578 C 149.171203 134.430331 173.619806 114.549266 173.739099 114.749335 C 173.739099 114.749335 150.460856 129.151087 151.821441 131.319578 C 153.178801 133.491297 172.939514 116.330527 173.748771 117.621296 C 173.938995 117.93108 157.118692 131.000113 157.318588 131.319578 C 157.408864 131.461563 173.058806 119.951133 173.748771 121.051514 C 174.138891 121.680763 160.281566 129.980406 161.119841 131.309898 C 161.358427 131.700355 173.181324 122.500401 173.758443 123.410393 C 174.461304 124.539816 166.829781 130.971071 167.03935 131.300217 C 167.510073 132.058543 173.619806 126.859973 173.758443 127.098765 C 173.929322 127.369826 172.549393 130.890398 172.800876 131.300217 C 172.800876 131.300217 173.748771 130.670967 173.758443 130.700009 " transform="matrix(1.211566,0,0,1.210519,0.187223,0)"/>
</g>
<mask id="mask4">
  <g filter="url(#alpha)">
<rect x="0" y="0" width="500" height="348" style="fill:rgb(0%,0%,0%);fill-opacity:0.501961;stroke:none;"/>
  </g>
</mask>
<clipPath id="clip5">
  <rect x="0" y="0" width="500" height="348"/>
</clipPath>
<g id="surface17" clip-path="url(#clip5)">
<path style=" stroke:none;fill-rule:nonzero;fill:rgb(30.588235%,37.254902%,86.666667%);fill-opacity:1;" d="M 160.984375 59.316406 L 210.660156 59.316406 L 210.660156 103.488281 L 160.984375 103.488281 Z M 160.984375 59.316406 "/>
<path style="fill:none;stroke-width:0.9;stroke-linecap:round;stroke-linejoin:round;stroke:rgb(100%,100%,100%);stroke-opacity:1;stroke-miterlimit:4;" d="M 132.960261 49.158925 C 132.960261 49.158925 132.950589 49.139564 132.960261 49.158925 C 133.13114 49.429987 132.960261 51.621066 132.960261 51.621066 C 132.960261 51.621066 136.880807 49.110521 136.909824 49.149244 C 137.229013 49.659098 132.88933 54.551111 132.960261 54.660827 C 133.630881 55.728938 141.349456 48.471591 141.78149 49.149244 C 141.900782 49.339633 132.441175 57.139102 132.960261 57.981329 C 133.569622 58.949406 146.720862 48.549037 147.088413 49.149244 C 147.591378 49.959202 131.71897 58.549267 132.960261 60.530597 C 133.150485 60.830701 150.589822 48.21021 151.179838 49.149244 C 151.179838 49.149244 132.518555 63.089546 132.960261 63.80915 L 156.428727 49.139564 C 157.350829 50.61104 132.770037 66.310014 132.960261 66.610118 C 132.960261 66.610118 160.729721 48.829779 160.919945 49.139564 C 161.990357 50.859513 132.960261 68.678574 132.960261 68.678574 C 134.211225 70.679266 164.240802 49.129883 164.240802 49.129883 C 165.150008 50.578771 131.709297 70.069378 132.960261 72.070069 C 134.211225 74.070761 169.679915 49.120202 169.679915 49.120202 C 171.601498 52.198685 130.339041 71.050362 132.960261 75.238906 C 134.159638 77.158925 173.481168 49.920479 173.481168 49.920479 C 174.609615 51.730782 129.990834 73.270484 132.960261 78.030194 C 134.021001 79.730781 173.481168 52.708539 173.481168 52.708539 C 176.798801 58.029733 132.960261 80.750489 132.960261 80.750489 C 133.089226 80.960238 172.591307 53.999308 173.481168 55.428834 C 174.828856 57.590871 130.129472 78.41097 132.960261 82.941568 C 133.979087 84.571164 171.730464 54.818946 173.481168 57.619914 C 174.909459 59.911028 134.868948 85.32949 134.868948 85.32949 C 137.261255 89.159846 171.759481 58.458913 173.481168 61.19857 C 176.179767 65.509737 138.351012 85.100379 138.499322 85.31981 C 140.420905 88.40152 171.969049 61.040451 173.49084 63.460642 C 173.49084 63.460642 141.800834 83.670853 142.81966 85.31981 C 142.81966 85.31981 173.448927 66.090583 173.49084 66.161576 C 175.099683 68.730205 145.621432 83.160999 146.96912 85.31981 C 148.919721 88.430562 173.371547 68.549498 173.49084 68.749567 C 173.49084 68.749567 150.209374 83.151318 151.569958 85.31981 C 152.930542 87.491528 172.691255 70.330758 173.500513 71.621527 C 173.690737 71.931312 156.870433 85.000344 157.07033 85.31981 C 157.160605 85.458567 172.810548 73.951364 173.500513 75.048518 C 173.890633 75.680995 160.030084 83.980637 160.871583 85.310129 C 161.110169 85.700586 172.929841 76.500633 173.510185 77.410625 C 174.209822 78.540047 166.581523 84.971302 166.791091 85.300448 C 167.258591 86.058775 173.371547 80.860204 173.510185 81.098996 C 173.681064 81.370057 172.301135 84.890629 172.549393 85.300448 C 172.549393 85.300448 173.500513 84.671198 173.510185 84.700241 " transform="matrix(1.211566,0,0,1.210519,0.187223,0)"/>
</g>
<mask id="mask5">
  <g filter="url(#alpha)">
<rect x="0" y="0" width="500" height="348" style="fill:rgb(0%,0%,0%);fill-opacity:0.501961;stroke:none;"/>
  </g>
</mask>
<clipPath id="clip6">
  <rect x="0" y="0" width="500" height="348"/>
</clipPath>
<g id="surface20" clip-path="url(#clip6)">
<path style=" stroke:none;fill-rule:nonzero;fill:rgb(30.588235%,37.254902%,86.666667%);fill-opacity:1;" d="M 102.527344 115 L 152.203125 115 L 152.203125 159.171875 L 102.527344 159.171875 Z M 102.527344 115 "/>
<path style="fill:none;stroke-width:0.9;stroke-linecap:round;stroke-linejoin:round;stroke:rgb(100%,100%,100%);stroke-opacity:1;stroke-miterlimit:4;" d="M 84.711106 95.158694 C 84.711106 95.158694 84.701434 95.139332 84.711106 95.158694 C 84.878761 95.429755 84.711106 97.620835 84.711106 97.620835 C 84.711106 97.620835 88.628428 95.11029 88.66067 95.149013 C 88.979859 95.658867 84.640176 100.55088 84.711106 100.660595 C 85.378502 101.728706 93.100301 94.47136 93.529111 95.149013 C 93.648404 95.339401 84.188797 103.138871 84.711106 103.981098 C 85.320468 104.949174 98.468483 94.548806 98.839258 95.149013 C 99.338999 95.95897 83.469815 104.549036 84.711106 106.530366 C 84.90133 106.83047 102.340667 94.209979 102.930684 95.149013 C 102.930684 95.149013 84.2694 109.089315 84.711106 109.808918 L 108.179573 95.139332 C 109.098451 96.610809 84.520883 112.309783 84.711106 112.609886 C 84.711106 112.609886 112.480566 94.829548 112.67079 95.139332 C 113.741202 96.859282 84.711106 114.68157 84.711106 114.68157 C 85.958846 116.679035 115.988423 95.129652 115.988423 95.129652 C 116.900853 96.578539 83.460143 116.069146 84.711106 118.069838 C 85.958846 120.070529 121.43076 95.119971 121.43076 95.119971 C 123.34912 98.198454 82.089886 117.050131 84.711106 121.238675 C 85.910484 123.158693 125.228789 95.920247 125.228789 95.920247 C 126.36046 97.73055 81.738456 119.270253 84.711106 124.029962 C 85.768622 125.73055 125.228789 98.711535 125.228789 98.711535 C 128.549647 104.029502 84.711106 126.750257 84.711106 126.750257 C 84.840072 126.960007 124.338929 99.999076 125.228789 101.428603 C 126.579701 103.59064 81.880317 124.410739 84.711106 128.941337 C 85.729933 130.570933 123.481309 100.818715 125.228789 103.619683 C 126.660304 105.910797 86.619793 131.329259 86.619793 131.329259 C 89.008876 135.159615 123.510326 104.458682 125.228789 107.201566 C 127.930613 111.509506 90.098633 131.100148 90.250167 131.319578 C 92.168527 134.401289 123.719895 107.04022 125.238462 109.460411 C 125.238462 109.460411 93.548456 129.670621 94.570506 131.319578 C 94.570506 131.319578 125.199772 112.090352 125.238462 112.161344 C 126.850528 114.729974 97.369054 129.160768 98.719966 131.319578 C 100.670566 134.430331 125.119169 114.549266 125.238462 114.749335 C 125.238462 114.749335 101.960219 129.151087 103.320804 131.319578 C 104.681388 133.491297 124.438877 116.330527 125.251358 117.621296 C 125.441582 117.93108 108.621279 131.000113 108.821175 131.319578 C 108.911451 131.461563 124.561394 119.951133 125.251358 121.051514 C 125.641478 121.680763 111.780929 129.980406 112.619204 131.309898 C 112.861014 131.700355 124.680687 122.500401 125.261031 123.410393 C 125.960668 124.539816 118.329144 130.971071 118.538713 131.300217 C 119.009436 132.058543 125.119169 126.859973 125.261031 127.098765 C 125.428686 127.369826 124.048757 130.890398 124.300239 131.300217 C 124.300239 131.300217 125.251358 130.670967 125.261031 130.700009 " transform="matrix(1.211566,0,0,1.210519,0.187223,0)"/>
</g>
<mask id="mask6">
  <g filter="url(#alpha)">
<rect x="0" y="0" width="500" height="348" style="fill:rgb(0%,0%,0%);fill-opacity:0.501961;stroke:none;"/>
  </g>
</mask>
<clipPath id="clip7">
  <rect x="0" y="0" width="500" height="348"/>
</clipPath>
<g id="surface23" clip-path="url(#clip7)">
<path style=" stroke:none;fill-rule:nonzero;fill:rgb(30.588235%,37.254902%,86.666667%);fill-opacity:1;" d="M 41.042969 115 L 90.714844 115 L 90.714844 159.171875 L 41.042969 159.171875 Z M 41.042969 115 "/>
<path style="fill:none;stroke-width:0.9;stroke-linecap:round;stroke-linejoin:round;stroke:rgb(100%,100%,100%);stroke-opacity:1;stroke-miterlimit:4;" d="M 33.960025 95.158694 C 33.960025 95.158694 33.950352 95.139332 33.960025 95.158694 C 34.130904 95.429755 33.960025 97.620835 33.960025 97.620835 C 33.960025 97.620835 37.880571 95.11029 37.909588 95.149013 C 38.228777 95.658867 33.889094 100.55088 33.960025 100.660595 C 34.630644 101.728706 42.349219 94.47136 42.781253 95.149013 C 42.900546 95.339401 33.440939 103.138871 33.960025 103.981098 C 34.569386 104.949174 47.720625 94.548806 48.091401 95.149013 C 48.591141 95.95897 32.718733 104.549036 33.960025 106.530366 C 34.150248 106.83047 51.589585 94.209979 52.179602 95.149013 C 52.179602 95.149013 33.521542 109.089315 33.960025 109.808918 L 57.428491 95.139332 C 58.350593 96.610809 33.769801 112.309783 33.960025 112.609886 C 33.960025 112.609886 61.729484 94.829548 61.919708 95.139332 C 62.990121 96.859282 33.960025 114.68157 33.960025 114.68157 C 35.210988 116.679035 65.240566 95.129652 65.240566 95.129652 C 66.149771 96.578539 32.709061 116.069146 33.960025 118.069838 C 35.210988 120.070529 70.679678 95.119971 70.679678 95.119971 C 72.601262 98.198454 31.338804 117.050131 33.960025 121.238675 C 35.159402 123.158693 74.480932 95.920247 74.480932 95.920247 C 75.609378 97.73055 30.990598 119.270253 33.960025 124.029962 C 35.020764 125.73055 74.480932 98.711535 74.480932 98.711535 C 77.798565 104.029502 33.960025 126.750257 33.960025 126.750257 C 34.08899 126.960007 73.591071 99.999076 74.480932 101.428603 C 75.828619 103.59064 31.129236 124.410739 33.960025 128.941337 C 34.978851 130.570933 72.730227 100.818715 74.480932 103.619683 C 75.909223 105.910797 35.868711 131.329259 35.868711 131.329259 C 38.261018 135.159615 72.759244 104.458682 74.480932 107.201566 C 77.179531 111.509506 39.350775 131.100148 39.499086 131.319578 C 41.420669 134.401289 72.968813 107.04022 74.490604 109.460411 C 74.490604 109.460411 42.800598 129.670621 43.819424 131.319578 C 43.819424 131.319578 74.44869 112.090352 74.490604 112.161344 C 76.099446 114.729974 46.621196 129.160768 47.968884 131.319578 C 49.919484 134.430331 74.371311 114.549266 74.490604 114.749335 C 74.490604 114.749335 51.209138 129.151087 52.569722 131.319578 C 53.930306 133.491297 73.691019 116.330527 74.500276 117.621296 C 74.6905 117.93108 57.870197 131.000113 58.070093 131.319578 C 58.160369 131.461563 73.810312 119.951133 74.500276 121.051514 C 74.890396 121.680763 61.029848 129.980406 61.871346 131.309898 C 62.109932 131.700355 73.929605 122.500401 74.509949 123.410393 C 75.209586 124.539816 67.581286 130.971071 67.790855 131.300217 C 68.261578 132.058543 74.371311 126.859973 74.509949 127.098765 C 74.680828 127.369826 73.300899 130.890398 73.549157 131.300217 C 73.549157 131.300217 74.500276 130.670967 74.509949 130.700009 " transform="matrix(1.211566,0,0,1.210519,0.187223,0)"/>
</g>
<mask id="mask7">
  <g filter="url(#alpha)">
<rect x="0" y="0" width="500" height="348" style="fill:rgb(0%,0%,0%);fill-opacity:0.501961;stroke:none;"/>
  </g>
</mask>
<clipPath id="clip8">
  <rect x="0" y="0" width="500" height="348"/>
</clipPath>
<g id="surface26" clip-path="url(#clip8)">
<path style=" stroke:none;fill-rule:nonzero;fill:rgb(30.588235%,37.254902%,86.666667%);fill-opacity:1;" d="M 220.351562 3.632812 L 270.027344 3.632812 L 270.027344 47.804688 L 220.351562 47.804688 Z M 220.351562 3.632812 "/>
<path style="fill:none;stroke-width:0.9;stroke-linecap:round;stroke-linejoin:round;stroke:rgb(100%,100%,100%);stroke-opacity:1;stroke-miterlimit:4;" d="M 181.960638 3.159156 C 181.960638 3.159156 181.950966 3.139795 181.960638 3.159156 C 182.131518 3.430218 181.960638 5.621298 181.960638 5.621298 C 181.960638 5.621298 185.881184 3.110753 185.910202 3.149476 C 186.229391 3.659329 181.889708 8.551342 181.960638 8.661058 C 182.631258 9.729169 190.349833 2.468595 190.778643 3.149476 C 190.90116 3.339864 181.441553 11.139334 181.960638 11.98156 C 182.57 12.949637 195.721239 2.549268 196.08879 3.149476 C 196.588531 3.959433 180.719347 12.549498 181.960638 14.530828 C 182.150862 14.830932 199.590199 2.210441 200.180216 3.149476 C 200.180216 3.149476 181.518932 17.089777 181.960638 17.809381 L 205.429105 3.139795 C 206.351207 4.611271 181.770415 20.310245 181.960638 20.610349 C 181.960638 20.610349 209.730098 2.83001 209.920322 3.139795 C 210.990734 4.859744 181.960638 22.678806 181.960638 22.678806 C 183.211602 24.679497 213.241179 3.130114 213.241179 3.130114 C 214.150385 4.579002 180.709675 24.069609 181.960638 26.0703 C 183.211602 28.070992 218.680292 3.139795 218.680292 3.139795 C 220.598652 6.221505 179.339418 25.069955 181.960638 29.258499 C 183.160016 31.178517 222.481545 3.940071 222.481545 3.940071 C 223.609992 5.750374 178.991212 27.290077 181.960638 32.049786 C 183.021378 33.750374 222.481545 6.731359 222.481545 6.731359 C 225.799179 12.049326 181.960638 34.770081 181.960638 34.770081 C 182.089604 34.979831 221.588461 8.0189 222.481545 9.448427 C 223.829233 11.610464 179.129849 32.430563 181.960638 36.961161 C 182.979465 38.590757 220.730841 8.838539 222.481545 11.639507 C 223.909836 13.930621 183.869325 39.349083 183.869325 39.349083 C 186.258408 43.179439 220.759858 12.478506 222.481545 15.22139 C 225.180145 19.52933 187.351389 39.119972 187.499699 39.339402 C 189.421283 42.421113 220.969427 15.060044 222.491218 17.480235 C 222.491218 17.480235 190.801212 37.690445 191.820038 39.339402 C 191.820038 39.339402 222.449304 20.110176 222.491218 20.181168 C 224.10006 22.749798 194.618586 37.180592 195.969498 39.339402 C 197.920098 42.450155 222.368701 22.56909 222.491218 22.769159 C 222.491218 22.769159 199.209751 37.170911 200.570336 39.339402 C 201.93092 41.511121 221.688409 24.350351 222.50089 25.64112 C 222.691114 25.950904 205.870811 39.019937 206.070707 39.339402 C 206.160983 39.481387 221.810926 27.970957 222.50089 29.071338 C 222.89101 29.700587 209.030461 38.00023 209.868736 39.329722 C 210.110546 39.720179 221.930219 30.520225 222.510563 31.430217 C 223.2102 32.55964 215.578676 38.990895 215.791469 39.320041 C 216.258968 40.081594 222.368701 34.879797 222.510563 35.118589 C 222.681442 35.38965 221.301513 38.910222 221.549771 39.320041 C 221.549771 39.320041 222.50089 38.690791 222.510563 38.719833 " transform="matrix(1.211566,0,0,1.210519,0.187223,0)"/>
</g>
<mask id="mask8">
  <g filter="url(#alpha)">
<rect x="0" y="0" width="500" height="348" style="fill:rgb(0%,0%,0%);fill-opacity:0.501961;stroke:none;"/>
  </g>
</mask>
<clipPath id="clip9">
  <rect x="0" y="0" width="500" height="348"/>
</clipPath>
<g id="surface29" clip-path="url(#clip9)">
<path style=" stroke:none;fill-rule:nonzero;fill:rgb(30.588235%,37.254902%,86.666667%);fill-opacity:1;" d="M 101.015625 59.316406 L 150.6875 59.316406 L 150.6875 103.488281 L 101.015625 103.488281 Z M 101.015625 59.316406 "/>
<path style="fill:none;stroke-width:0.9;stroke-linecap:round;stroke-linejoin:round;stroke:rgb(100%,100%,100%);stroke-opacity:1;stroke-miterlimit:4;" d="M 83.460143 49.158925 C 83.460143 49.158925 83.45047 49.139564 83.460143 49.158925 C 83.631022 49.429987 83.460143 51.621066 83.460143 51.621066 C 83.460143 51.621066 87.380689 49.110521 87.409706 49.149244 C 87.728895 49.659098 83.389212 54.551111 83.460143 54.660827 C 84.130762 55.728938 91.849338 48.471591 92.281371 49.149244 C 92.400664 49.339633 82.941057 57.139102 83.460143 57.981329 C 84.069504 58.949406 97.220744 48.549037 97.591519 49.149244 C 98.09126 49.959202 82.218851 58.549267 83.460143 60.530597 C 83.650367 60.830701 101.089703 48.21021 101.67972 49.149244 C 101.67972 49.149244 83.018436 63.089546 83.460143 63.80915 L 106.928609 49.139564 C 107.850711 50.61104 83.269919 66.310014 83.460143 66.610118 C 83.460143 66.610118 111.229603 48.829779 111.419827 49.139564 C 112.490239 50.859513 83.460143 68.678574 83.460143 68.678574 C 84.711106 70.679266 114.740684 49.129883 114.740684 49.129883 C 115.649889 50.578771 82.209179 70.069378 83.460143 72.070069 C 84.711106 74.070761 120.179797 49.120202 120.179797 49.120202 C 122.10138 52.198685 80.838922 71.050362 83.460143 75.238906 C 84.65952 77.158925 123.98105 49.920479 123.98105 49.920479 C 125.109496 51.730782 80.490716 73.270484 83.460143 78.030194 C 84.520883 79.730781 123.98105 52.708539 123.98105 52.708539 C 127.298683 58.029733 83.460143 80.750489 83.460143 80.750489 C 83.589108 80.960238 123.091189 53.999308 123.98105 55.428834 C 125.328737 57.590871 80.629354 78.41097 83.460143 82.941568 C 84.478969 84.571164 122.230345 54.818946 123.98105 57.619914 C 125.409341 59.911028 85.36883 85.32949 85.36883 85.32949 C 87.761137 89.159846 122.259363 58.458913 123.98105 61.19857 C 126.679649 65.509737 88.850894 85.100379 88.999204 85.31981 C 90.920787 88.40152 122.468931 61.040451 123.990722 63.460642 C 123.990722 63.460642 92.300716 83.670853 93.319542 85.31981 C 93.319542 85.31981 123.948808 66.090583 123.990722 66.161576 C 125.599565 68.730205 96.121314 83.160999 97.469002 85.31981 C 99.419602 88.430562 123.871429 68.549498 123.990722 68.749567 C 123.990722 68.749567 100.709256 83.151318 102.06984 85.31981 C 103.430424 87.491528 123.191137 70.330758 124.000395 71.621527 C 124.190618 71.931312 107.370315 85.000344 107.570211 85.31981 C 107.660487 85.458567 123.31043 73.951364 124.000395 75.048518 C 124.390515 75.680995 110.529966 83.980637 111.371465 85.310129 C 111.61005 85.700586 123.429723 76.500633 124.010067 77.410625 C 124.709704 78.540047 117.081405 84.971302 117.290973 85.300448 C 117.758473 86.058775 123.871429 80.860204 124.010067 81.098996 C 124.180946 81.370057 122.801017 84.890629 123.049275 85.300448 C 123.049275 85.300448 124.000395 84.671198 124.010067 84.700241 " transform="matrix(1.211566,0,0,1.210519,0.187223,0)"/>
</g>
<mask id="mask9">
  <g filter="url(#alpha)">
<rect x="0" y="0" width="500" height="348" style="fill:rgb(0%,0%,0%);fill-opacity:0.501961;stroke:none;"/>
  </g>
</mask>
<clipPath id="clip10">
  <rect x="0" y="0" width="500" height="348"/>
</clipPath>
<g id="surface32" clip-path="url(#clip10)">
<path style=" stroke:none;fill-rule:nonzero;fill:rgb(30.588235%,37.254902%,86.666667%);fill-opacity:1;" d="M 280.929688 114.792969 L 330.605469 114.792969 L 330.605469 158.964844 L 280.929688 158.964844 Z M 280.929688 114.792969 "/>
<path style="fill:none;stroke-width:0.9;stroke-linecap:round;stroke-linejoin:round;stroke:rgb(100%,100%,100%);stroke-opacity:1;stroke-miterlimit:4;" d="M 231.960497 94.990894 C 231.960497 94.990894 231.950825 94.971532 231.960497 94.990894 C 232.131376 95.258728 231.960497 97.449808 231.960497 97.449808 C 231.960497 97.449808 235.881043 94.939263 235.910061 94.981213 C 236.22925 95.491067 231.889566 100.379853 231.960497 100.489569 C 232.631117 101.560907 240.349692 94.300333 240.778502 94.981213 C 240.901019 95.171602 231.441412 102.971071 231.960497 103.810071 C 232.569858 104.781374 245.721098 94.381006 246.088649 94.981213 C 246.58839 95.791171 230.719206 104.381236 231.960497 106.359339 C 232.150721 106.659443 249.590058 94.038952 250.180074 94.981213 C 250.180074 94.981213 231.518791 108.921515 231.960497 109.641118 L 255.428963 94.971532 C 256.351065 96.439782 231.770273 112.138756 231.960497 112.43886 C 231.960497 112.43886 259.729957 94.658521 259.920181 94.971532 C 260.990593 96.691482 231.960497 114.510543 231.960497 114.510543 C 233.211461 116.511235 263.241038 94.958625 263.241038 94.958625 C 264.150244 96.410739 230.709534 115.901347 231.960497 117.898811 C 233.211461 119.899503 268.680151 94.948944 268.680151 94.948944 C 270.59851 98.030654 229.339277 116.879104 231.960497 121.070875 C 233.159875 122.990893 272.481404 95.749221 272.481404 95.749221 C 273.609851 97.559524 228.991071 119.099226 231.960497 123.858935 C 233.021237 125.559523 272.481404 98.540508 272.481404 98.540508 C 275.799037 103.858475 231.960497 126.57923 231.960497 126.57923 C 232.089463 126.78898 271.591543 99.831276 272.481404 101.260803 C 273.829092 103.419613 229.129708 124.239712 231.960497 128.77031 C 232.979323 130.399906 270.7307 100.650915 272.481404 103.448656 C 273.909695 105.73977 233.869184 131.161459 233.869184 131.161459 C 236.261491 134.988588 270.759717 104.290882 272.481404 107.030539 C 275.180004 111.338479 237.351248 130.929121 237.499558 131.148552 C 239.421142 134.230262 270.969286 106.869193 272.491077 109.289384 C 272.491077 109.289384 240.801071 129.499595 241.819897 131.148552 C 241.819897 131.148552 272.449163 111.919325 272.491077 111.990317 C 274.099919 114.558947 244.618445 128.989741 245.969356 131.148552 C 247.919957 134.259304 272.36856 114.381466 272.491077 114.581536 C 272.491077 114.581536 249.20961 128.98006 250.570195 131.148552 C 251.930779 133.32027 271.691492 116.1595 272.500749 117.450269 C 272.690973 117.760053 255.87067 130.829086 256.070566 131.148552 C 256.160842 131.290536 271.810785 119.780106 272.500749 120.880487 C 272.890869 121.509736 259.03032 129.809379 259.868595 131.138871 C 260.110405 131.529328 271.930077 122.329375 272.510421 123.239366 C 273.210058 124.368789 265.578535 130.800044 265.791328 131.12919 C 266.258827 131.890744 272.36856 126.688946 272.510421 126.930965 C 272.681301 127.198799 271.301371 130.719371 271.54963 131.12919 C 271.54963 131.12919 272.500749 130.49994 272.510421 130.528983 " transform="matrix(1.211566,0,0,1.210519,0.187223,0)"/>
</g>
</defs>
<g id="surface1">
<path style="fill-rule:nonzero;fill:rgb(0%,0%,0%);fill-opacity:1;stroke-width:38;stroke-linecap:butt;stroke-linejoin:miter;stroke:rgb(2.352941%,42.745098%,64.705882%);stroke-opacity:1;stroke-miterlimit:4;" d="M 232.46991 113.239136 L 274.470695 113.239136 M 182.470051 113.239136 L 224.470836 113.239136 M 133.469674 113.239136 L 175.470458 113.239136 M 84.469296 113.239136 L 125.470599 113.239136 M 34.469438 113.239136 L 76.470222 113.239136 M 84.469296 67.239367 L 125.470599 67.239367 M 133.469674 67.239367 L 175.470458 67.239367 M 182.470051 67.239367 L 224.470836 67.239367 M 182.470051 21.239599 L 224.470836 21.239599 " transform="matrix(1.211566,0,0,1.210519,0.187223,0)"/>
<path style="fill-rule:nonzero;fill:rgb(2.352941%,42.745098%,64.705882%);fill-opacity:1;stroke-width:6;stroke-linecap:round;stroke-linejoin:round;stroke:rgb(11.372549%,11.372549%,10.588235%);stroke-opacity:1;stroke-miterlimit:4;" d="M 408.468898 115.239828 C 408.468898 115.239828 390.468561 98.240404 353.468408 104.239252 C 349.470483 75.238906 318.470441 58.239483 318.470441 58.239483 C 318.470441 58.239483 289.469363 93.238675 310.471367 132.239251 C 304.471255 135.240288 294.469993 139.238444 279.471325 139.238444 L 4.468877 139.238444 C -0.528529 158.238559 -0.528529 284.240171 137.470823 284.240171 C 236.47106 284.240171 310.471367 238.240402 345.469333 154.240403 C 397.471379 158.238559 408.468898 115.239828 408.468898 115.239828 " transform="matrix(1.211566,0,0,1.210519,0.187223,0)"/>
<use xlink:href="#surface5" mask="url(#mask0)"/>
<use xlink:href="#surface8" mask="url(#mask1)"/>
<path style="fill:none;stroke-width:6;stroke-linecap:round;stroke-linejoin:round;stroke:rgb(11.372549%,11.372549%,10.588235%);stroke-opacity:1;stroke-miterlimit:4;" d="M 185.468495 94.829548 L 226.469798 94.829548 L 226.469798 131.319578 L 185.468495 131.319578 Z M 185.468495 94.829548 " transform="matrix(1.211566,0,0,1.210519,0.187223,0)"/>
<use xlink:href="#surface11" mask="url(#mask2)"/>
<path style="fill:none;stroke-width:6;stroke-linecap:round;stroke-linejoin:round;stroke:rgb(11.372549%,11.372549%,10.588235%);stroke-opacity:1;stroke-miterlimit:4;" d="M 184.220756 49.000806 L 225.218835 49.000806 L 225.218835 85.490836 L 184.220756 85.490836 Z M 184.220756 49.000806 " transform="matrix(1.211566,0,0,1.210519,0.187223,0)"/>
<use xlink:href="#surface14" mask="url(#mask3)"/>
<path style="fill:none;stroke-width:6;stroke-linecap:round;stroke-linejoin:round;stroke:rgb(11.372549%,11.372549%,10.588235%);stroke-opacity:1;stroke-miterlimit:4;" d="M 135.468637 95.000575 L 176.469939 95.000575 L 176.469939 131.490605 L 135.468637 131.490605 Z M 135.468637 95.000575 " transform="matrix(1.211566,0,0,1.210519,0.187223,0)"/>
<use xlink:href="#surface17" mask="url(#mask4)"/>
<path style="fill:none;stroke-width:6;stroke-linecap:round;stroke-linejoin:round;stroke:rgb(11.372549%,11.372549%,10.588235%);stroke-opacity:1;stroke-miterlimit:4;" d="M 135.220378 49.000806 L 176.218457 49.000806 L 176.218457 85.490836 L 135.220378 85.490836 Z M 135.220378 49.000806 " transform="matrix(1.211566,0,0,1.210519,0.187223,0)"/>
<use xlink:href="#surface20" mask="url(#mask5)"/>
<path style="fill:none;stroke-width:6;stroke-linecap:round;stroke-linejoin:round;stroke:rgb(11.372549%,11.372549%,10.588235%);stroke-opacity:1;stroke-miterlimit:4;" d="M 86.971224 95.000575 L 127.969303 95.000575 L 127.969303 131.490605 L 86.971224 131.490605 Z M 86.971224 95.000575 " transform="matrix(1.211566,0,0,1.210519,0.187223,0)"/>
<use xlink:href="#surface23" mask="url(#mask6)"/>
<path style="fill:none;stroke-width:6;stroke-linecap:round;stroke-linejoin:round;stroke:rgb(11.372549%,11.372549%,10.588235%);stroke-opacity:1;stroke-miterlimit:4;" d="M 36.220142 95.000575 L 77.221445 95.000575 L 77.221445 131.490605 L 36.220142 131.490605 Z M 36.220142 95.000575 " transform="matrix(1.211566,0,0,1.210519,0.187223,0)"/>
<use xlink:href="#surface26" mask="url(#mask7)"/>
<path style="fill:none;stroke-width:6;stroke-linecap:round;stroke-linejoin:round;stroke:rgb(11.372549%,11.372549%,10.588235%);stroke-opacity:1;stroke-miterlimit:4;" d="M 184.220756 3.001037 L 225.218835 3.001037 L 225.218835 39.491068 L 184.220756 39.491068 Z M 184.220756 3.001037 " transform="matrix(1.211566,0,0,1.210519,0.187223,0)"/>
<use xlink:href="#surface29" mask="url(#mask8)"/>
<path style="fill:none;stroke-width:6;stroke-linecap:round;stroke-linejoin:round;stroke:rgb(11.372549%,11.372549%,10.588235%);stroke-opacity:1;stroke-miterlimit:4;" d="M 85.72026 49.000806 L 126.721563 49.000806 L 126.721563 85.490836 L 85.72026 85.490836 Z M 85.72026 49.000806 " transform="matrix(1.211566,0,0,1.210519,0.187223,0)"/>
<use xlink:href="#surface32" mask="url(#mask9)"/>
<path style="fill:none;stroke-width:6;stroke-linecap:round;stroke-linejoin:round;stroke:rgb(11.372549%,11.372549%,10.588235%);stroke-opacity:1;stroke-miterlimit:4;" d="M 234.220615 94.829548 L 275.218693 94.829548 L 275.218693 131.319578 L 234.220615 131.319578 Z M 234.220615 94.829548 " transform="matrix(1.211566,0,0,1.210519,0.187223,0)"/>
</g>
</svg>
