<?xml version="1.0" encoding="UTF-8"?>
<svg xmlns="http://www.w3.org/2000/svg" xmlns:xlink="http://www.w3.org/1999/xlink" width="500px" height="500px" viewBox="0 0 500 724" version="1.1">
<defs>
<filter id="alpha" filterUnits="objectBoundingBox" x="0%" y="0%" width="100%" height="100%">
  <feColorMatrix type="matrix" in="SourceGraphic" values="0 0 0 0 1 0 0 0 0 1 0 0 0 0 1 0 0 0 1 0"/>
</filter>
<mask id="mask0">
  <g filter="url(#alpha)">
<rect x="0" y="0" width="500" height="724" style="fill:rgb(0%,0%,0%);fill-opacity:0.411765;stroke:none;"/>
  </g>
</mask>
<clipPath id="clip1">
  <rect x="0" y="0" width="500" height="724"/>
</clipPath>
<g id="surface5" clip-path="url(#clip1)">
<path style=" stroke:none;fill-rule:nonzero;fill:rgb(61.960784%,31.372549%,83.921569%);fill-opacity:1;" d="M 14.691406 367.882812 C 14.691406 300.835938 73.285156 246.414062 145.472656 246.414062 L 272.363281 246.414062 L 272.363281 489.316406 L 145.472656 489.316406 C 73.285156 489.316406 14.691406 434.894531 14.691406 367.847656 Z M 14.691406 367.882812 "/>
<path style="fill:none;stroke-width:0.9;stroke-linecap:round;stroke-linejoin:round;stroke:rgb(100%,100%,100%);stroke-opacity:1;stroke-miterlimit:4;" d="M 17.909555 79.910199 C 18.239931 80.430271 24.500044 75.630391 24.570433 75.749621 C 25.750023 77.640277 10.729838 87.46033 10.729838 87.46033 C 12.370365 90.090214 33.800524 70.909998 34.759863 72.439555 C 36.340218 74.969513 7.890422 92.23977 7.890422 92.23977 C 8.470567 93.169768 40.040201 70.939521 40.579475 71.810472 C 41.930497 73.970248 4.629804 93.489988 6.280549 96.119872 C 9.190355 100.780082 43.189558 68.500405 45.239933 71.769593 C 46.620472 73.980467 3.059667 95.909799 5.309857 99.519645 C 5.309857 99.519645 46.839588 67.150262 49.730093 71.760509 C 49.90039 72.029629 3.889581 102.02008 4.689976 103.299821 C 7.689472 108.099701 55.179593 71.750289 55.179593 71.750289 C 55.389626 72.079592 4.309646 106.799521 4.509461 107.11974 C 8.30027 113.180057 61.119548 71.750289 61.119548 71.750289 C 61.119548 71.750289 3.340089 107.860104 4.66954 109.999441 C 4.66954 109.999441 63.259613 67.549968 65.879914 71.750289 C 68.760202 76.350316 4.529897 111.750426 4.999916 112.499875 C 8.52052 118.129827 68.519515 69.029562 70.220213 71.750289 C 73.489913 76.989619 3.639812 111.890096 5.519889 114.909467 C 6.850476 117.029499 69.309693 63.289464 74.600249 71.750289 C 79.970277 80.349648 5.679968 116.660453 6.399757 117.809608 C 7.840468 120.110189 78.909895 72.499738 78.909895 72.499738 C 79.660337 73.699992 7.22967 119.92964 7.22967 119.92964 C 11.709613 127.100504 74.949925 68.819489 78.909895 75.139842 C 80.220046 77.230351 3.019931 113.729653 8.360441 122.280185 C 10.839964 126.249993 73.159537 68.989818 78.909895 78.200092 C 80.349472 80.499538 9.500295 124.279851 9.500295 124.279851 C 10.39038 125.700397 75.039615 74.729916 78.909895 80.909464 C 78.909895 80.909464 10.340426 125.550507 10.500505 125.819628 C 15.209782 133.350455 74.140448 75.439622 78.909895 83.070375 C 78.909895 83.070375 8.419478 122.240441 11.530234 127.219735 C 16.680011 135.460267 75.380209 79.469614 78.909895 85.109785 C 79.359479 85.819491 11.890128 127.140248 13.210496 129.239841 C 17.489489 136.09957 74.829582 81.660049 78.909895 88.180255 C 83.809904 96.019946 15.45955 131.549506 15.45955 131.549506 C 19.959929 138.749894 78.159454 90.699993 78.909895 91.900247 L 17.969726 133.710417 C 18.479482 134.530269 73.959933 87.689707 78.909895 95.630459 C 80.49025 98.169502 19.059626 132.940529 20.810278 135.730523 C 24.350183 141.400218 74.710374 92.69966 78.920113 99.419719 C 80.760455 102.369823 23.210329 136.679825 23.659913 137.39975 C 28.089902 144.489992 76.979864 99.760378 78.920113 102.869455 C 83.129852 109.599735 26.030445 138.560261 26.030445 138.560261 C 28.260199 142.130363 78.920113 105.50956 78.920113 105.50956 C 80.080403 107.369556 24.059542 133.090419 27.979777 139.369893 C 28.150073 139.640149 77.869949 105.860438 78.920113 107.539885 C 81.919609 112.339766 27.509757 135.009462 30.839629 140.349854 C 31.180222 140.890366 77.950556 108.750359 78.920113 110.300356 C 82.010434 115.250126 34.799599 141.300292 34.799599 141.300292 C 36.770501 144.450249 76.280512 109.499808 78.930331 113.729653 C 80.419861 116.109721 37.779794 141.760181 37.779794 141.760181 C 40.859897 146.689511 76.580234 112.270498 78.930331 116.040454 C 81.280428 119.810409 41.329916 139.29949 43.039697 142.030437 C 43.979736 143.539555 78.809988 119.400484 78.930331 119.600337 C 80.879663 122.729854 44.690441 138.920223 46.629555 142.030437 C 46.679509 142.099704 78.930331 121.849819 78.930331 121.849819 C 78.930331 121.849819 51.560217 141.600071 51.830422 142.030437 C 52.240269 142.679959 78.930331 125.089483 78.930331 125.089483 C 78.970067 125.159886 54.540413 139.530002 56.100332 142.030437 C 56.100332 142.030437 78.229843 126.630395 78.930331 127.760247 C 79.350397 128.440428 60.819826 142.030437 60.819826 142.030437 C 60.890215 142.149667 78.00051 129.220537 78.930331 130.71035 C 79.920323 132.289871 66.53953 141.589852 66.809735 142.030437 C 67.369444 142.919556 78.749816 134.170307 78.930331 134.459866 C 79.359479 135.140048 71.420239 141.269633 71.890258 142.030437 C 72.269452 142.640216 78.599955 137.110191 78.930331 137.630263 C 79.259572 138.150335 76.730095 141.629595 76.979864 142.030437 C 77.040036 142.120144 78.930331 140.809743 78.930331 140.809743 " transform="matrix(3.440683,0,0,3.440027,0,0.0403314)"/>
</g>
<mask id="mask1">
  <g filter="url(#alpha)">
<rect x="0" y="0" width="500" height="724" style="fill:rgb(0%,0%,0%);fill-opacity:0.341176;stroke:none;"/>
  </g>
</mask>
<clipPath id="clip2">
  <rect x="0" y="0" width="500" height="724"/>
</clipPath>
<g id="surface8" clip-path="url(#clip2)">
<path style=" stroke:none;fill-rule:nonzero;fill:rgb(89.803922%,31.764706%,31.764706%);fill-opacity:1;" d="M 250.101562 18.339844 L 372.558594 18.339844 C 440.167969 18.339844 495.011719 73.277344 495.011719 140.976562 C 495.011719 208.679688 440.167969 263.613281 372.558594 263.613281 L 250.101562 263.613281 Z M 250.101562 18.339844 "/>
<path style="fill:none;stroke-width:0.9;stroke-linecap:round;stroke-linejoin:round;stroke:rgb(100%,100%,100%);stroke-opacity:1;stroke-miterlimit:4;" d="M 72.930204 5.479693 C 72.980158 5.570535 72.890468 9.060015 72.930204 9.109979 C 73.209491 9.550564 78.550001 5.159474 78.749816 5.479693 C 78.749816 5.479693 72.360278 11.500267 72.930204 12.420045 C 73.190191 12.829971 83.589653 4.780207 84.030155 5.479693 C 84.469521 6.180314 72.930204 16.190001 72.930204 16.190001 C 74.240355 18.289593 88.740566 3.349441 90.070017 5.479693 C 90.070017 5.479693 71.670007 17.070035 72.930204 19.079921 C 74.190401 21.089807 93.069513 2.870248 94.699822 5.479693 C 95.150541 6.199618 71.420239 19.389921 72.930204 21.809733 C 73.05963 22.019805 97.239516 2.560249 99.069639 5.479693 C 100.899763 8.400273 72.630482 25.130019 72.930204 25.610348 C 73.410442 26.370016 104.32046 4.160209 105.150373 5.479693 C 107.869447 9.829904 70.430246 25.319652 72.930204 29.33034 C 75.430163 33.339892 108.960482 2.470542 110.920031 5.600059 C 111.760163 6.939983 71.830087 31.140373 72.940422 32.909527 C 73.009676 33.019673 114.609797 4.769988 115.549836 6.280241 C 117.319788 9.120198 70.490418 32.330407 72.940422 36.240033 C 74.52986 38.78021 116.620435 3.049661 119.270255 7.289726 C 119.549542 7.740531 70.950219 36.529592 72.940422 39.720428 C 76.129515 44.830308 120.460062 5.050463 122.689816 8.62965 C 125.53945 13.179714 69.829666 36.810068 72.940422 41.770058 C 74.219919 43.809467 123.850105 8.410493 124.540375 9.519905 C 128.47991 15.819818 71.670007 42.679616 72.940422 44.709942 C 73.019894 44.840528 122.600126 3.900173 126.99038 10.940451 C 126.99038 10.940451 70.220213 44.079723 72.940422 48.419714 C 74.960143 51.650294 129.79006 12.890154 129.79006 12.890154 C 129.79006 12.890154 72.870033 50.329674 72.940422 50.43982 C 77.349976 57.500538 130.139737 12.359862 131.189901 14.040445 C 134.629897 19.55003 70.700451 50.370553 72.940422 53.94974 C 73.780553 55.299883 133.44009 16.140037 133.44009 16.140037 C 137.119638 22.030025 70.96952 53.150327 72.940422 56.290064 C 73.290098 56.8601 134.819495 17.629851 134.819495 17.629851 L 72.940422 58.809803 C 73.190191 59.209509 133.409437 14.829637 136.189817 19.289994 C 137.749736 21.790429 69.059924 55.740468 72.940422 61.94954 C 76.280512 67.289932 133.379918 14.490114 137.739518 21.45999 C 139.769457 24.709873 72.940422 65.040449 72.940422 65.040449 C 73.720382 66.289531 134.650333 16.579487 139.099623 23.700388 C 139.309656 24.039911 69.619633 62.689905 72.940422 67.990553 C 78.369487 76.679619 139.049669 23.989948 140.259912 25.930567 C 145.020277 33.549965 72.940422 70.169633 72.940422 70.169633 C 72.940422 70.169633 139.970407 25.989614 141.000136 27.639537 C 143.109547 31.020007 67.510222 63.580159 72.940422 72.270361 L 141.640452 29.34056 C 141.640452 29.34056 70.669797 72.000105 72.940422 75.630391 C 73.019894 75.749621 141.969693 31.309567 142.499884 32.160078 C 142.499884 32.160078 73.340052 71.049668 76.730095 76.479766 C 76.919692 76.779546 139.57986 29.349644 143.109547 35.000035 C 147.670097 42.30035 81.309946 76.479766 81.309946 76.479766 C 84.779461 82.030231 138.899808 30.339825 143.469441 37.64014 C 148.040209 44.940454 81.700493 69.850549 85.850061 76.479766 L 143.62952 40.38017 C 146.440553 44.870051 90.28005 75.06944 91.159917 76.479766 C 94.730475 82.20056 143.329797 43.419981 143.53983 43.75042 C 145.740066 47.270559 92.089738 72.179519 94.780429 76.479766 C 96.789932 79.700126 139.789893 40.559584 143.290061 46.170232 C 143.749863 46.909461 97.060136 73.760175 98.759699 76.479766 C 101.359565 80.640344 141.640452 47.139973 142.780306 48.970446 C 144.729637 52.089743 104.33976 75.7905 104.770043 76.469547 C 105.589739 77.779947 140.519899 52.139707 141.409984 53.570473 C 143.190154 56.429734 105.510267 72.210178 108.170304 76.460462 C 110.420494 80.060089 138.300363 53.450107 140.18044 56.460394 C 142.310287 59.860167 112.319872 75.670134 112.650248 76.20951 C 113.189521 77.070241 137.990422 60.380239 137.990422 60.380239 C 138.09033 60.549433 116.240106 73.200359 117.540038 75.289732 C 118.750282 77.230351 134.960273 64.400011 134.960273 64.400011 " transform="matrix(3.440683,0,0,3.440027,0,0.0403314)"/>
</g>
<mask id="mask2">
  <g filter="url(#alpha)">
<rect x="0" y="0" width="500" height="724" style="fill:rgb(0%,0%,0%);fill-opacity:0.54902;stroke:none;"/>
  </g>
</mask>
<clipPath id="clip3">
  <rect x="0" y="0" width="500" height="724"/>
</clipPath>
<g id="surface11" clip-path="url(#clip3)">
<path style=" stroke:none;fill-rule:nonzero;fill:rgb(87.843137%,28.627451%,16.862745%);fill-opacity:1;" d="M 8.257812 140.222656 C 8.257812 72.625 61.761719 17.789062 127.648438 17.789062 L 247.007812 17.789062 L 247.007812 262.652344 L 127.648438 262.652344 C 61.761719 262.652344 8.292969 207.816406 8.292969 140.222656 Z M 8.257812 140.222656 "/>
<path style="fill:none;stroke-width:0.9;stroke-linecap:round;stroke-linejoin:round;stroke:rgb(100%,100%,100%);stroke-opacity:1;stroke-miterlimit:4;" d="M 16.060131 12.519972 C 16.23951 12.809531 21.96035 8.009651 22.330462 8.600126 C 23.420362 10.339756 9.00984 19.029958 9.359516 19.589774 C 10.030486 20.659442 31.500381 5.749949 31.500381 5.749949 C 33.139772 8.369614 5.850265 25.660311 5.850265 25.660311 C 6.070516 26.010054 36.619505 2.439883 38.409892 5.310499 C 41.090365 9.590307 3.240182 26.869649 4.56055 28.979461 C 4.789883 29.349644 41.7795 4.289659 42.430034 5.319584 C 42.430034 5.319584 3.200446 33.389855 3.340089 33.610148 C 4.679758 35.769924 44.990164 -0.479562 48.60954 5.310499 C 49.199903 6.259801 0.149861 32.730113 2.830334 37.020141 C 6.399757 42.739799 52.829497 4.089806 53.590156 5.310499 C 56.579434 10.08994 -1.079682 33.529525 2.670255 39.51944 C 4.04966 41.720094 57.429783 5.30028 57.429783 5.30028 C 57.739723 5.799912 2.739509 43.109982 2.739509 43.109982 C 3.489951 44.32954 59.199735 -1.199487 63.259613 5.30028 C 63.579771 5.810132 3.059667 46.060086 3.059667 46.060086 C 4.710412 48.70019 66.089947 1.759701 68.3004 5.29006 C 71.129599 9.829904 -1.239761 41.039913 3.550122 48.719494 C 3.550122 48.719494 70.449547 4.480428 71.549664 6.230278 C 73.909979 10.010453 -0.230468 44.079723 4.209739 51.190405 C 7.449921 56.379771 69.819448 6.349508 71.549664 9.109979 C 71.549664 9.109979 1.790388 48.56052 5.199731 54.020142 C 10.340426 62.240235 67.410315 5.930498 71.549664 12.559715 C 71.549664 12.559715 2.400051 50.200223 6.160206 56.229881 L 71.549664 15.370149 L 7.720125 59.130022 C 10.519806 63.609683 70.420028 17.429998 71.549664 19.240031 C 72.580528 20.889954 6.470146 57.020209 9.31978 61.580493 C 9.31978 61.580493 71.26016 22.219659 71.549664 22.689767 C 71.549664 22.689767 7.160416 57.490318 11.289548 64.090012 C 15.140528 70.250255 66.630355 18.559849 71.549664 26.430199 C 74.500342 31.149457 9.130183 59.92035 12.720041 65.669532 C 15.490204 70.100366 71.549664 28.910194 71.549664 28.910194 C 75.340473 34.979596 10.829746 61.139908 15.030402 67.849747 C 17.129595 71.209777 68.739766 28.01994 71.549664 32.53026 C 75.729885 39.20944 14.960013 66.580226 16.490414 69.039782 C 19.009673 73.069773 71.549664 34.640072 71.549664 34.640072 C 73.83959 38.310102 16.160038 66.819823 18.420445 70.429669 C 22.099993 76.329876 67.539741 30.820154 71.549664 37.230214 C 71.96973 37.900176 18.219495 67.710077 20.839796 71.910398 C 22.249854 74.170101 67.479569 33.720294 71.549664 40.220061 C 71.609836 40.319987 21.359769 69.029562 24.179886 73.529662 C 27.149863 78.289799 67.909852 38.089809 71.559882 43.929833 C 72.27967 45.080124 25.180096 71.609483 27.039738 74.590246 C 28.709782 77.270094 70.559672 45.180051 71.559882 46.769791 C 71.609836 46.840194 31.049662 75.599731 31.049662 75.599731 C 31.209741 75.859768 71.26016 49.790298 71.5701 50.27971 C 73.069848 52.680218 34.050292 76.019877 34.050292 76.019877 C 36.379954 79.750089 69.469772 49.220262 71.5701 52.580292 C 71.5701 52.580292 37.519807 74.650429 38.480282 76.179987 L 71.5701 55.499736 C 71.929994 56.069772 41.7602 76.179987 41.7602 76.179987 C 43.530152 79.009724 70.989955 56.620503 71.5701 57.550501 C 73.130019 60.03958 47.180182 75.289732 47.739891 76.179987 C 47.970359 76.550169 71.010391 60.390459 71.5701 61.289798 C 71.830087 61.699724 51.159452 75.770061 51.419438 76.179987 C 52.16988 77.380241 70.750404 62.259539 71.580318 63.590379 C 72.770125 65.490119 54.690274 76.179987 54.690274 76.179987 C 54.690274 76.179987 71.509928 65.519642 71.580318 65.629789 C 72.35006 66.859566 58.080317 75.339695 58.60029 76.179987 C 59.070309 76.929436 71.270378 67.589711 71.580318 68.07004 C 71.640489 68.159747 62.620432 76.179987 62.620432 76.179987 C 62.930372 76.679619 71.549664 70.539815 71.580318 70.579559 C 72.110509 71.43007 65.569973 75.489585 66.000257 76.179987 C 66.000257 76.179987 71.239724 72.149995 71.580318 72.690507 C 71.699526 72.89036 71.27946 75.869987 71.48041 76.179987 C 71.489493 76.200426 71.5701 76.1005 71.580318 76.109584 " transform="matrix(3.440683,0,0,3.440027,0,0.0403314)"/>
</g>
<mask id="mask3">
  <g filter="url(#alpha)">
<rect x="0" y="0" width="500" height="724" style="fill:rgb(0%,0%,0%);fill-opacity:0.458824;stroke:none;"/>
  </g>
</mask>
<clipPath id="clip4">
  <rect x="0" y="0" width="500" height="724"/>
</clipPath>
<g id="surface14" clip-path="url(#clip4)">
<path style=" stroke:none;fill-rule:nonzero;fill:rgb(29.411765%,85.882353%,32.156863%);fill-opacity:1;" d="M 140.515625 701.804688 C 213.324219 701.804688 272.363281 648.898438 272.363281 583.746094 L 272.363281 465.683594 L 140.515625 465.683594 C 67.710938 465.683594 8.671875 518.589844 8.671875 583.746094 C 8.671875 648.898438 67.746094 701.804688 140.515625 701.804688 Z M 140.515625 701.804688 "/>
<path style="fill:none;stroke-width:0.9;stroke-linecap:round;stroke-linejoin:round;stroke:rgb(100%,100%,100%);stroke-opacity:1;stroke-miterlimit:4;" d="M 15.829662 143.749627 C 16.330335 144.550175 22.280508 139.500479 22.380415 139.659453 C 23.36019 141.240109 7.799597 151.160088 8.240098 151.869794 C 10.159912 154.950483 31.979482 133.800124 33.439494 136.130229 C 34.53053 137.869859 5.110042 157.239709 5.220167 157.420259 C 5.900219 158.500146 38.750486 133.099503 40.260452 135.52045 C 42.120094 138.500078 2.87007 158.600073 4.090531 160.559996 C 5.380246 162.630065 44.170468 135.510231 44.170468 135.510231 C 46.959931 139.979672 3.080103 165.080536 3.080103 165.080536 C 4.619587 167.550311 49.490543 134.039721 50.410146 135.510231 C 52.209616 138.389932 0.809478 164.610427 2.809898 167.810347 C 5.34051 171.859643 54.000004 134.709683 54.499541 135.510231 C 56.899592 139.359673 -0.630098 165.530205 2.789463 171.010267 C 4.66954 174.020554 59.6005 135.510231 59.6005 135.510231 C 62.159495 139.600405 -0.390547 167.660457 2.949542 172.999714 C 5.390464 176.900255 59.700408 130.290205 62.949672 135.510231 C 63.870411 136.979605 -0.30994 170.05983 3.450215 176.080403 C 4.829619 178.300362 68.379872 135.510231 68.379872 135.510231 C 68.880545 136.309643 3.479733 177.849557 4.240392 179.060031 C 9.810235 187.979609 73.939497 135.510231 73.939497 135.510231 C 76.399719 139.440296 1.790388 175.999781 4.979481 181.10966 C 8.00963 185.950419 74.899972 130.629728 77.950556 135.510231 C 82.940255 143.499811 2.969978 178.619446 6.170423 183.739545 C 6.170423 183.739545 78.059546 136.939861 78.909895 138.290005 C 78.909895 138.290005 5.130477 182.309914 7.730343 186.470492 C 12.88012 194.709889 76.699442 138.450115 78.909895 141.989558 C 80.829709 145.070247 5.819612 183.289875 8.870197 188.170378 C 12.990246 194.759852 76.320248 140.270367 78.909895 144.410505 C 80.939834 147.660389 6.659743 184.290276 9.989615 189.629533 C 11.750484 192.439966 78.909895 146.560061 78.909895 146.560061 C 78.909895 146.560061 10.249601 189.529606 11.199858 191.039859 C 14.639855 196.540361 75.309819 142.960435 78.909895 148.730057 C 81.440507 152.780488 8.849761 186.489796 12.649652 192.560333 C 17.260156 199.940134 74.199484 143.609957 78.909895 151.149869 C 79.57973 152.219537 13.720252 193.340441 14.05971 193.890037 C 18.420445 200.870132 77.139943 150.54009 78.909895 153.369827 C 79.040456 153.59012 13.520437 191.659858 15.829662 195.360547 C 19.870239 201.819434 76.110215 151.459868 78.909895 155.939529 C 78.909895 155.939529 16.680011 194.869998 17.950426 196.910543 C 17.950426 196.910543 78.040246 157.420259 78.909895 158.820366 C 78.909895 158.820366 14.870323 190.340374 19.660207 198.009735 C 19.660207 198.009735 78.119718 159.719704 78.909895 160.990361 C 83.420492 168.210053 21.500548 199.060099 21.500548 199.060099 C 22.530277 200.710023 74.219919 155.670409 78.909895 163.18988 C 83.599871 170.710488 22.520059 197.720175 24.169668 200.36028 L 78.909895 166.150204 C 82.110341 171.270303 23.680348 196.340508 26.860358 201.429948 C 29.699775 205.969792 76.420155 164.910206 78.909895 168.900455 C 79.899888 170.479975 29.040158 201.629801 29.429571 202.260019 C 31.9704 206.329755 75.740103 166.370496 78.870159 171.37023 C 80.920534 174.649637 32.939957 203.090091 32.939957 203.090091 C 35.009632 206.400157 76.459891 171.270303 78.539783 174.599674 C 79.450304 176.049744 35.310489 199.850427 37.750276 203.739613 C 37.750276 203.739613 76.800485 177.62018 77.570227 178.860178 C 78.500048 180.339772 39.079727 199.320135 41.910061 203.84976 C 43.969518 207.149606 75.719667 181.510502 76.260076 182.380317 C 78.589737 186.110529 44.94021 202.409909 45.689516 203.610163 C 47.879534 207.120083 74.689939 185.49053 74.689939 185.49053 C 74.689939 185.49053 52.109708 200.949619 52.87945 202.189617 C 53.850143 203.739613 70.509718 190.819567 70.669797 191.070519 " transform="matrix(3.440683,0,0,3.440027,0,0.0403314)"/>
</g>
<mask id="mask4">
  <g filter="url(#alpha)">
<rect x="0" y="0" width="500" height="724" style="fill:rgb(0%,0%,0%);fill-opacity:0.4;stroke:none;"/>
  </g>
</mask>
<clipPath id="clip5">
  <rect x="0" y="0" width="500" height="724"/>
</clipPath>
<g id="surface17" clip-path="url(#clip5)">
<path style=" stroke:none;fill-rule:nonzero;fill:rgb(28.627451%,55.686275%,75.686275%);fill-opacity:1;" d="M 483.792969 372.492188 C 483.792969 440.089844 428.949219 494.921875 361.339844 494.921875 C 293.730469 494.921875 238.886719 440.089844 238.886719 372.492188 C 238.886719 304.894531 293.730469 250.0625 361.339844 250.0625 C 428.949219 250.0625 483.792969 304.894531 483.792969 372.492188 Z M 483.792969 372.492188 "/>
<path style="fill:none;stroke-width:0.9;stroke-linecap:round;stroke-linejoin:round;stroke:rgb(100%,100%,100%);stroke-opacity:1;stroke-miterlimit:4;" d="M 83.169588 80.259942 L 89.520526 76.290133 C 90.400393 77.70046 76.509845 85.71048 77.010518 86.509892 C 77.010518 86.509892 97.630063 73.389992 97.740188 73.560322 C 97.829878 73.699992 71.609836 88.409632 73.679511 91.729918 C 75.030533 93.899913 103.859523 72.86992 103.859523 72.86992 C 104.620182 74.080394 71.890258 95.730386 71.890258 95.730386 C 74.639985 100.139644 108.239558 73.01981 108.239558 73.01981 C 108.239558 73.01981 67.809945 95.079728 70.690233 99.689975 C 73.410442 104.050405 112.340307 73.660248 112.340307 73.660248 C 115.890429 79.340163 69.889837 103.47015 69.960227 103.580296 C 71.449757 105.969449 114.549625 72.129555 116.159498 74.709477 C 118.08953 77.800386 66.83017 101.799787 69.710458 106.410034 C 70.850312 108.230287 115.139988 69.840329 118.819536 75.720098 C 119.359944 76.579693 66.039993 103.950479 69.710458 109.820027 L 121.880338 77.220131 C 122.539955 78.270495 66.769999 106.80974 69.850102 111.740206 C 70.900266 113.419653 121.95981 75.670134 123.540165 78.189873 L 70.309903 114.879943 C 72.499921 118.379643 123.380086 75.549768 126.160466 79.979466 C 126.329628 80.259942 68.720466 113.750092 70.819658 117.110122 C 71.549664 118.279717 123.419822 74.170101 127.949719 81.410232 C 130.869743 86.089746 69.970445 116.710416 71.339632 118.889496 C 75.039615 124.820362 126.999462 78.920018 129.330259 82.65023 C 129.409731 82.76946 69.290392 116.56961 72.140027 121.129894 C 72.140027 121.129894 130.740317 83.919751 131.010521 84.350116 C 134.590162 90.079995 68.660294 116.200563 73.019894 123.170439 C 73.019894 123.170439 129.559592 81.400013 132.460315 86.029563 C 132.460315 86.029563 71.680225 121.489857 74.550295 126.079664 C 78.620391 132.58965 129.869532 81.400013 134.409647 88.679888 C 138.610303 95.389727 74.729675 126.34992 75.679931 127.879477 C 78.720298 132.73954 132.389926 85.440224 135.540418 90.479701 C 137.219545 93.159549 73.880461 124.560326 77.520273 130.379911 C 78.319533 131.659652 132.229847 85.600334 136.990212 93.219732 C 140.860492 99.409499 78.159454 130.87046 78.760034 131.840201 C 79.450304 132.949613 135.840141 91.900247 137.759954 94.969582 C 138.910026 96.810274 78.739598 130.689911 80.710501 133.839868 C 81.680058 135.400084 137.01973 94.869655 138.720428 97.590382 C 141.66997 102.30964 81.869655 134.309977 82.640532 135.549974 C 87.260119 142.939995 136.170517 94.879875 139.409563 100.079461 C 143.329797 106.349851 84.710207 136.839935 85.039448 137.370227 C 85.039448 137.370227 138.570567 100.790302 139.97949 103.039785 C 140.659542 104.129892 84.489956 134.039721 87.570059 138.970187 C 89.639734 142.290473 137.759954 101.959897 140.299648 106.020548 C 142.460148 109.470284 90.130189 140.310111 90.130189 140.310111 C 91.409686 142.35974 139.600296 107.679555 140.370037 108.919553 C 142.060518 111.63006 92.050002 139.779819 93.170556 141.570548 C 93.499796 142.089484 140.170222 112.200095 140.170222 112.200095 C 140.349602 112.479436 92.690318 137.830116 95.489999 142.309777 C 98.120518 146.520318 137.239981 110.440026 139.839847 114.599468 C 140.430209 115.549905 97.759489 141.820364 98.520148 143.029702 L 139.170012 117.630194 C 139.920454 118.839532 100.909981 139.629929 103.399721 143.620177 C 103.399721 143.620177 137.379624 121.980405 137.560139 122.269965 C 138.419571 123.640548 108.289512 141.150402 109.690488 143.389665 C 111.510394 146.300025 134.030452 126.949479 134.579944 127.839734 C 134.579944 127.839734 116.660171 141.079999 117.030283 141.670474 C 117.030283 141.670474 129.779843 133.700198 129.779843 133.700198 " transform="matrix(3.440683,0,0,3.440027,0,0.0403314)"/>
</g>
</defs>
<g id="surface1">
<path style=" stroke:none;fill-rule:nonzero;fill:rgb(63.529412%,34.901961%,100%);fill-opacity:1;" d="M 6.914062 367.882812 C 6.914062 300.835938 65.511719 246.414062 137.695312 246.414062 L 268.476562 246.414062 L 268.476562 489.316406 L 137.695312 489.316406 C 65.511719 489.316406 6.914062 434.894531 6.914062 367.847656 Z M 6.914062 367.882812 "/>
<use xlink:href="#surface5" mask="url(#mask0)"/>
<path style=" stroke:none;fill-rule:nonzero;fill:rgb(100%,44.705882%,38.431373%);fill-opacity:1;" d="M 250.101562 18.511719 L 372.558594 18.511719 C 440.167969 18.511719 495.011719 73.347656 495.011719 140.945312 C 495.011719 208.539062 440.167969 263.375 372.558594 263.375 L 250.101562 263.375 Z M 250.101562 18.511719 "/>
<use xlink:href="#surface8" mask="url(#mask1)"/>
<path style=" stroke:none;fill-rule:nonzero;fill:rgb(94.901961%,30.588235%,11.764706%);fill-opacity:1;" d="M 5.195312 140.976562 C 5.195312 73.382812 60.039062 18.511719 127.648438 18.511719 L 250.101562 18.511719 L 250.101562 263.375 L 127.648438 263.375 C 60.039062 263.410156 5.195312 208.539062 5.195312 140.976562 Z M 5.195312 140.976562 "/>
<use xlink:href="#surface11" mask="url(#mask2)"/>
<path style=" stroke:none;fill-rule:nonzero;fill:rgb(3.921569%,81.176471%,51.372549%);fill-opacity:1;" d="M 140.515625 705.453125 C 213.324219 705.453125 272.363281 652.542969 272.363281 587.390625 L 272.363281 469.328125 L 140.515625 469.328125 C 67.710938 469.328125 8.671875 522.238281 8.671875 587.390625 C 8.671875 652.542969 67.746094 705.453125 140.515625 705.453125 Z M 140.515625 705.453125 "/>
<use xlink:href="#surface14" mask="url(#mask3)"/>
<path style="fill:none;stroke-width:6;stroke-linecap:round;stroke-linejoin:round;stroke:rgb(0%,0%,0%);stroke-opacity:1;stroke-miterlimit:4;" d="M 41.090365 207.440302 C 20.09049 207.440302 2.999496 190.249531 2.999496 169.119612 C 2.999496 155.799859 9.779582 144.030103 20.049619 137.160154 C 9.779582 130.290205 2.999496 118.539753 2.999496 105.22 C 2.999496 91.900247 9.7898 80.149795 20.080272 73.269626 C 9.800018 66.399677 2.999496 54.640141 2.999496 41.329473 C 2.999496 20.190469 20.080272 2.999698 41.090365 2.999698 L 104.239852 2.999698 C 125.22951 2.999698 142.320504 20.209773 142.320504 41.360132 C 142.320504 62.510491 125.239728 79.679686 104.229635 79.679686 L 79.159664 79.660382 L 79.159664 169.110527 C 79.159664 190.240447 62.080023 207.430082 41.080148 207.430082 Z M 41.090365 207.440302 " transform="matrix(3.440683,0,0,3.440027,0,0.0403314)"/>
<path style=" stroke:none;fill-rule:nonzero;fill:rgb(10.196078%,73.72549%,99.607843%);fill-opacity:1;" d="M 483.792969 372.492188 C 483.792969 440.089844 428.949219 494.921875 361.339844 494.921875 C 293.730469 494.921875 238.886719 440.089844 238.886719 372.492188 C 238.886719 304.894531 293.730469 250.0625 361.339844 250.0625 C 428.949219 250.0625 483.792969 304.894531 483.792969 372.492188 Z M 483.792969 372.492188 "/>
<use xlink:href="#surface17" mask="url(#mask4)"/>
<path style="fill:none;stroke-width:6;stroke-linecap:butt;stroke-linejoin:miter;stroke:rgb(0%,0%,0%);stroke-opacity:1;stroke-miterlimit:10;" d="M 105.009594 142.020217 C 86.690192 142.020217 71.790351 126.689443 71.790351 107.849885 C 71.790351 89.010327 86.70041 73.679552 105.009594 73.679552 C 123.319914 73.679552 138.229973 89.010327 138.229973 107.849885 C 138.229973 126.689443 123.319914 142.020217 105.009594 142.020217 Z M 105.009594 142.020217 " transform="matrix(3.440683,0,0,3.440027,0,0.0403314)"/>
</g>
</svg>
