<?xml version="1.0" encoding="UTF-8"?>
<svg xmlns="http://www.w3.org/2000/svg" xmlns:xlink="http://www.w3.org/1999/xlink" width="500px" height="500px" viewBox="0 0 500 585" version="1.1">
<defs>
<filter id="alpha" filterUnits="objectBoundingBox" x="0%" y="0%" width="100%" height="100%">
  <feColorMatrix type="matrix" in="SourceGraphic" values="0 0 0 0 1 0 0 0 0 1 0 0 0 0 1 0 0 0 1 0"/>
</filter>
<mask id="mask0">
  <g filter="url(#alpha)">
<rect x="0" y="0" width="500" height="585" style="fill:rgb(0%,0%,0%);fill-opacity:0.419608;stroke:none;"/>
  </g>
</mask>
<clipPath id="clip1">
  <rect x="0" y="0" width="500" height="585"/>
</clipPath>
<g id="surface5" clip-path="url(#clip1)">
<path style=" stroke:none;fill-rule:nonzero;fill:rgb(25.098039%,36.078431%,82.745098%);fill-opacity:1;" d="M 343.503906 37.808594 C 292.402344 25.8125 239.257812 25.8125 188.152344 37.808594 C 158.636719 19.507812 136.085938 11.121094 119.691406 7.585938 C 110.78125 5.65625 103.714844 5.179688 98.398438 5.320312 C 95.742188 5.390625 93.558594 5.613281 91.8125 5.894531 C 90.945312 6.03125 90.175781 6.171875 89.53125 6.3125 C 89.207031 6.382812 88.914062 6.453125 88.648438 6.523438 L 88.273438 6.621094 L 88.105469 6.664062 L 88.019531 6.691406 L 87.9375 6.71875 C 87.921875 6.71875 88.003906 6.96875 93.683594 27 L 87.9375 6.71875 C 81.992188 8.4375 77.109375 12.714844 74.589844 18.402344 C 67.554688 34.296875 63.71875 51.449219 63.285156 68.855469 C 62.964844 81.785156 64.546875 94.671875 67.929688 107.097656 C 59.019531 118.003906 51.761719 130.207031 46.414062 143.320312 C 39.394531 160.527344 35.796875 178.976562 35.839844 197.585938 C 35.839844 263.144531 54.992188 307.21875 87.640625 335.539062 C 110.515625 355.390625 138.3125 365.945312 166.148438 371.984375 C 161.546875 384.871094 160.359375 398.515625 161.292969 412.425781 L 161.292969 437.683594 C 144.257812 441.304688 132.503906 440.15625 124.113281 437.363281 C 113.578125 433.851562 105.492188 426.792969 97.796875 416.644531 C 93.894531 411.515625 90.300781 405.867188 86.523438 399.703125 L 84.128906 395.761719 C 81.179688 390.882812 77.988281 385.625 74.757812 380.832031 C 66.785156 368.949219 55.003906 354.105469 35.9375 349.042969 L 15.722656 343.675781 L 5.105469 384.507812 L 25.320312 389.875 C 28.636719 390.757812 33.015625 393.886719 40.148438 404.527344 C 42.777344 408.425781 45.269531 412.5625 48.136719 417.261719 C 49.03125 418.742188 49.96875 420.28125 50.949219 421.886719 C 54.878906 428.304688 59.371094 435.445312 64.617188 442.339844 C 75.207031 456.273438 89.613281 470.324219 111.003906 477.453125 C 125.691406 482.34375 142.3125 483.519531 161.28125 480.585938 L 161.28125 559.464844 C 161.28125 571.125 170.640625 580.574219 182.179688 580.574219 L 349.433594 580.574219 C 360.976562 580.574219 370.335938 571.125 370.335938 559.464844 L 370.335938 409.039062 C 370.335938 395.707031 369.761719 383.515625 366.039062 372.136719 C 393.738281 366.238281 421.3125 355.671875 444.03125 335.804688 C 476.652344 307.289062 495.761719 262.808594 495.761719 196.855469 L 495.761719 196.789062 C 495.664062 163.910156 484.234375 132.234375 463.671875 107.085938 C 467.054688 94.660156 468.636719 81.769531 468.316406 68.839844 C 467.894531 51.4375 464.046875 34.285156 457.011719 18.390625 C 454.492188 12.6875 449.609375 8.410156 443.664062 6.703125 L 437.929688 27 C 443.664062 6.703125 443.609375 6.691406 443.597656 6.675781 L 443.511719 6.648438 L 443.328125 6.605469 L 442.953125 6.507812 C 442.6875 6.4375 442.394531 6.367188 442.070312 6.296875 C 441.425781 6.160156 440.671875 6.003906 439.789062 5.878906 C 438.042969 5.613281 435.847656 5.375 433.203125 5.304688 C 427.886719 5.167969 420.820312 5.640625 411.910156 7.570312 C 395.515625 11.105469 372.964844 19.507812 343.460938 37.792969 Z M 343.503906 37.808594 "/>
<path style="fill:none;stroke-width:0.9;stroke-linecap:round;stroke-linejoin:round;stroke:rgb(100%,100%,100%);stroke-opacity:1;stroke-miterlimit:4;" d="M 262.550121 265.809882 C 262.550121 265.809882 328.7901 213.339129 333.768848 221.308804 C 335.480555 224.050126 271.301326 261.699295 272.328909 263.359179 L 328.829192 228.060114 C 329.990807 229.910017 279.871029 257.77873 281.549228 260.469752 C 283.230219 263.160775 323.169112 234.191063 323.289182 234.389466 C 323.420423 234.599047 288.39047 252.430217 291.059951 256.700085 C 291.059951 256.700085 315.839209 239.628997 316.551257 240.769118 " transform="matrix(1.398914,0,0,1.397877,0,0.203926)"/>
<path style="fill:none;stroke-width:0.9;stroke-linecap:round;stroke-linejoin:round;stroke:rgb(100%,100%,100%);stroke-opacity:1;stroke-miterlimit:4;" d="M 10.708638 248.49009 C 10.870594 248.749971 13.690861 246.559149 13.718785 246.609448 C 13.741124 246.640187 9.731318 251.848978 9.809504 251.969138 C 9.96029 252.209458 16.499959 246.690486 16.999789 247.481306 C 17.360001 248.05975 7.949803 254.769143 8.751205 256.060164 C 9.630794 257.471344 19.909411 247.000666 20.850431 248.501268 C 21.319545 249.250171 6.768641 257.530027 7.89954 259.329631 C 7.89954 259.329631 22.77994 247.470128 23.930386 249.308854 C 23.930386 249.308854 6.109648 260.019851 7.248924 261.850194 C 8.178775 263.339618 26.019059 249.540791 26.278747 249.959953 C 26.909817 250.968737 4.738607 263.169158 6.268812 265.619861 C 6.710002 266.32126 29.551374 251.080514 29.551374 251.080514 C 30.470055 252.550377 3.451337 265.941219 5.389223 269.04861 C 6.148741 270.26977 30.051203 248.761149 32.240401 252.270935 C 33.220514 253.83022 2.599672 269.571166 4.478919 272.569574 C 5.919769 274.869379 33.840414 252.131215 34.778641 253.640199 C 35.091384 254.1404 3.091125 272.11129 4.970372 275.120876 C 7.190285 278.680962 35.42088 252.480517 37.04044 255.079324 C 37.04044 255.079324 6.729548 272.949615 8.70932 276.1101 C 9.15051 276.808704 39.229637 256.459765 39.489325 256.878928 C 39.53121 256.940405 12.900628 277.149622 12.95089 277.23066 C 13.520528 278.138846 42.049905 259.050189 42.049905 259.050189 C 43.909605 262.029037 14.841307 277.180361 15.260159 277.839843 C 15.969414 278.979965 42.479925 258.87973 43.359514 260.279732 C 43.638748 260.72125 18.960014 278.518886 19.230871 278.960404 C 19.680439 279.681363 45.529165 262.529237 45.529165 262.529237 C 45.529165 262.529237 21.598779 279.930067 22.241018 280.938851 C 23.679075 283.249833 47.31068 264.390318 47.709985 265.03024 C 49.410523 267.749206 22.640323 280.530866 23.930386 282.598734 C 25.589038 285.259018 47.559199 264.281336 49.159212 266.841021 C 49.871259 267.969965 25.968797 285.010315 25.968797 285.010315 C 27.110865 286.840658 50.840203 269.040227 51.030082 269.350407 C 51.219961 269.660587 26.94891 286.228681 27.270029 286.740059 C 27.870383 287.701338 51.479649 269.83943 52.269883 271.119272 C 53.629754 273.290534 28.560092 288.589962 28.560092 288.589962 C 30.07075 290.998749 53.52923 272.988737 53.52923 272.988737 C 54.690845 274.83864 30.160105 290.998749 30.179651 291.040665 C 31.628878 293.371208 54.7802 274.880556 55.129243 275.450617 C 55.129243 275.450617 30.911245 292.18917 31.469714 293.069411 C 32.030975 293.949652 54.478627 274.380356 56.419305 277.479364 C 56.419305 277.479364 32.500089 294.740472 32.709515 295.070213 C 32.709515 295.070213 56.480737 277.599523 57.659106 279.480166 C 58.131012 280.229069 34.019124 297.219119 34.119648 297.381195 C 34.921051 298.669421 59.06924 281.791148 59.06924 281.791148 C 60.990372 284.859417 34.948974 298.758843 35.401334 299.49098 C 36.040781 300.519325 58.530317 280.98915 60.350925 283.900932 C 61.649365 285.979978 36.331185 301.019525 36.331185 301.019525 C 36.800298 301.771223 61.280776 285.429478 61.280776 285.429478 C 62.939428 288.081378 37.819504 303.43949 37.819504 303.43949 L 62.769095 287.849442 C 62.900335 288.059023 37.311297 302.629109 38.849879 305.079812 C 40.678864 307.999977 62.210626 286.94964 63.79947 289.489764 C 64.910823 291.25863 39.330162 305.820332 39.961231 306.820733 C 40.980437 308.449878 64.910823 291.230685 64.910823 291.230685 C 66.879425 294.379992 40.941344 308.310157 41.399288 309.0395 C 42.789876 311.261061 66.159 293.111328 66.371219 293.441069 C 66.859879 294.220711 40.891082 308.05866 42.840138 311.168845 C 43.409776 312.079824 65.790411 292.300947 67.828822 295.550853 C 68.490607 296.598759 43.850966 312.630324 43.850966 312.630324 C 45.590596 315.410769 68.870366 297.001155 68.870366 297.001155 C 68.970891 297.16882 45.691121 315.170449 45.691121 315.170449 C 46.819228 316.98123 70.45921 298.990779 70.76916 299.499363 C 72.229556 301.841084 46.768965 316.620751 46.768965 316.620751 C 46.768965 316.620751 69.928665 297.730497 71.919606 300.910543 C 72.210009 301.368827 48.530934 318.859078 48.530934 318.859078 C 50.320827 321.728943 72.000584 300.158845 73.810022 303.059449 C 73.868662 303.14887 50.320827 320.999601 50.320827 320.999601 C 51.719791 323.240723 74.038995 302.260246 75.800963 305.079812 C 75.800963 305.079812 51.138983 321.348903 52.320145 323.249106 C 53.099209 324.501004 77.339545 305.909754 78.110232 307.139297 C 78.350373 307.519337 53.97042 324.931344 54.070944 325.090626 C 54.489796 325.769669 78.110232 305.370431 80.221244 308.74888 C 81.960874 311.529324 55.291199 325.998811 55.768689 326.77007 C 57.631183 329.740535 81.678847 309.050677 82.360179 310.148883 C 82.77903 310.83072 55.670957 325.23873 57.7708 328.608796 C 58.870983 330.360895 83.569264 309.22952 85.02966 311.579624 C 85.428965 312.219545 58.251083 327.600012 60.149877 330.640337 C 61.451109 332.719382 87.009431 310.660261 88.439111 312.960066 C 90.37979 316.070251 61.699628 331.640738 61.939769 332.029161 L 91.200739 313.750885 C 91.200739 313.750885 61.858791 330.229557 63.849732 333.409603 C 65.081156 335.379666 92.999009 312.230723 94.339334 314.360068 C 94.339334 314.360068 63.729661 331.179659 66.030553 334.871083 C 66.030553 334.871083 95.621019 310.629522 98.209522 314.75967 C 100.239556 318.009576 67.139113 334.980065 67.719921 335.910606 C 69.668977 339.029174 99.491208 311.719345 101.440264 314.840708 C 101.440264 314.840708 68.71958 335.720585 69.459551 336.911007 C 70.811045 339.07109 102.420376 310.559662 105.008879 314.700987 C 105.190381 314.988812 71.930775 337.889052 72.210009 338.338953 C 72.210009 338.338953 109.219733 310.718944 111.24139 313.949289 C 113.690276 317.881032 74.270759 339.040352 74.491354 339.389654 C 83.650242 354.049161 330.889942 130.381297 352.82101 165.47078 C 362.82877 181.491168 63.059499 317.691012 77.331168 340.540953 C 90.37979 361.429214 342.129126 152.18892 352.410535 168.650826 C 373.238627 201.991005 68.471061 322.888626 80.101173 341.510616 C 84.901212 349.189671 345.309605 160.960593 351.969345 171.62129 C 355.920511 177.939465 72.450151 324.528948 83.72005 342.569699 C 96.439176 362.929815 340.830686 158.498712 351.349445 175.340658 C 351.589586 175.729082 86.989885 343.321397 86.989885 343.321397 C 101.479357 366.509463 349.718716 176.84126 350.76026 178.501143 C 351.799012 180.161026 74.689611 319.619159 89.771059 343.748943 C 108.530025 373.780533 350.221338 180.999351 350.221338 180.999351 C 366.338746 206.800195 91.390619 341.510616 93.06044 344.190461 C 102.699611 359.621227 334.721038 160.169773 349.559552 183.911133 C 364.400859 207.649698 87.109956 328.930154 96.841274 344.509024 C 103.090539 354.51024 330.97092 158.618872 348.760942 187.091178 L 102.571163 344.629184 C 114.349269 363.469138 344.848868 187.359442 347.490426 191.590188 C 355.850703 204.969853 106.620061 344.48108 106.620061 344.48108 C 121.020178 367.529424 328.60022 165.789344 346.568952 194.541092 C 350.489403 200.820145 96.469892 317.051091 113.198823 343.841159 C 117.409678 350.58129 336.20098 184.861234 345.019201 198.978625 C 359.709722 222.479665 115.510884 344.838765 115.510884 344.838765 C 115.510884 344.838765 328.949263 178.470404 343.779401 202.200586 C 352.80984 216.658896 112.419759 343.639961 115.510884 348.588872 C 121.411106 358.020026 331.389772 191.070427 341.559487 207.339518 C 341.559487 207.339518 98.019643 322.628745 115.510884 350.620412 C 115.510884 350.620412 328.871078 192.149072 340.1689 210.240122 C 346.219909 219.919979 112.489568 349.371308 115.510884 354.200059 C 117.870414 357.969727 326.059187 197.640099 337.289994 215.619373 L 115.510884 356.740184 C 132.239815 383.519074 334.810393 219.710398 334.810393 219.710398 C 346.878902 239.030992 113.98068 357.740585 115.510884 360.199671 C 120.430994 368.079924 256.800685 260.070151 262.1201 268.590326 C 266.710713 275.93964 112.989398 359.830808 115.510884 363.860356 C 124.890367 378.869165 261.480653 269.52925 262.879618 271.770371 C 271.061185 284.870594 115.259573 366.190899 115.510884 366.590501 C 116.060976 367.470742 255.580431 261.811072 263.329185 274.221074 C 273.490524 290.478988 112.919589 364.830018 115.510884 368.971343 C 115.510884 368.971343 252.520022 258.580727 263.658682 276.400719 C 267.079303 281.869391 108.56074 361.359354 115.510884 372.489513 C 122.089646 383.01049 255.990906 266.841021 264.018894 279.689747 C 266.090813 283.00113 108.25079 364.229219 115.510884 375.859579 C 126.909231 394.098733 264.250658 282.920092 264.250658 282.920092 C 272.328909 295.849855 108.449047 366.738605 115.510884 378.039224 C 123.728752 391.200924 257.959508 274.799518 264.351183 285.029876 C 274.920204 301.950066 109.641377 371.100688 115.510884 380.489927 C 115.510884 380.501104 262.069838 283.668995 264.429368 287.438663 C 269.949832 296.269018 115.510884 383.278754 115.510884 383.278754 C 124.510608 397.689558 260.659704 284.099335 264.471254 290.199546 C 272.328909 302.780007 109.568776 377.36018 115.510884 386.861195 C 127.350421 405.810131 253.770992 276.641039 264.479631 293.77081 C 270.170427 302.880606 115.510884 390.231261 115.510884 390.231261 C 121.039725 399.081177 259.729854 289.551241 264.479631 297.140876 C 271.681085 308.659459 115.510884 393.400129 115.510884 393.400129 C 123.460687 406.120312 264.479631 300.320921 264.479631 300.320921 C 265.870218 302.539688 109.700017 386.210096 115.519261 395.521091 C 127.129826 414.101164 253.631375 285.060615 264.479631 302.439089 C 265.068815 303.380807 114.941246 397.379378 115.519261 398.298741 C 121.709887 408.210535 258.62967 295.838678 264.479631 305.219533 C 274.45109 321.17006 105.26019 384.460792 115.549977 400.919903 C 121.148626 409.889979 259.76057 300.30136 264.479631 307.860256 C 275.369771 325.28903 113.651183 400.36102 116.158708 404.371007 C 123.689659 416.428913 257.529487 300.561241 264.479631 311.688606 C 271.480036 322.899804 114.631296 402.909527 117.44877 407.439276 C 122.349334 415.280408 254.53051 299.650261 264.479631 315.57005 C 267.500947 320.409979 111.769143 398.259619 118.57967 409.16902 C 122.349334 415.19937 257.3787 306.650274 264.479631 318.001192 C 270.569732 327.739733 119.95071 410.541078 120.269038 411.041279 C 121.360844 412.790583 256.800685 308.639898 264.479631 320.92974 C 270.139711 329.980854 113.249085 397.700736 122.798901 412.969426 C 127.819535 421.008961 264.281374 324.098608 264.479631 324.439527 C 274.501352 340.479476 125.130508 412.740284 126.219522 414.481205 C 126.219522 414.481205 255.971359 314.46905 264.479631 328.089035 C 264.479631 328.089035 119.001314 398.580977 129.299477 415.051266 C 137.179471 427.659671 258.490053 320.991218 264.479631 330.578859 C 274.090878 345.950943 134.110686 415.098771 134.110686 415.098771 C 134.110686 415.098771 260.369301 327.06069 264.479631 333.630362 C 270.279329 342.910618 139.259768 415.098771 139.259768 415.098771 C 139.259768 415.098771 255.34029 322.220761 264.479631 336.849529 C 266.269523 339.711012 135.610174 399.508723 145.349869 415.098771 C 150.099646 422.699583 264.479631 340.661113 264.479631 340.661113 C 273.83119 355.6308 141.1809 401.230083 149.851127 415.098771 C 157.080505 426.670448 264.479631 343.469501 264.479631 343.469501 C 265.490459 345.090263 154.299331 415.098771 154.299331 415.098771 C 160.110198 424.390205 257.599296 335.239946 264.479631 346.249945 C 272.049675 358.360945 156.670031 409.83968 159.959412 415.098771 C 164.170266 421.838903 260.799322 343.888664 264.479631 349.790471 C 271.220348 360.579711 165.130832 413.799367 165.948989 415.098771 C 166.010421 415.19937 263.038781 351.221212 264.479631 353.529399 C 269.701313 361.879115 163.240416 403.960228 170.198936 415.098771 C 170.198936 415.098771 261.659363 351.659935 264.479631 356.1813 C 264.479631 356.1813 168.501191 404.890769 174.878904 415.098771 C 181.348765 425.449288 257.789175 348.398851 264.479631 359.109849 C 266.668828 362.611252 173.66982 406.640073 178.950142 415.098771 C 184.358911 423.758666 259.338926 353.4288 264.479631 361.66115 C 265.16934 362.770534 182.460118 415.098771 182.460118 415.098771 C 185.450718 419.891194 258.168934 353.738981 264.479631 363.849178 C 269.550527 371.961368 186.280044 414.629309 186.578825 415.098771 C 188.410602 418.030113 264.479631 366.420041 264.479631 366.420041 C 269.609166 374.630036 191.429126 415.098771 191.429126 415.098771 C 192.520932 416.839692 263.130929 367.300282 264.479631 369.449188 C 269.58962 377.631239 194.958648 411.390581 197.270709 415.098771 L 264.479631 373.098696 L 200.939849 415.098771 C 204.299038 420.480816 260.330208 368.758968 264.479631 375.401295 C 267.361329 380.020465 205.039009 415.098771 205.039009 415.098771 C 208.979006 421.411357 262.75117 375.188919 264.479631 377.96098 C 264.479631 377.96098 204.709513 408.978999 208.540608 415.098771 C 208.669056 415.299969 264.479631 380.140625 264.479631 380.140625 C 265.459743 381.711086 211.841159 415.098771 211.841159 415.098771 C 213.251292 417.359453 264.479631 382.211287 264.479631 382.211287 C 266.210884 384.980553 215.281326 410.739482 218.009446 415.098771 C 221.390974 420.519938 262.108931 382.26997 264.479631 386.059198 L 222.209131 415.098771 C 223.599718 417.320332 264.479631 388.688744 264.479631 388.688744 C 266.300239 391.608908 227.550885 414.148669 228.151238 415.098771 C 229.580918 417.390192 263.54978 390.890744 264.479631 392.399728 C 265.47929 393.989751 231.479712 412.798966 232.920562 415.098771 C 234.679738 417.921131 263.038781 393.078771 264.479631 395.38137 C 265.490459 396.999337 236.799127 411.918725 238.778899 415.098771 C 238.778899 415.098771 262.550121 395.959814 264.479631 399.039261 C 266.009835 401.478786 244.609313 415.098771 244.609313 415.098771 C 245.159404 415.979012 263.569327 401.699545 264.270205 402.820106 C 265.281033 404.42969 248.719643 414.640487 249.010046 415.098771 C 249.30045 415.559849 262.991311 405.639672 263.309639 406.159433 C 263.54978 406.539474 253.670468 414.109547 253.949702 414.559448 C 254.499794 415.450867 260.268776 409.78938 260.640158 410.379002 " transform="matrix(1.398914,0,0,1.397877,0,0.203926)"/>
<path style="fill:none;stroke-width:0.9;stroke-linecap:round;stroke-linejoin:round;stroke:rgb(100%,100%,100%);stroke-opacity:1;stroke-miterlimit:4;" d="M 316.57918 7.460518 C 316.660158 7.600239 319.190022 5.510016 319.329639 5.739158 C 319.329639 5.739158 315.490166 11.269308 315.501336 11.300046 C 315.590691 11.439767 321.669623 6.979879 321.879049 7.30962 C 322.479403 8.270899 313.638842 15.089275 314.188934 15.961132 C 314.739026 16.830196 324.300011 9.640163 324.300011 9.640163 C 324.788671 10.419805 312.549828 17.361135 313.40987 18.730399 C 313.619296 19.071318 325.439287 11.210625 325.439287 11.210625 " transform="matrix(1.398914,0,0,1.397877,0,0.203926)"/>
<path style="fill:none;stroke-width:0.9;stroke-linecap:round;stroke-linejoin:round;stroke:rgb(100%,100%,100%);stroke-opacity:1;stroke-miterlimit:4;" d="M 57.279347 7.79026 C 57.430134 8.030579 61.141159 5.211013 61.219344 5.331173 C 61.490202 5.758719 53.308635 11.649348 53.800087 12.42899 C 54.791369 14.019013 67.11119 3.718795 67.2899 4.001031 C 67.2899 4.001031 52.339691 15.771112 52.359238 15.799056 C 52.359238 15.799056 71.310875 3.43097 71.551016 3.811011 C 72.249102 4.928777 50.890465 19.619023 50.910011 19.649762 C 50.910011 19.649762 74.650518 1.930369 75.940581 4.009414 C 77.730473 6.870897 49.460785 23.589889 49.561309 23.760348 C 51.661152 27.119236 78.439728 1.500029 80.330145 4.529176 C 81.969251 7.150338 46.768965 24.959152 48.461126 27.661353 C 49.399353 29.170338 83.371007 3.699234 84.339951 5.238958 C 85.509943 7.111216 45.520788 26.401071 47.860772 30.14 C 48.220984 30.721239 86.839098 5.781074 86.839098 5.781074 C 87.481337 6.801036 47.148724 32.129624 47.360942 32.470543 C 49.639495 36.108873 86.908907 2.779871 89.151159 6.359518 C 89.969316 7.6701 45.2611 32.691302 46.849943 35.220249 C 48.190268 37.360771 91.63076 6.739559 91.851355 7.100039 C 91.851355 7.100039 45.741383 38.509276 46.241213 39.300096 C 49.740019 44.900106 94.81124 6.731176 95.810899 8.329582 C 95.810899 8.329582 44.49879 40.060177 45.908924 42.309682 C 48.74036 46.839431 98.700975 9.318805 98.700975 9.318805 C 101.76976 14.231389 43.739272 42.270561 45.668782 45.33883 C 48.341055 49.619875 98.279331 5.090854 101.599427 10.389067 L 45.520788 48.650213 C 45.610143 48.789934 102.479016 8.019402 104.749191 11.640965 C 108.588664 17.788681 40.539247 44.609487 45.501241 52.54004 C 48.240531 56.91889 104.268908 6.529978 108.44067 13.208632 C 111.749597 18.501257 44.339626 53.909304 45.598973 55.921284 C 46.970014 58.120489 109.37052 11.051343 111.629526 14.658934 C 114.190105 18.761137 45.780476 59.400332 45.850284 59.509314 C 45.900547 59.590352 115.019431 16.290874 115.019431 16.290874 C 116.82887 19.1803 40.558793 53.769583 46.179781 62.75922 L 118.060294 17.83898 C 122.980403 25.71085 46.218874 65.299344 46.598633 65.911321 C 47.419582 67.219108 121.031348 19.401059 121.031348 19.401059 L 46.981184 68.160826 C 46.981184 68.160826 120.620873 16.489277 123.159113 20.549564 C 124.030325 21.941183 47.578745 71.220712 47.578745 71.220712 C 51.300939 77.170024 126.060359 22.178708 126.060359 22.178708 C 126.060359 22.178708 43.560563 66.850245 48.329886 74.479001 C 52.85069 81.71095 124.87082 17.109637 129.15986 23.969929 C 133.041218 30.170739 45.621312 72.360834 48.419241 76.848666 C 53.090832 84.329318 131.150801 25.16035 131.150801 25.16035 C 138.170753 36.391109 40.678864 77.999966 43.82025 83.041092 C 46.020617 86.550879 132.181176 24.148772 133.828659 26.789495 C 133.828659 26.789495 41.538906 86.481019 41.538906 86.481019 C 45.629689 93.019953 137.919443 26.250173 137.919443 26.250173 C 145.989316 39.168759 35.700115 85.310158 39.039758 90.658671 C 43.479585 97.77046 141.370779 20.530003 144.149161 24.978713 C 145.659819 27.398678 33.980031 91.329331 36.521064 95.409178 C 38.869425 99.159285 147.770831 18.210637 151.219376 23.740787 C 152.741203 26.180312 31.609331 94.431133 34.680909 99.349305 C 37.749695 104.270272 154.240692 18.31962 157.080505 22.860546 C 157.739498 23.911246 32.701138 104.138934 32.701138 104.138934 C 36.831014 110.739345 160.959071 16.900056 164.15072 21.999866 C 174.169649 38.039815 29.74963 104.859894 31.450168 107.578861 C 39.790898 120.930581 162.349658 10.598648 169.179731 21.519226 C 171.151125 24.671328 30.590126 110.200023 30.590126 110.200023 C 40.849197 126.608835 164.530478 7.720399 172.968941 21.220224 C 183.599394 38.229835 20.811338 100.880645 29.330779 114.520191 C 36.571326 126.100251 174.948713 14.060929 179.19866 20.870922 C 182.490833 26.141191 18.781304 101.881046 28.571261 117.549338 C 30.780005 121.089863 183.529585 20.720023 183.529585 20.720023 C 188.310078 28.371135 20.280793 108.520579 27.87876 120.690261 C 36.59925 134.651165 185.880739 17.291275 187.980581 20.650163 C 192.33943 27.619437 25.0194 121.2212 27.161128 124.649949 C 32.360472 132.968926 193.079401 19.870521 193.570853 20.669724 C 205.940936 40.42904 13.780216 106.790835 26.75903 127.558936 C 26.75903 127.558936 196.740164 19.280899 197.670014 20.759145 C 203.578613 30.221038 13.31948 110.920982 26.301086 131.689083 C 28.459568 135.140187 195.290937 8.011018 203.411073 21.019026 C 208.331183 28.899279 19.440297 123.80883 26.088868 134.438789 C 34.680909 148.178933 204.770944 17.349957 207.21983 21.259345 C 211.810443 28.60866 14.028735 118.650338 25.940873 137.71105 C 31.539523 146.681126 201.029204 4.529176 211.709918 21.631003 C 211.709918 21.631003 20.219361 131.230799 25.890611 140.29868 C 31.008977 148.489113 207.859276 10.159924 215.25061 21.980305 C 216.641198 24.210249 11.029758 119.130977 25.898988 142.93102 C 25.898988 142.93102 218.718701 22.220625 218.819226 22.379906 C 232.940108 44.981144 16.410604 130.979302 25.94925 146.239608 C 27.309122 148.41087 214.371022 8.759922 223.239506 22.961145 C 223.239506 22.961145 10.518759 124.320208 26.030228 149.140212 C 32.650875 159.739433 222.449273 16.151153 227.059432 23.520028 C 241.719237 46.979152 26.13913 151.920656 26.13913 151.920656 C 26.661298 152.750598 219.559197 6.300836 230.681102 24.10965 C 238.030551 35.879731 19.409581 143.679923 26.278747 154.689923 C 32.229232 164.190938 217.571048 -1.939898 234.24134 24.741188 C 243.799533 40.029439 15.81025 141.15936 26.549604 158.33943 C 36.73049 174.630877 229.391039 10.450544 238.890592 25.649373 C 253.72073 49.390733 10.7589 135.450368 26.789746 161.089136 C 26.789746 161.089136 234.199455 13.328792 242.358683 26.389894 C 242.579279 26.750373 21.71885 155.830045 27.149958 164.520679 C 44.359173 192.070828 256.180785 5.549138 263.309639 16.950356 C 279.829144 43.399505 8.410539 136.330609 27.409646 166.739445 C 34.158741 177.551042 263.580496 -10.549494 276.930691 10.819407 C 295.759465 40.940419 13.369742 146.130626 27.730766 169.120288 C 37.889312 185.369818 275.408864 -9.99061 286.349267 7.519201 C 289.119272 11.951145 27.250483 169.980968 28.040716 171.230072 C 30.629219 175.371397 292.830297 5.769897 292.830297 5.769897 C 312.530282 37.290911 28.160787 173.689158 28.540545 174.301136 C 40.019871 192.668833 294.329785 -5.558666 300.520411 4.350333 C 300.520411 4.350333 13.149147 151.319857 28.95102 176.609323 C 28.95102 176.609323 295.929798 -11.208976 305.359543 3.889255 C 324.699316 34.840208 7.701284 144.521042 29.509489 179.420506 C 37.869766 192.800171 305.890088 -3.46006 310.469532 3.86131 C 332.369884 38.920056 22.900011 170.221288 29.970225 181.53029 C 44.95115 205.500792 291.311262 -31.82059 313.800798 4.168696 C 313.800798 4.168696 7.949803 148.10069 30.640388 184.419716 C 30.640388 184.419716 293.439028 -31.448932 316.648989 5.700036 C 316.648989 5.700036 18.610971 166.499126 31.210026 186.660838 C 37.269412 196.349079 315.788947 8.84096 315.788947 8.84096 C 315.788947 8.84096 29.981395 186.180199 31.938828 189.321122 C 48.729191 216.189434 311.340743 7.18946 314.730649 12.619011 C 335.840768 46.409091 27.320291 183.349455 32.74023 192.020528 C 51.359579 221.820182 306.060421 4.381072 313.630465 16.500455 C 333.989444 49.069375 33.608649 194.739495 33.608649 194.739495 C 56.919135 232.039362 302.46109 -25.510798 325.939117 12.071305 C 328.759384 16.589876 27.820121 186.33948 34.270435 196.659259 C 42.680974 210.13114 326.790781 13.870909 326.790781 13.870909 C 338.878838 33.219447 33.530464 196.67882 35.339903 199.579424 C 55.980908 232.609423 321.309411 6.080077 327.960773 16.729597 C 349.671246 51.461395 15.221066 168.069587 36.040781 201.401383 C 50.061139 223.820984 319.650758 4.110013 328.658859 18.548762 C 334.969556 28.650576 34.130818 199.079224 36.928746 203.550289 C 36.928746 203.550289 314.309005 -3.479621 329.460262 20.759145 C 336.499761 32.020642 23.341201 182.349054 37.718979 205.380632 C 44.289364 215.898815 330.091332 22.690087 330.091332 22.690087 C 333.590138 28.301274 26.038605 187.119122 38.439404 206.959477 L 330.610708 24.389092 C 330.610708 24.389092 37.649171 206.149097 39.369255 208.898802 C 50.940727 227.409015 317.500654 4.571092 331.230608 26.529614 C 344.178706 47.261388 18.139065 175.390958 40.569962 211.279645 C 52.610549 230.561116 320.739773 11.350346 331.920317 29.22902 C 331.920317 29.22902 31.210026 196.519538 41.379742 212.799807 C 41.379742 212.799807 324.959004 19.1803 332.339168 30.989503 C 343.96928 49.600314 34.731172 202.39899 42.750783 215.239332 C 62.788642 247.330408 328.848739 27.379117 332.931145 33.901284 C 351.919083 64.298943 31.31055 197.058861 44.269818 217.799018 C 65.36039 251.538798 333.470068 37.089713 333.470068 37.089713 C 354.080357 70.069413 42.421286 214.789431 45.679951 220.009401 C 53.141094 231.949941 318.840979 15.880094 333.869373 39.92884 C 340.540282 50.600715 47.48939 222.661302 47.48939 222.661302 C 63.768754 248.738793 317.020371 15.919216 334.240755 43.480543 C 343.100861 57.651027 46.179781 220.36988 48.539311 224.139548 C 56.96102 237.608634 316.741136 17.280097 334.388749 45.520467 C 357.218951 82.060252 41.739954 212.749508 50.399012 226.598634 C 50.588892 226.900431 325.020435 33.789508 334.559082 49.038637 C 334.559082 49.038637 42.789876 213.881246 51.890124 228.451332 C 54.970079 233.380682 316.660158 23.109249 334.589798 51.79952 C 340.330856 60.990354 45.668782 217.799018 53.540399 230.39904 C 71.40023 258.988712 334.531158 54.820284 334.531158 54.820284 C 337.181093 59.070591 33.960485 198.33032 55.070603 232.100839 C 55.070603 232.100839 329.259213 49.340433 334.399918 57.558811 C 353.580527 88.261062 53.540399 228.789456 56.670616 233.811022 L 334.179323 60.409116 C 348.26949 82.960054 43.82025 211.919566 58.921245 236.091266 C 80.849521 271.189133 333.729756 64.368804 333.729756 64.368804 C 340.261048 74.81992 39.628943 203.600589 61.350585 238.368715 C 69.211032 250.949176 324.090585 54.230662 333.059593 68.591166 C 341.269084 81.719334 57.120184 230.069299 63.458804 240.229796 C 65.600532 243.661339 332.330791 72.221113 332.330791 72.221113 C 332.330791 72.221113 58.929623 231.50004 65.368767 241.819819 C 76.429241 259.519651 317.760342 53.459403 331.540558 75.498963 C 349.861125 104.809594 60.730684 232.53118 67.650112 243.61104 C 86.009772 272.988737 312.038829 45.481345 332.450862 78.139686 C 332.450862 78.139686 49.368638 212.299607 70.029189 245.360344 L 334.129061 80.330509 C 352.600415 109.889843 61.540464 230.08886 71.900059 246.670925 C 91.049953 277.320082 321.750601 60.249834 335.368861 82.040691 C 355.138655 113.670688 57.391041 220.808604 74.70078 248.520829 C 74.70078 248.520829 333.880542 79.388791 337.100115 84.550077 C 337.100115 84.550077 60.680422 224.399428 76.420864 249.59109 C 81.480591 257.689308 322.568758 61.239058 338.088604 86.078623 C 351.38016 107.349719 66.890595 232.690461 78.071139 250.588697 C 81.530853 256.130024 321.839956 60.079375 338.998908 87.540102 C 359.558935 120.449942 69.219409 233.551141 80.849521 252.159159 C 81.891065 253.819042 334.430634 80.330509 340.439758 89.948889 C 345.08901 97.390419 84.069093 253.84978 84.069093 253.84978 C 97.190317 274.83864 326.581356 68.04905 341.981131 92.690211 C 341.981131 92.690211 69.079792 226.14035 87.408736 255.470542 C 105.740473 284.800734 332.149289 77.429905 343.438735 95.490216 C 357.570787 118.111015 72.81874 228.219395 90.790265 256.979527 C 95.590304 264.650199 328.709122 72.570415 344.770683 98.270661 C 349.710339 106.178858 74.709157 227.970692 93.56027 258.130826 C 95.849992 261.799894 342.078863 94.598798 345.778719 100.520166 C 359.031182 121.729784 79.129437 232.190261 95.908631 259.050189 C 115.871096 290.990366 326.198805 69.809532 346.580122 102.420369 C 358.310758 121.198845 82.899101 233.939565 99.390683 260.318854 C 100.680746 262.381133 347.660759 105.181252 347.660759 105.181252 C 364.501384 132.130601 90.99969 242.610639 102.780589 261.458976 C 110.749938 274.209897 333.729756 84.010755 348.621325 107.838741 C 365.540136 134.919429 101.800476 255.761161 105.980615 262.459377 C 119.660307 284.350833 336.491384 89.599587 349.439482 110.331361 C 351.70128 113.95013 109.789372 263.549199 109.789372 263.549199 C 128.288649 293.158833 335.008649 88.761262 350.31907 113.248731 C 368.94121 143.05118 113.670729 264.5496 113.670729 264.5496 C 127.880967 287.290559 339.738879 97.991219 351.109303 116.180074 C 357.160312 125.859931 116.410019 265.209082 116.410019 265.209082 C 117.219798 266.51128 351.609133 118.239558 351.609133 118.239558 C 356.358909 125.84037 118.730456 266.7013 118.730456 266.7013 C 130.771042 285.9688 333.860996 91.519351 352.170394 120.829982 C 352.170394 120.829982 116.390472 268.179547 117.669366 270.21947 C 117.669366 270.21947 338.099774 100.101003 352.650677 123.389667 C 357.749497 131.549363 116.879132 273.500115 116.879132 273.500115 C 121.600986 281.059011 347.850638 117.568899 353.061151 125.918614 C 368.550282 150.699497 111.350292 268.319267 116.34021 276.319681 C 121.760149 284.990754 337.18947 102.300209 353.379479 128.198858 C 364.529307 146.041205 113.290971 274.469777 115.979998 278.770384 C 115.979998 278.770384 345.72008 117.638759 353.61962 130.280698 C 359.070275 138.999276 98.368686 254.21026 115.650501 281.861008 C 134.200041 311.548885 351.419253 129.059538 353.879308 132.999665 C 369.379608 157.800108 102.238874 264.5496 115.418737 285.639059 C 119.880902 292.770409 341.400324 116.191251 354.088734 136.501068 C 368.50002 159.56059 115.360097 288.559224 115.360097 288.559224 C 126.808707 306.890594 354.180881 139.329017 354.180881 139.329017 C 372.230591 168.220486 102.959299 271.471369 115.41036 291.401145 C 115.41036 291.401145 340.950757 121.000442 354.189258 142.190499 C 365.31954 160.010491 111.989738 288.469802 115.538807 294.139673 C 118.26972 298.51014 354.161335 145.029626 354.161335 145.029626 C 359.690175 153.879542 109.010308 287.0195 115.569523 297.5293 C 124.929459 312.510165 345.639102 135.000467 354.069187 148.500291 C 373.129726 179.001343 100.231179 276.699721 115.569523 301.248667 C 115.569523 301.248667 348.858674 144.230423 353.910024 152.320258 C 361.279019 164.121077 103.749532 284.440254 115.569523 303.350068 C 115.569523 303.350068 348.199681 145.529827 353.801123 154.488725 C 359.399772 163.450418 104.888808 289.431081 115.569523 306.530114 C 129.799307 329.299017 349.369673 151.099098 353.569358 157.811286 C 367.771218 180.529889 107.170153 296.269018 115.569523 309.721337 C 130.139973 333.04074 339.831027 139.658758 353.278954 161.181352 C 362.580251 176.058823 115.569523 311.850682 115.569523 311.850682 C 129.760214 334.549725 353.038813 163.458801 353.038813 163.458801 " transform="matrix(1.398914,0,0,1.397877,0,0.203926)"/>
<path style="fill:none;stroke-width:6;stroke-linecap:butt;stroke-linejoin:miter;stroke:rgb(11.372549%,11.372549%,10.588235%);stroke-opacity:1;stroke-miterlimit:10;" d="M 245.550332 26.901272 C 209.020891 18.31962 171.031055 18.31962 134.498821 26.901272 C 113.399872 13.809432 97.279672 7.80982 85.560205 5.280874 C 79.190869 3.900432 74.139519 3.559513 70.339139 3.660112 C 68.440345 3.710412 66.879425 3.869694 65.631248 4.070892 C 65.011347 4.168696 64.461255 4.269295 64.000519 4.369894 C 63.768754 4.420194 63.559328 4.470493 63.369449 4.520793 L 63.101384 4.590653 L 62.981313 4.621392 L 62.919882 4.640953 L 62.861243 4.660513 C 62.850073 4.660513 62.908712 4.839356 66.96878 19.169122 L 62.861243 4.660513 C 58.611295 5.890057 55.120866 8.949942 53.319804 13.018612 C 48.290793 24.389092 45.548711 36.659373 45.238761 49.111291 C 45.009789 58.360809 46.140688 67.579588 48.558858 76.468626 C 42.189522 84.270636 37.001347 93.000392 33.178628 102.381247 C 28.160787 114.69065 25.589038 127.888677 25.619754 141.201276 C 25.619754 188.099963 39.310615 219.62936 62.649024 239.888877 C 79.000989 254.0901 98.871308 261.640613 118.769549 265.96078 C 115.480168 275.179559 114.631296 284.940455 115.298666 294.891371 L 115.298666 312.960066 C 103.121255 315.550489 94.719092 314.728931 88.721138 312.730923 C 81.190187 310.218743 75.410035 305.169233 69.909118 297.90934 C 67.119567 294.240272 64.55061 290.199546 61.850414 285.789957 L 60.138707 282.970391 C 58.030488 279.480166 55.749143 275.718881 53.439875 272.290133 C 47.740701 263.789519 39.318992 253.170737 25.689563 249.549174 L 11.239184 245.709646 L 3.649593 274.919678 L 18.099972 278.759206 C 20.470672 279.390744 23.600889 281.629072 28.699709 289.241061 C 30.578956 292.029888 32.360472 294.989175 34.410052 298.350858 C 35.049499 299.409942 35.719661 300.510942 36.42054 301.659447 C 39.229637 306.250672 42.440833 311.358865 46.19095 316.29101 C 53.760994 326.258692 64.059158 336.310207 79.350032 341.410017 C 89.849245 344.908626 101.730668 345.749745 115.290289 343.651138 L 115.290289 400.078784 C 115.290289 408.420116 121.980744 415.179809 130.229328 415.179809 L 249.78911 415.179809 C 258.040486 415.179809 264.730942 408.420116 264.730942 400.078784 L 264.730942 292.468612 C 264.730942 282.931269 264.320467 274.209897 261.659363 266.069762 C 281.459873 261.850194 301.171028 254.291298 317.411299 240.078898 C 340.730161 219.67966 354.390307 187.859643 354.390307 140.67872 L 354.390307 140.631215 C 354.320498 117.110614 346.150101 94.450694 331.451203 76.460242 C 333.869373 67.571205 335.000272 58.349631 334.7713 49.100114 C 334.469727 36.65099 331.719268 24.380708 326.690257 13.010229 C 324.889195 8.930381 321.398766 5.870496 317.148818 4.649336 L 313.049658 19.169122 C 317.148818 4.649336 317.109726 4.640953 317.101349 4.629775 L 317.039917 4.610214 L 316.908677 4.579475 L 316.640612 4.509615 C 316.450733 4.459315 316.241307 4.409016 316.009542 4.358717 C 315.548805 4.260912 315.009883 4.149135 314.378813 4.059714 C 313.130636 3.869694 311.561339 3.699234 309.670922 3.648935 C 305.870542 3.55113 300.819192 3.889255 294.449856 5.269696 C 282.730389 7.798643 266.610189 13.809432 245.519617 26.890094 Z M 245.550332 26.901272 " transform="matrix(1.398914,0,0,1.397877,0,0.203926)"/>
</g>
</defs>
<g id="surface1">
<path style="fill-rule:nonzero;fill:rgb(54.901961%,70.588235%,82.745098%);fill-opacity:1;stroke-width:6;stroke-linecap:round;stroke-linejoin:round;stroke:rgb(11.372549%,11.372549%,10.588235%);stroke-opacity:1;stroke-miterlimit:4;" d="M 245.550332 26.901272 C 209.020891 18.31962 171.031055 18.31962 134.498821 26.901272 C 113.399872 13.809432 97.279672 7.80982 85.560205 5.280874 C 79.190869 3.900432 74.139519 3.559513 70.339139 3.660112 C 68.440345 3.710412 66.879425 3.869694 65.631248 4.070892 C 65.011347 4.168696 64.461255 4.269295 64.000519 4.369894 C 63.768754 4.420194 63.559328 4.470493 63.369449 4.520793 L 63.101384 4.590653 L 62.981313 4.621392 L 62.919882 4.640953 L 62.861243 4.660513 C 62.850073 4.660513 62.908712 4.839356 66.96878 19.169122 L 62.861243 4.660513 C 58.611295 5.890057 55.120866 8.949942 53.319804 13.018612 C 48.290793 24.389092 45.548711 36.659373 45.238761 49.111291 C 45.009789 58.360809 46.140688 67.579588 48.558858 76.468626 C 42.189522 84.270636 37.001347 93.000392 33.178628 102.381247 C 28.160787 114.69065 25.589038 127.888677 25.619754 141.201276 C 25.619754 188.099963 39.310615 219.62936 62.649024 239.888877 C 79.000989 254.0901 98.871308 261.640613 118.769549 265.96078 C 115.480168 275.179559 114.631296 284.940455 115.298666 294.891371 L 115.298666 312.960066 C 103.121255 315.550489 94.719092 314.728931 88.721138 312.730923 C 81.190187 310.218743 75.410035 305.169233 69.909118 297.90934 C 67.119567 294.240272 64.55061 290.199546 61.850414 285.789957 L 60.138707 282.970391 C 58.030488 279.480166 55.749143 275.718881 53.439875 272.290133 C 47.740701 263.789519 39.318992 253.170737 25.689563 249.549174 L 11.239184 245.709646 L 3.649593 274.919678 L 18.099972 278.759206 C 20.470672 279.390744 23.600889 281.629072 28.699709 289.241061 C 30.578956 292.029888 32.360472 294.989175 34.410052 298.350858 C 35.049499 299.409942 35.719661 300.510942 36.42054 301.659447 C 39.229637 306.250672 42.440833 311.358865 46.19095 316.29101 C 53.760994 326.258692 64.059158 336.310207 79.350032 341.410017 C 89.849245 344.908626 101.730668 345.749745 115.290289 343.651138 L 115.290289 400.078784 C 115.290289 408.420116 121.980744 415.179809 130.229328 415.179809 L 249.78911 415.179809 C 258.040486 415.179809 264.730942 408.420116 264.730942 400.078784 L 264.730942 292.468612 C 264.730942 282.931269 264.320467 274.209897 261.659363 266.069762 C 281.459873 261.850194 301.171028 254.291298 317.411299 240.078898 C 340.730161 219.67966 354.390307 187.859643 354.390307 140.67872 L 354.390307 140.631215 C 354.320498 117.110614 346.150101 94.450694 331.451203 76.460242 C 333.869373 67.571205 335.000272 58.349631 334.7713 49.100114 C 334.469727 36.65099 331.719268 24.380708 326.690257 13.010229 C 324.889195 8.930381 321.398766 5.870496 317.148818 4.649336 L 313.049658 19.169122 C 317.148818 4.649336 317.109726 4.640953 317.101349 4.629775 L 317.039917 4.610214 L 316.908677 4.579475 L 316.640612 4.509615 C 316.450733 4.459315 316.241307 4.409016 316.009542 4.358717 C 315.548805 4.260912 315.009883 4.149135 314.378813 4.059714 C 313.130636 3.869694 311.561339 3.699234 309.670922 3.648935 C 305.870542 3.55113 300.819192 3.889255 294.449856 5.269696 C 282.730389 7.798643 266.610189 13.809432 245.519617 26.890094 Z M 245.550332 26.901272 " transform="matrix(1.398914,0,0,1.397877,0,0.203926)"/>
<use xlink:href="#surface5" mask="url(#mask0)"/>
</g>
</svg>
