<?xml version="1.0" encoding="UTF-8"?>
<svg xmlns="http://www.w3.org/2000/svg" xmlns:xlink="http://www.w3.org/1999/xlink" width="500px" height="500px" viewBox="0 0 500 561" version="1.1">
<defs>
<filter id="alpha" filterUnits="objectBoundingBox" x="0%" y="0%" width="100%" height="100%">
  <feColorMatrix type="matrix" in="SourceGraphic" values="0 0 0 0 1 0 0 0 0 1 0 0 0 0 1 0 0 0 1 0"/>
</filter>
<mask id="mask0">
  <g filter="url(#alpha)">
<rect x="0" y="0" width="500" height="561" style="fill:rgb(0%,0%,0%);fill-opacity:0.8;stroke:none;"/>
  </g>
</mask>
<clipPath id="clip1">
  <rect x="0" y="0" width="500" height="561"/>
</clipPath>
<g id="surface5" clip-path="url(#clip1)">
<path style=" stroke:none;fill-rule:nonzero;fill:rgb(92.941176%,90.588235%,36.862745%);fill-opacity:1;" d="M 310.792969 392.710938 C 224.484375 392.710938 206.445312 353.089844 206.445312 319.875 C 206.445312 316.707031 208.960938 314.191406 212.128906 314.191406 L 237.605469 314.191406 C 240.425781 314.191406 242.828125 316.25 243.25 318.996094 C 247.101562 344.925781 258.542969 358.046875 310.753906 358.046875 C 352.289062 358.046875 369.945312 348.625 369.945312 326.625 C 369.945312 313.925781 364.949219 304.503906 300.417969 298.175781 C 246.492188 292.835938 213.121094 280.902344 213.121094 237.769531 C 213.121094 197.996094 246.644531 174.277344 302.859375 174.277344 C 366.019531 174.277344 397.253906 196.167969 401.21875 243.222656 C 401.335938 244.824219 400.800781 246.390625 399.734375 247.570312 C 398.664062 248.753906 397.140625 249.441406 395.539062 249.441406 L 369.945312 249.441406 C 367.277344 249.441406 364.988281 247.570312 364.417969 244.976562 C 358.277344 217.675781 343.324219 208.941406 302.859375 208.941406 C 257.511719 208.941406 252.25 224.730469 252.25 236.550781 C 252.25 250.890625 258.46875 255.082031 319.679688 263.167969 C 380.28125 271.175781 409.078125 282.503906 409.078125 325.058594 C 409.078125 367.617188 373.265625 392.59375 310.832031 392.59375 L 310.871094 392.59375 Z M 249.886719 549.441406 C 242.640625 549.441406 235.507812 547.535156 229.214844 543.910156 L 163.386719 504.976562 C 153.585938 499.484375 158.390625 497.539062 161.632812 496.398438 C 174.714844 491.859375 177.382812 490.789062 191.378906 482.859375 C 192.867188 482.058594 194.773438 482.363281 196.300781 483.242188 L 246.871094 513.25 C 248.78125 514.28125 251.066406 514.28125 253.011719 513.25 L 450.152344 399.496094 C 452.019531 398.355469 453.164062 396.332031 453.164062 394.160156 L 453.164062 166.6875 C 453.164062 164.476562 452.019531 162.417969 450.113281 161.234375 L 253.050781 47.558594 C 251.183594 46.488281 248.855469 46.488281 246.988281 47.558594 L 49.921875 161.273438 C 48.015625 162.417969 46.835938 164.4375 46.796875 166.6875 L 46.796875 394.195312 C 46.796875 396.371094 47.980469 398.429688 49.886719 399.460938 L 103.890625 430.652344 C 133.21875 445.296875 151.144531 428.058594 151.144531 410.710938 L 151.144531 186.097656 C 151.144531 182.933594 153.699219 180.417969 156.863281 180.417969 L 181.882812 180.417969 C 185.011719 180.417969 187.566406 182.894531 187.566406 186.097656 L 187.566406 410.710938 C 187.566406 449.796875 166.285156 472.257812 129.214844 472.257812 C 117.8125 472.257812 108.847656 472.257812 83.789062 459.902344 L 32.113281 430.15625 C 19.335938 422.683594 11.441406 408.992188 11.441406 394.195312 L 11.441406 166.726562 C 11.441406 151.929688 19.375 138.164062 32.113281 130.804688 L 229.289062 16.859375 C 242.179688 9.804688 257.820312 9.804688 270.710938 16.859375 L 467.847656 130.765625 C 480.625 138.164062 488.558594 151.929688 488.558594 166.6875 L 488.558594 394.160156 C 488.558594 408.953125 480.625 422.683594 467.847656 430.121094 L 270.710938 543.910156 C 264.378906 547.535156 257.246094 549.441406 249.960938 549.441406 Z M 249.886719 549.441406 "/>
<path style="fill:none;stroke-width:0.9;stroke-linecap:round;stroke-linejoin:round;stroke:rgb(100%,100%,100%);stroke-opacity:1;stroke-miterlimit:4;" d="M 54.520188 83.080083 C 54.570375 83.159981 55.410234 82.53001 55.410234 82.53001 C 55.509584 82.700051 54.239552 85.329542 54.459759 85.669625 C 54.810042 86.240184 59.100495 81.919501 59.48048 82.53001 C 59.48048 82.53001 54.860229 88.329846 54.879689 88.350333 C 54.940118 88.440476 62.61971 82.070079 63.270089 83.109788 C 63.270089 83.109788 55.399992 90.610037 55.880351 91.380343 C 55.910053 91.429512 63.400165 85.190232 64.070004 86.259647 C 64.250266 86.549536 56.850286 93.199579 57.180084 93.730189 C 57.350105 93.999591 64.920105 88.470182 65.109586 88.770314 C 65.650373 89.629739 58.840343 95.790145 58.840343 95.790145 C 58.840343 95.790145 66.299728 89.969821 66.820031 90.809784 C 67.340334 91.649746 60.389986 96.909753 60.740269 97.480313 C 61.089527 98.049848 68.489508 91.240008 69.120427 92.239768 C 69.500412 92.859496 63.329494 98.849861 63.61013 99.290329 C 63.920468 99.790209 73.010409 93.379863 73.02987 93.409569 C 73.279779 93.810088 66.450288 99.870108 66.979809 100.720314 C 67.569759 101.669881 77.419671 93.299964 77.820141 93.950423 C 78.420333 94.920477 70.380216 101.239656 70.699772 101.74978 C 71.289722 102.690127 82.419907 92.949639 83.079504 94.009835 C 83.079504 94.009835 75.049629 101.510083 75.679523 102.509843 C 76.659701 104.080163 90.409837 92.07997 90.959843 92.959882 C 91.799702 94.299724 78.989798 101.909577 79.510102 102.749539 C 80.089809 103.670425 106.429643 84.610453 107.019593 85.56002 C 107.770345 86.759527 84.649631 100.600465 85.919663 102.629691 C 85.919663 102.629691 105.650212 88.470182 106.469587 89.789537 C 106.469587 89.789537 93.619739 100.109805 94.270118 101.159757 C 94.709508 101.869628 102.969832 93.990372 103.750287 95.229829 " transform="matrix(3.813883,0,0,3.813416,0,0.118623)"/>
<path style="fill:none;stroke-width:0.9;stroke-linecap:round;stroke-linejoin:round;stroke:rgb(100%,100%,100%);stroke-opacity:1;stroke-miterlimit:4;" d="M 70.909737 55.799748 C 71.77008 57.170321 85.950389 45.900486 86.179814 46.260031 C 86.989971 47.559924 75.97962 54.770282 75.97962 54.770282 C 75.97962 54.770282 88.719877 46.400366 88.910381 46.690256 C 89.67957 47.920493 80.480037 54.249916 80.719704 54.619704 C 80.979855 55.030466 91.610222 46.680012 92.120283 47.500512 C 92.739935 48.490028 85.459788 54.940324 85.459788 54.940324 C 86.150112 56.049688 95.149922 48.460322 95.340427 48.769674 C 95.450018 48.939715 89.389716 55.42996 89.750241 56.009739 C 89.84959 56.17978 98.009541 50.039861 98.380308 50.61964 C 98.850424 51.370484 91.560035 56.939843 91.59998 56.990036 C 91.59998 56.990036 99.449592 51.240392 99.829577 51.849877 C 99.829577 51.849877 92.790122 57.689663 93.300183 58.510163 C 93.430259 58.720154 101.229684 53.370004 101.309573 53.500096 C 101.899523 54.440444 94.119558 59.810056 94.71975 60.78011 L 102.759867 55.759799 C 102.829514 55.879647 94.990144 62.350429 95.609796 63.350189 C 96.140341 64.200395 103.190039 57.229733 103.809691 58.220274 C 103.809691 58.220274 96.100397 64.240344 96.650402 65.120256 C 97.020145 65.710278 103.859878 59.419781 104.399641 60.28023 C 104.720222 60.799572 99.549966 64.849829 99.789633 65.229861 C 99.890006 65.389659 104.689495 62.050296 104.739682 62.130195 C 104.739682 62.130195 103.849636 65.149962 103.88958 65.229861 C 103.989954 65.399902 104.699737 64.509747 104.800111 64.660325 " transform="matrix(3.813883,0,0,3.813416,0,0.118623)"/>
<path style="fill:none;stroke-width:0.9;stroke-linecap:round;stroke-linejoin:round;stroke:rgb(100%,100%,100%);stroke-opacity:1;stroke-miterlimit:4;" d="M 60.979936 51.070351 C 61.309734 51.599937 65.199717 48.109997 65.350277 48.340474 C 65.419924 48.450079 56.829802 57.219489 56.859504 57.269682 C 57.280458 57.949847 73.77038 44.359873 74.820204 46.05004 C 76.189584 48.240088 55.280159 58.879951 56.210149 60.360129 C 57.089953 61.760407 79.119874 45.359632 79.430212 45.850293 C 80.629573 47.769914 55.37029 62.069759 56.140502 63.31024 C 56.98958 64.669545 82.130053 43.320163 83.809772 46.020334 C 83.990034 46.310224 54.829502 63.050056 56.409872 65.580187 C 56.439574 65.630379 65.839854 58.340122 66.450288 59.310176 C 67.009512 60.20955 57.079711 68.009931 57.180084 68.16051 C 57.180084 68.16051 65.659591 62.340186 65.890041 62.720218 C 66.160434 63.150442 58.07013 69.880383 58.07013 69.880383 C 58.07013 69.880383 66.020116 63.959674 66.440046 64.650082 C 66.440046 64.650082 59.439511 71.57977 59.520424 71.709862 C 59.83998 72.230229 67.699835 65.05982 68.390159 66.159965 C 68.390159 66.159965 60.719784 72.240472 61.370163 73.269938 C 62.100431 74.429496 71.140186 66.970222 71.230317 67.109532 L 64.260509 74.85972 C 64.769545 75.68022 74.400274 66.489804 75.30978 67.949495 C 75.500285 68.249627 66.219839 75.390331 66.400102 75.68022 C 67.309608 77.129667 78.059808 68.389963 78.059808 68.389963 C 78.25953 68.719801 69.479927 76.549888 69.479927 76.549888 C 69.929559 77.270002 81.42027 68.469861 81.699881 68.919549 C 81.77977 69.04964 72.36003 77.139911 72.36003 77.139911 C 72.36003 77.139911 84.640413 69.030178 84.840136 69.33953 C 85.329712 70.12008 75.849544 76.940163 76.329902 77.719689 C 76.390331 77.820075 88.549856 69.599713 88.770063 69.950039 C 88.770063 69.950039 79.380026 76.860265 80.179941 78.139671 C 80.450334 78.569895 92.219632 70.61996 92.219632 70.61996 C 92.540212 71.130083 84.949727 78.729693 84.949727 78.729693 C 85.010156 78.819835 95.800301 70.989748 96.230473 71.680156 C 96.959716 72.849957 88.690174 79.220354 88.789523 79.380151 C 89.509549 80.53049 99.260112 72.839714 99.260112 72.839714 C 99.329759 72.950343 92.320005 79.680284 92.790122 80.440348 C 92.840309 80.520246 101.77969 73.880447 102.209862 74.559588 C 102.730165 75.390331 94.729992 80.900278 95.12022 81.520006 C 95.540149 82.189927 103.880362 76.050008 103.880362 76.050008 C 104.329995 76.770122 96.30012 82.500304 96.860367 83.399678 C 97.270055 84.050136 105.360359 78.090502 105.360359 78.090502 C 105.520137 78.349661 96.89007 85.230181 97.23011 85.759767 C 97.23011 85.759767 106.110087 79.890275 106.250405 80.119728 C 106.580203 80.650338 96.239691 88.470182 96.510084 88.919869 C 97.330484 90.230005 106.779926 82.469573 106.790168 82.49006 " transform="matrix(3.813883,0,0,3.813416,0,0.118623)"/>
<path style="fill:none;stroke-width:0.9;stroke-linecap:round;stroke-linejoin:round;stroke:rgb(100%,100%,100%);stroke-opacity:1;stroke-miterlimit:4;" d="M 40.020323 48.000392 C 40.020323 48.000392 40.849941 47.349933 40.91037 47.440075 C 41.049663 47.660309 39.810359 51.230149 39.869763 51.320291 C 40.209804 51.870364 46.070384 47.429832 46.079602 47.440075 C 46.520016 48.149946 39.350484 53.029922 39.869763 53.869884 C 40.360364 54.659653 48.799927 48.290281 48.799927 48.290281 C 49.049836 48.689775 39.139495 55.230213 39.869763 56.410257 C 39.869763 56.410257 48.930002 50.720026 48.940245 50.739488 C 48.940245 50.739488 39.189682 58.340122 39.869763 59.430024 C 39.869763 59.430024 48.230461 52.620184 48.940245 53.760279 C 49.379634 54.47015 39.739687 61.309696 39.869763 61.510467 C 39.869763 61.510467 48.869573 55.719849 48.940245 55.839698 C 49.610084 56.910137 39.869763 65.370196 39.869763 65.370196 C 40.480198 66.350493 48.940245 59.700451 48.940245 59.700451 C 49.049836 59.870492 39.390429 66.899542 39.869763 67.659605 C 39.869763 67.659605 48.369755 61.080243 48.940245 61.98986 C 49.589599 63.02035 39.040146 68.639903 39.869763 69.969501 C 40.629734 71.180276 48.520315 63.629835 48.940245 64.299756 C 49.08978 64.540477 39.619854 72.039701 39.869763 72.450463 C 40.289693 73.120384 48.940245 66.779694 48.940245 66.779694 C 49.769862 68.100073 39.869763 74.699923 39.869763 74.699923 C 40.169859 75.18034 48.369755 68.119536 48.940245 69.030178 C 49.440063 69.840434 39.149738 76.419797 39.869763 77.580379 C 39.869763 77.580379 48.249921 70.810488 48.940245 71.909609 C 49.440063 72.709622 39.819577 81.020126 39.869763 81.100025 C 39.869763 81.100025 48.440426 74.630267 48.940245 75.43028 C 49.209614 75.860505 39.340242 83.899558 39.869763 84.760007 C 39.869763 84.760007 48.600204 78.550433 48.940245 79.090262 C 49.07032 79.290009 39.029904 86.240184 39.869763 87.59027 C 40.549845 88.680172 48.940245 81.919501 48.940245 81.919501 C 49.230098 82.380455 39.74993 90.099913 39.869763 90.290441 C 40.33988 91.030018 48.940245 84.619672 48.940245 84.619672 C 48.940245 84.619672 39.399647 91.779838 39.869763 92.529658 C 39.970137 92.69048 48.57972 86.290377 48.940245 86.859913 C 49.32023 87.460178 39.33 94.589614 39.869763 95.450063 C 39.869763 95.450063 48.690335 89.390043 48.940245 89.780318 C 49.049836 89.950359 39.239869 97.409633 39.869763 98.419637 C 40.619491 99.620168 48.940245 92.749892 48.940245 92.749892 C 49.020134 92.879983 39.390429 100.609684 39.869763 101.379991 C 40.570329 102.509843 48.589962 95.14993 48.940245 95.710246 C 48.990431 95.790145 39.819577 104.359809 39.869763 104.439707 C 39.949652 104.569799 48.940245 98.769962 48.940245 98.769962 C 49.49025 99.649874 39.590152 107.960378 39.810359 108.319923 L 48.940245 102.620472 C 49.049836 102.799732 38.080453 112.059804 38.080453 112.059804 C 38.540327 112.790161 48.890058 105.189527 48.940245 105.27967 " transform="matrix(3.813883,0,0,3.813416,0,0.118623)"/>
<path style="fill:none;stroke-width:0.9;stroke-linecap:round;stroke-linejoin:round;stroke:rgb(100%,100%,100%);stroke-opacity:1;stroke-miterlimit:4;" d="M 41.550506 130.829886 C 41.550506 130.829886 42.569604 129.979681 42.669977 130.130259 C 42.829755 130.380199 43.400245 132.360257 43.45965 132.459618 C 44.170458 133.599713 51.470065 126.590126 51.860292 127.209854 C 52.230035 127.799876 45.449707 133.630443 45.449707 133.630443 C 46.049899 134.590254 53.380233 127.640079 53.840107 128.379655 C 53.840107 128.379655 47.13045 134.529818 47.219557 134.680396 C 47.7204 135.480409 55.240214 128.839586 55.609957 129.439851 C 55.609957 129.439851 49.629544 135.569527 50.179549 136.429976 L 58.569949 131.190456 C 58.840343 131.629899 52.519889 137.689919 52.649965 137.889667 L 61.030123 132.650146 C 61.030123 132.650146 55.439937 139.409793 55.580255 139.619784 C 55.929513 140.169857 63.729963 134.019694 63.960412 134.380263 C 64.189837 134.739808 58.66008 141.440043 58.66008 141.440043 C 60.570248 144.49976 107.000133 105.949591 109.370175 109.749908 C 111.360232 112.930496 61.939629 143.180404 61.939629 143.180404 C 61.939629 143.180404 122.509877 93.419813 127.860396 101.9905 C 129.76954 105.039973 62.969993 138.389547 66.379617 143.850325 C 69.039513 148.109548 127.15983 104.800277 127.640189 105.569559 C 129.429499 108.429528 84.409964 128.389899 87.340254 133.08959 C 87.340254 133.08959 125.169773 106.390059 126.540178 108.59035 " transform="matrix(3.813883,0,0,3.813416,0,0.118623)"/>
<path style="fill:none;stroke-width:0.9;stroke-linecap:round;stroke-linejoin:round;stroke:rgb(100%,100%,100%);stroke-opacity:1;stroke-miterlimit:4;" d="M 18.849722 38.889875 C 19.430454 39.809736 68.140249 -1.26032 72.339546 5.469621 C 72.420459 5.599713 65.289848 11.539885 65.629889 12.089958 C 65.72002 12.239512 74.350088 6.640447 74.350088 6.640447 C 74.639941 7.100377 67.699835 12.850021 67.800209 13.009819 C 67.800209 13.009819 76.050291 7.419973 76.250013 7.730349 C 76.820503 8.65021 70.470347 14.149914 70.85955 14.769642 C 71.039812 15.059532 79.300137 9.490172 79.300137 9.490172 C 79.300137 9.490172 72.139823 14.870028 72.7605 15.869788 C 73.439557 16.95969 81.109931 10.449983 81.200063 10.599537 C 81.42027 10.960106 74.289659 16.589902 74.450461 16.850085 C 74.450461 16.850085 82.260129 10.559588 82.890023 11.579834 C 83.039559 11.819531 76.900392 17.99018 77.169762 18.420405 C 77.289595 18.620152 85.029616 12.230293 85.610348 13.150154 C 85.990334 13.759639 79.770253 19.77049 79.930031 20.010187 C 79.930031 20.010187 88.07974 14.280006 88.369594 14.739936 C 88.49967 14.949927 82.759948 21.639919 82.759948 21.639919 C 82.759948 21.639919 91.039732 16.129971 91.190292 16.369668 C 91.539551 16.940228 84.859596 22.849669 84.859596 22.849669 C 85.239581 23.449935 93.10046 17.270066 93.289941 17.580443 C 93.329885 17.650098 86.519855 23.430472 86.88038 24.020494 C 87.269583 24.650466 95.219569 18.620152 95.3097 18.750244 C 95.330184 18.77995 89.25964 25.230245 89.4102 25.480185 C 89.479847 25.600033 97.190166 19.180468 97.83952 20.209934 C 98.000323 20.470118 90.800065 25.980065 91.089919 26.450239 C 91.77 27.540141 99.260112 20.780494 99.520263 21.179988 C 100.099971 22.110093 93.189567 27.260495 93.569552 27.86998 C 93.949537 28.480489 101.3403 21.56002 101.989655 22.609973 C 102.279509 23.069903 95.330184 28.260255 95.949837 29.249772 C 96.569489 30.240312 103.880362 23.199995 104.369939 23.989764 C 104.47953 24.159805 98.009541 30.110221 98.330121 30.629563 C 98.649677 31.14993 106.750223 25.369556 106.750223 25.369556 C 106.949946 25.690175 100.280234 31.630347 100.400067 31.830095 C 100.400067 31.840338 108.560018 26.150106 108.82017 26.570087 C 108.82017 26.570087 103.040503 33.050088 103.339575 33.530506 L 111.759677 28.270498 C 111.820106 28.359616 106.559719 35.389691 106.559719 35.389691 C 106.960188 36.029906 114.780098 29.820331 114.969579 30.129683 C 115.109897 30.349917 108.979948 36.739776 109.019892 36.810456 C 109.299504 37.260143 117.259732 31.269778 117.429752 31.550449 C 118.050429 32.539965 110.449702 37.289849 110.7795 37.829678 C 111.079596 38.310096 118.640379 31.689759 119.190384 32.569671 C 119.190384 32.569671 112.659966 38.830463 112.729613 38.950311 C 112.729613 38.950311 120.439931 32.569671 121.140497 33.690304 L 115.420235 40.500144 C 115.80022 41.100409 123.089585 34.320275 123.710262 35.320035 C 124.050302 35.870108 116.719969 40.630235 117.330403 41.609508 C 117.57007 41.98954 124.739602 36.059612 125.159531 36.720314 C 125.530298 37.310336 118.420172 42.280454 118.940475 43.110173 C 119.249789 43.610053 126.389618 38.450431 126.389618 38.450431 C 126.529936 38.669641 118.460116 45.940436 119.010122 46.829566 C 119.560127 47.719721 127.350335 41.140359 127.5603 41.48966 C 127.850154 41.959834 119.010122 49.470326 119.010122 49.470326 C 119.629774 50.459842 127.590002 43.589566 127.820452 43.960378 L 119.010122 52.179716 C 119.480238 52.939779 127.359553 45.940436 127.820452 46.669769 C 128.519993 47.780158 119.010122 54.279622 119.010122 54.279622 C 119.010122 54.279622 127.510113 48.280038 127.820452 48.769674 C 128.41962 49.720266 118.649597 56.190023 119.010122 56.759559 C 119.700445 57.869948 127.709836 51.070351 127.820452 51.249611 C 128.519993 52.370244 118.73051 58.909657 119.010122 59.350125 C 119.010122 59.350125 127.690376 53.630187 127.820452 53.840178 C 127.820452 53.840178 118.40993 61.689727 119.010122 62.640319 C 119.010122 62.640319 127.510113 56.630491 127.820452 57.130371 C 128.030416 57.46021 118.590192 65.380439 119.010122 66.050361 C 119.719905 67.190456 127.770265 60.450271 127.820452 60.540413 C 127.820452 60.540413 118.770455 68.83965 119.010122 69.219681 C 119.730148 70.37002 127.489629 63.180148 127.820452 63.709734 C 128.559937 64.889779 118.399687 70.850437 119.010122 71.820491 C 119.719905 72.959562 127.770265 66.229621 127.820452 66.30952 C 128.230139 66.959978 119.010122 74.519638 119.010122 74.519638 C 119.119713 74.699923 127.669891 68.780238 127.820452 69.009691 C 127.930043 69.179732 118.590192 76.320435 119.010122 76.990356 C 119.230329 77.339658 127.359553 70.750052 127.820452 71.480409 C 128.240381 72.15033 118.73051 79.010363 119.010122 79.46005 C 119.650259 80.480297 127.57976 73.559828 127.820452 73.950103 C 128.100063 74.39979 118.770455 81.440107 119.010122 81.820139 C 119.660501 82.849605 127.40974 75.64949 127.820452 76.310192 C 127.820452 76.310192 118.540005 84.799956 119.010122 85.56002 C 119.400349 86.189991 127.380038 79.350445 127.820452 80.050072 C 127.820452 80.050072 118.56049 88.249948 119.010122 88.959818 C 119.010122 88.959818 127.820452 83.449871 127.820452 83.449871 C 128.030416 83.789953 118.430414 90.330391 119.010122 91.250252 C 119.209845 91.569847 127.510113 85.240424 127.820452 85.740304 C 128.370457 86.620216 118.850344 93.470006 119.010122 93.719946 C 119.480238 94.480009 127.310391 87.389498 127.820452 88.209998 C 127.820452 88.209998 118.630137 96.909753 119.010122 97.510019 C 119.369623 98.079554 127.510113 91.510435 127.820452 92.000072 C 128.559937 93.19036 119.010122 100.770506 119.010122 100.770506 C 119.010122 100.770506 127.23972 94.330455 127.820452 95.259535 C 127.820452 95.259535 118.959935 102.860169 119.010122 102.940067 C 119.669719 103.99002 127.820452 97.43012 127.820452 97.43012 " transform="matrix(3.813883,0,0,3.813416,0,0.118623)"/>
<path style="fill:none;stroke-width:0.9;stroke-linecap:round;stroke-linejoin:round;stroke:rgb(100%,100%,100%);stroke-opacity:1;stroke-miterlimit:4;" d="M 6.589823 35.700067 C 6.780328 36.0002 13.859728 31.160173 13.859728 31.160173 C 14.340087 31.93048 3.530482 38.299852 4.12965 39.259663 C 6.209838 42.589806 55.179785 3.629899 56.859504 6.309584 C 58.330282 8.669673 1.440052 38.799732 3.36968 41.890179 L 65.350277 3.159725 C 68.66977 8.480169 3.239604 45.26949 3.239604 45.26949 C 3.239604 45.26949 67.760264 1.290297 69.41028 3.930032 C 74.579512 12.209806 3.239604 48.139703 3.239604 48.139703 C 7.929502 55.650194 70.019691 2.170209 71.929859 5.229925 C 73.380152 7.560308 1.479996 48.280038 3.239604 51.100057 C 3.239604 51.100057 11.52963 44.819803 12.020231 45.609572 C 12.509808 46.400366 2.689598 53.189719 3.239604 54.060412 C 3.239604 54.060412 11.989505 48.509491 12.020231 48.569927 C 12.740257 49.720266 2.649654 55.990276 3.239604 56.9296 C 3.610371 57.519622 11.850211 51.160494 12.020231 51.440139 L 3.239604 59.910442 C 3.300033 60.009803 11.539873 53.640431 12.020231 54.419957 C 12.679828 55.469909 3.090068 63.180148 3.239604 63.409601 C 3.619589 64.030354 11.699651 57.399774 12.020231 57.920141 C 12.700312 59.010043 2.989695 65.550481 3.239604 65.929488 C 3.239604 65.929488 12.020231 60.440027 12.020231 60.440027 C 12.329545 60.939907 3.239604 69.04964 3.239604 69.04964 C 3.850038 70.019694 11.810266 63.220098 12.020231 63.56018 C 12.639884 64.540477 2.670138 71.300124 3.239604 72.209742 C 3.900225 73.269938 11.409797 65.739984 12.020231 66.720282 C 12.589697 67.629899 2.689598 74.909913 3.239604 75.779582 C 3.470053 76.150394 12.020231 70.290121 12.020231 70.290121 C 12.549752 71.130083 2.399745 77.320195 3.239604 78.649794 C 3.440351 78.979633 11.630004 72.530362 12.020231 73.160333 C 12.10012 73.290425 2.609709 81.53025 3.239604 82.540253 C 3.990356 83.73976 11.600302 76.369604 12.020231 77.049768 C 12.440161 77.729933 2.689598 85.219938 3.239604 86.099849 C 3.659534 86.76977 11.329908 79.5 12.020231 80.610389 C 12.200494 80.900278 2.880103 88.430232 3.239604 88.999768 C 3.95963 90.150106 11.34015 82.420405 12.020231 83.510307 C 12.580479 84.409681 3.230386 91.410049 3.239604 91.420293 C 3.969872 92.57985 11.709893 85.429928 12.020231 85.929808 C 12.780202 87.139558 3.239604 94.379623 3.239604 94.379623 C 3.799852 95.269778 11.459984 87.979521 12.020231 88.890163 C 12.700312 89.980065 3.109528 96.779662 3.239604 96.97019 C 3.669776 97.659573 11.60952 90.820027 12.020231 91.479705 C 12.110362 91.62004 3.190441 100.369988 3.239604 100.449887 C 3.239604 100.449887 11.35961 93.90023 12.020231 94.960426 C 12.780202 96.170177 3.239604 103.819979 3.260088 103.849685 C 3.669776 104.500144 11.970045 98.299788 12.020231 98.379687 C 12.020231 98.379687 3.400406 105.869692 3.730205 106.400302 C 3.730205 106.400302 11.860453 100.949767 12.020231 101.220194 C 12.020231 101.220194 4.880402 108.909945 4.960291 109.029794 C 5.529757 109.940436 11.989505 103.830223 12.35003 104.410001 C 12.889793 105.27967 6.079762 110.409585 6.249783 110.669769 C 6.249783 110.669769 13.790081 104.890419 14.27044 105.659701 C 14.699587 106.339866 7.639648 111.83957 7.700077 111.939955 C 8.300269 112.910009 15.939916 106.480201 16.080234 106.709654 C 16.080234 106.709654 10.679529 113.550224 10.859791 113.850357 C 11.199832 114.40043 19.300378 108.569863 19.300378 108.569863 L 13.089516 115.129763 C 13.689708 116.089574 21.09993 109.159885 21.530102 109.859512 C 22.120052 110.79986 15.650062 116.609941 15.650062 116.609941 C 15.650062 116.609941 24.04968 111.280278 24.089625 111.33969 C 24.179756 111.480025 18.009863 117.420197 18.549626 118.279622 C 19.170302 119.280406 26.400263 112.080291 26.97997 113.010395 C 27.320011 113.560468 20.239587 119.249676 20.239587 119.249676 C 20.570409 119.770042 28.359593 112.939715 28.919841 113.82987 C 29.240421 114.339994 22.519498 120.530106 22.519498 120.530106 C 22.730487 120.859945 31.550034 113.409889 32.209631 114.470086 C 32.370434 114.730269 25.340196 121.760343 25.380141 121.829998 C 26.350076 123.379831 48.279623 106.049976 48.940245 107.110173 C 49.299745 107.689951 28.220299 122.340122 28.629987 122.989556 C 28.629987 122.989556 48.629906 110.079746 48.810169 110.379879 C 48.810169 110.379879 30.269761 121.800293 31.350312 123.520166 C 32.429838 125.24004 48.409699 112.859817 48.409699 112.859817 C 48.699553 113.32999 36.930255 123.419781 36.930255 123.430024 C 37.690226 124.650018 46.690036 117.330055 46.700278 117.330055 " transform="matrix(3.813883,0,0,3.813416,0,0.118623)"/>
<path style="fill:none;stroke-width:6;stroke-linecap:round;stroke-linejoin:round;stroke:rgb(11.372549%,11.372549%,10.588235%);stroke-opacity:1;stroke-miterlimit:4;" d="M 81.489916 102.950311 C 58.859803 102.950311 54.129961 92.560388 54.129961 83.850389 C 54.129961 83.019646 54.789558 82.359969 55.620199 82.359969 L 62.300154 82.359969 C 63.03964 82.359969 63.669534 82.899798 63.78015 83.619912 C 64.79003 90.419509 67.789966 93.860281 81.479674 93.860281 C 92.370192 93.860281 96.999661 91.389562 96.999661 85.620456 C 96.999661 82.290313 95.689685 79.819595 78.769591 78.160157 C 64.630252 76.759879 55.880351 73.630507 55.880351 62.319699 C 55.880351 51.889827 64.670196 45.670009 79.409728 45.670009 C 95.970321 45.670009 104.159974 51.410434 105.199556 63.749683 C 105.230283 64.169665 105.089965 64.580427 104.810353 64.889779 C 104.529717 65.200155 104.130272 65.380439 103.710342 65.380439 L 96.999661 65.380439 C 96.30012 65.380439 95.699927 64.889779 95.550391 64.209614 C 93.94032 57.050473 90.01961 54.760039 79.409728 54.760039 C 67.519573 54.760039 66.13995 58.900438 66.13995 62.000104 C 66.13995 65.760471 67.770506 66.859592 83.820014 68.979985 C 99.709744 71.07989 107.260284 74.050489 107.260284 85.209694 C 107.260284 96.369924 97.870247 102.919581 81.500159 102.919581 L 81.510401 102.919581 Z M 65.520298 144.050072 C 63.620372 144.050072 61.750148 143.550192 60.100132 142.599601 L 42.839998 132.389963 C 40.270233 130.949735 41.530022 130.439611 42.380123 130.140503 C 45.810232 128.950215 46.509773 128.669545 50.179549 126.590126 C 50.569777 126.380135 51.069595 126.460034 51.470065 126.690512 L 64.729601 134.559524 C 65.230444 134.82995 65.829612 134.82995 66.339673 134.559524 L 118.029945 104.729597 C 118.519521 104.430488 118.819617 103.899878 118.819617 103.330343 L 118.819617 43.679708 C 118.819617 43.099929 118.519521 42.5601 118.019702 42.249723 L 66.349915 12.440284 C 65.860338 12.159613 65.249904 12.159613 64.760327 12.440284 L 13.089516 42.259967 C 12.589697 42.5601 12.280383 43.089686 12.270141 43.679708 L 12.270141 103.339562 C 12.270141 103.910121 12.580479 104.449951 13.080298 104.720378 L 27.240122 112.899766 C 34.929956 116.740032 39.630096 112.219601 39.630096 107.670489 L 39.630096 48.769674 C 39.630096 47.939955 40.299935 47.280278 41.129552 47.280278 L 47.689673 47.280278 C 48.510073 47.280278 49.179912 47.929712 49.179912 48.769674 L 49.179912 107.670489 C 49.179912 117.920077 43.599968 123.810056 33.880132 123.810056 C 30.890437 123.810056 28.539855 123.810056 21.969492 120.570055 L 8.420102 112.769674 C 5.069883 110.810104 2.999937 107.219777 2.999937 103.339562 L 2.999937 43.689951 C 2.999937 39.809736 5.080125 36.199947 8.420102 34.270082 L 60.119592 4.389963 C 63.499514 2.539997 67.600486 2.539997 70.980408 4.389963 L 122.669655 34.259839 C 126.019875 36.199947 128.100063 39.809736 128.100063 43.679708 L 128.100063 103.330343 C 128.100063 107.209534 126.019875 110.810104 122.669655 112.760455 L 70.980408 142.599601 C 69.320149 143.550192 67.449926 144.050072 65.539758 144.050072 Z M 65.520298 144.050072 " transform="matrix(3.813883,0,0,3.813416,0,0.118623)"/>
</g>
</defs>
<g id="surface1">
<path style=" stroke:none;fill-rule:nonzero;fill:rgb(84.705882%,64.313725%,32.156863%);fill-opacity:1;" d="M 310.792969 391.375 C 224.484375 391.375 206.445312 351.753906 206.445312 318.539062 C 206.445312 315.375 208.960938 312.855469 212.128906 312.855469 L 237.605469 312.855469 C 240.425781 312.855469 242.828125 314.917969 243.25 317.660156 C 247.101562 343.59375 258.542969 356.710938 310.753906 356.710938 C 352.289062 356.710938 369.945312 347.292969 369.945312 325.289062 C 369.945312 312.589844 364.949219 303.171875 300.417969 296.839844 C 246.492188 291.5 213.121094 279.566406 213.121094 236.4375 C 213.121094 196.660156 246.644531 172.941406 302.859375 172.941406 C 366.019531 172.941406 397.253906 194.832031 401.21875 241.890625 C 401.335938 243.492188 400.800781 245.054688 399.734375 246.238281 C 398.664062 247.417969 397.140625 248.105469 395.539062 248.105469 L 369.945312 248.105469 C 367.277344 248.105469 364.988281 246.238281 364.417969 243.644531 C 358.277344 216.339844 343.324219 207.605469 302.859375 207.605469 C 257.511719 207.605469 252.25 223.394531 252.25 235.214844 C 252.25 249.554688 258.46875 253.75 319.679688 261.832031 C 380.28125 269.839844 409.078125 281.167969 409.078125 323.726562 C 409.078125 366.28125 373.265625 391.261719 310.832031 391.261719 L 310.871094 391.261719 Z M 249.886719 548.105469 C 242.640625 548.105469 235.507812 546.199219 229.214844 542.578125 L 163.386719 503.640625 C 153.585938 498.152344 158.390625 496.207031 161.632812 495.0625 C 174.714844 490.523438 177.382812 489.457031 191.378906 481.523438 C 192.867188 480.722656 194.773438 481.027344 196.300781 481.90625 L 246.871094 511.917969 C 248.78125 512.945312 251.066406 512.945312 253.011719 511.917969 L 450.152344 398.164062 C 452.019531 397.019531 453.164062 394.996094 453.164062 392.824219 L 453.164062 165.355469 C 453.164062 163.140625 452.019531 161.082031 450.113281 159.902344 L 253.050781 46.222656 C 251.183594 45.15625 248.855469 45.15625 246.988281 46.222656 L 49.921875 159.9375 C 48.015625 161.082031 46.835938 163.105469 46.796875 165.355469 L 46.796875 392.863281 C 46.796875 395.035156 47.980469 397.09375 49.886719 398.125 L 103.890625 429.320312 C 133.21875 443.960938 151.144531 426.726562 151.144531 409.375 L 151.144531 184.765625 C 151.144531 181.597656 153.699219 179.082031 156.863281 179.082031 L 181.882812 179.082031 C 185.011719 179.082031 187.566406 181.5625 187.566406 184.765625 L 187.566406 409.375 C 187.566406 448.460938 166.285156 470.921875 129.214844 470.921875 C 117.8125 470.921875 108.847656 470.921875 83.789062 458.566406 L 32.113281 428.824219 C 19.335938 421.347656 11.441406 407.660156 11.441406 392.863281 L 11.441406 165.390625 C 11.441406 150.597656 19.375 136.828125 32.113281 129.46875 L 229.289062 15.488281 C 242.179688 8.433594 257.820312 8.433594 270.710938 15.488281 L 467.847656 129.394531 C 480.625 136.792969 488.558594 150.558594 488.558594 165.316406 L 488.558594 392.785156 C 488.558594 407.582031 480.625 421.308594 467.847656 428.746094 L 270.710938 542.539062 C 264.378906 546.160156 257.246094 548.066406 249.960938 548.066406 L 249.886719 548.066406 Z M 249.886719 548.105469 "/>
<use xlink:href="#surface5" mask="url(#mask0)"/>
</g>
</svg>
