<?xml version="1.0" encoding="UTF-8"?>
<svg xmlns="http://www.w3.org/2000/svg" xmlns:xlink="http://www.w3.org/1999/xlink" width="500px" height="500px" viewBox="0 0 500 1061" version="1.1">
<g id="surface1">
<path style="fill-rule:nonzero;fill:rgb(40%,49.803922%,42.352941%);fill-opacity:1;stroke-width:6;stroke-linecap:round;stroke-linejoin:round;stroke:rgb(13.333333%,13.333333%,12.54902%);stroke-opacity:1;stroke-miterlimit:4;" d="M 59.829835 3.00008 C 59.809786 3.199703 59.789737 3.329601 59.78019 3.519673 L 59.78019 3.660078 L 59.769689 3.660078 C 59.74964 3.819586 59.740093 3.919875 59.729591 4.069831 L 59.729591 4.230294 L 59.709542 4.230294 C 59.709542 4.340134 59.690448 4.420366 59.690448 4.499642 L 59.690448 4.769945 L 59.659897 4.769945 C 59.65035 4.850176 59.65035 4.960017 59.630301 5.029742 L 59.630301 5.250378 L 59.610252 5.250378 C 59.610252 5.320103 59.610252 5.409886 59.590204 5.470059 L 59.590204 5.680189 L 59.570155 5.680189 C 59.570155 5.79003 59.559653 5.910377 59.550106 6.020217 L 59.550106 6.040275 C 59.519555 6.21984 59.489959 6.400361 59.449862 6.570375 L 59.449862 6.649651 L 59.429813 6.649651 C 59.429813 6.649651 59.400217 6.729883 59.400217 6.77955 L 59.400217 6.96007 L 59.369666 6.96007 L 59.369666 7.190258 L 59.320021 7.190258 L 59.320021 7.38033 L 59.270377 7.38033 L 59.270377 7.600011 L 59.230279 7.600011 L 59.230279 7.799634 L 59.179679 7.799634 L 59.179679 7.980155 L 59.119533 7.980155 L 59.119533 8.130111 L 59.08039 8.130111 L 59.08039 8.320183 L 59.040292 8.320183 L 59.040292 8.470139 L 58.980145 8.470139 L 58.980145 8.609589 L 58.949595 8.609589 L 58.949595 8.770051 L 58.910452 8.770051 C 58.910452 8.770051 58.89995 8.799661 58.89995 8.810167 L 58.89995 8.920008 L 58.870354 8.920008 C 58.870354 8.920008 58.859852 8.960123 58.859852 8.980181 L 58.859852 9.040355 L 58.839803 9.040355 C 58.839803 9.040355 58.819755 9.119631 58.819755 9.150195 C 58.790159 9.21992 58.750061 9.300151 58.709963 9.369876 L 58.709963 9.389934 C 58.709963 9.389934 58.669866 9.439601 58.660319 9.459659 L 58.660319 9.53989 L 58.620221 9.53989 L 58.620221 9.620122 L 58.569621 9.620122 L 58.569621 9.700353 L 58.540025 9.700353 L 58.540025 9.810194 L 58.470332 9.810194 L 58.470332 9.96015 L 58.430234 9.96015 L 58.430234 10.000265 L 58.390136 10.000265 L 58.390136 10.079542 L 58.350039 10.079542 L 58.350039 10.199889 L 58.309941 10.199889 L 58.309941 10.28012 L 58.249794 10.28012 L 58.249794 10.400467 L 58.209697 10.400467 L 58.209697 10.479743 L 58.160052 10.479743 L 58.160052 10.559975 L 58.130456 10.559975 L 58.130456 10.669815 L 58.070309 10.669815 L 58.070309 10.750047 L 58.030212 10.750047 L 58.030212 10.81022 L 57.990114 10.81022 L 57.990114 10.890451 L 57.929967 10.890451 L 57.929967 10.989786 L 57.88987 10.989786 L 57.88987 11.049959 L 57.840225 11.049959 L 57.840225 11.13019 L 57.800127 11.13019 L 57.800127 11.249582 L 57.749528 11.249582 L 57.749528 11.289698 L 57.719932 11.289698 L 57.719932 11.369929 L 57.659785 11.369929 L 57.659785 11.410045 L 57.619687 11.410045 L 57.619687 11.519886 L 57.570043 11.519886 L 57.570043 11.560001 L 57.529945 11.560001 L 57.529945 11.640233 L 57.4803 11.640233 L 57.4803 11.700406 L 57.44975 11.700406 L 57.429701 11.739567 L 57.429701 11.779682 L 57.409652 11.779682 C 57.409652 11.779682 57.389603 11.79974 57.389603 11.819798 C 57.389603 11.819798 57.380056 11.830304 57.380056 11.830304 C 57.369554 11.859914 57.360007 11.879972 57.339958 11.900029 L 57.339958 11.929639 L 57.330411 11.929639 C 57.279812 11.989812 57.250216 12.059537 57.199616 12.11971 C 57.199616 12.11971 57.129923 12.19039 57.100327 12.240057 L 57.100327 12.260115 L 57.089825 12.260115 C 57.089825 12.260115 57.060229 12.280173 57.060229 12.289725 L 57.060229 12.320289 L 57.04018 12.320289 L 57.009629 12.349898 C 57.009629 12.349898 57.000082 12.360405 57.000082 12.360405 C 57.000082 12.369956 56.980033 12.380462 56.969532 12.399565 L 56.969532 12.439681 L 56.939936 12.439681 L 56.919887 12.459739 L 56.919887 12.479796 L 56.899838 12.479796 C 56.899838 12.479796 56.879789 12.499854 56.879789 12.510361 L 56.879789 12.53997 L 56.839691 12.53997 C 56.839691 12.53997 56.830144 12.560028 56.819643 12.569579 L 56.819643 12.629753 L 56.790047 12.629753 L 56.790047 12.669868 L 56.749949 12.669868 L 56.749949 12.730042 L 56.709851 12.730042 L 56.709851 12.810273 L 56.660206 12.810273 L 56.660206 12.730042 L 56.609607 12.730042 L 56.609607 12.770158 L 56.550415 12.770158 L 56.550415 12.830331 L 56.499816 12.830331 L 56.499816 12.909607 L 56.450171 12.909607 L 56.450171 12.949723 L 56.410073 12.949723 L 56.410073 13.009896 L 56.369975 13.009896 L 56.369975 13.050012 L 56.329878 13.050012 L 56.329878 13.130243 L 56.269731 13.130243 L 56.269731 13.170359 L 56.229633 13.170359 L 56.229633 13.229578 L 56.179989 13.229578 L 56.179989 13.269693 L 56.139891 13.269693 L 56.139891 13.320315 L 56.090246 13.320315 L 56.090246 13.430156 L 56.070197 13.430156 L 56.070197 13.470272 L 56.010051 13.470272 L 56.010051 13.519939 L 55.969953 13.519939 L 55.969953 13.539996 L 55.929855 13.539996 L 55.929855 13.580112 L 55.880211 13.580112 L 55.880211 13.689953 L 55.840113 13.689953 L 55.840113 13.730068 L 55.790468 13.730068 L 55.790468 13.770184 L 55.75037 13.770184 L 55.75037 13.830358 L 55.699771 13.830358 L 55.699771 13.870473 L 55.650126 13.870473 L 55.650126 13.909634 L 55.610028 13.909634 L 55.610028 13.949749 L 55.549882 13.949749 L 55.549882 14.05959 L 55.509784 14.05959 L 55.509784 14.110212 L 55.449637 14.110212 L 55.449637 14.150328 L 55.40954 14.150328 L 55.40954 14.190444 L 55.350348 14.190444 L 55.350348 14.249662 L 55.31025 14.249662 L 55.31025 14.289778 L 55.259651 14.289778 L 55.259651 14.360458 L 55.219553 14.360458 L 55.219553 14.399618 L 55.160361 14.399618 L 55.160361 14.459792 L 55.140312 14.459792 L 55.140312 14.499907 L 55.100215 14.499907 L 55.100215 14.540023 L 55.049615 14.540023 L 55.049615 14.580139 L 55.010472 14.580139 L 55.010472 14.640312 L 54.959873 14.640312 L 54.959873 14.680428 L 54.930277 14.680428 C 54.930277 14.680428 54.919775 14.699531 54.919775 14.699531 L 54.919775 14.719588 L 54.899726 14.719588 L 54.850081 14.759704 C 54.850081 14.759704 54.830032 14.779762 54.809984 14.790268 L 54.809984 14.850442 L 54.769886 14.850442 L 54.769886 14.900109 L 54.729788 14.900109 L 54.729788 14.940225 L 54.68969 14.940225 L 54.68969 14.98034 L 54.660094 14.98034 L 54.629544 15.00995 L 54.629544 15.039559 L 54.61045 15.039559 L 54.590401 15.059617 L 54.590401 15.090181 L 54.570352 15.090181 C 54.519752 15.150354 54.499704 15.200021 54.420463 15.260195 C 54.400414 15.280253 54.340267 15.32992 54.289668 15.370035 C 54.159828 15.450267 53.98989 15.589717 53.869597 15.710064 C 53.790356 15.759731 53.699659 15.839962 53.640467 15.889629 C 53.640467 15.889629 53.629965 15.900136 53.629965 15.900136 C 53.460027 16.039585 53.290089 16.159932 53.100103 16.309889 C 52.849969 16.52957 52.590289 16.730148 52.300058 16.980393 C 52.300058 16.980393 52.280009 16.969887 52.280009 16.969887 C 51.669951 17.470378 51.010248 18.030087 50.27035 18.64997 C 50.27035 18.64997 50.259848 18.660476 50.259848 18.660476 C 48.429674 20.220212 46.270126 22.229816 43.840395 24.65968 L 43.639907 24.860259 C 28.710192 39.899817 5.579541 70.85957 3.140264 120.889551 C 2.930228 125.030062 2.970326 129.050226 3.20041 132.970101 L 3.20041 133.07039 C 4.369927 152.779605 10.699637 169.619593 18.61989 183.290443 C 21.770424 188.749996 25.170137 193.700462 28.62045 198.13993 C 40.510376 213.509965 52.650435 222.620045 55.759917 224.819721 C 60.520089 235.62039 60.079968 254.170071 60.079968 254.170071 L 67.010189 256.440427 C 67.010189 256.440427 65.589585 238.480065 67.58015 229.810303 C 68.190208 227.099629 69.649955 224.779606 71.350289 222.819668 C 72.49021 222.029771 75.880376 219.640023 79.959841 216.009554 C 80.149828 215.809931 80.270121 215.630366 80.440059 215.440294 C 96.860071 200.47046 127.530047 163.589825 117.010126 103.520417 C 103.379768 44.810167 71.220449 25.520257 67.770137 18.130376 C 63.959899 12.920114 59.849884 3.009631 59.849884 3.009631 Z M 59.829835 3.00008 " transform="matrix(4.091568,0,0,4.089735,0.12796,0)"/>
<path style=" stroke:none;fill-rule:nonzero;fill:rgb(46.666667%,58.431373%,50.980392%);fill-opacity:1;" d="M 244.925781 12.269531 C 244.84375 13.085938 244.761719 13.617188 244.722656 14.394531 L 244.722656 14.96875 L 244.679688 14.96875 C 244.597656 15.621094 244.558594 16.03125 244.515625 16.644531 L 244.515625 17.300781 L 244.433594 17.300781 C 244.433594 17.75 244.355469 18.078125 244.355469 18.402344 L 244.355469 19.507812 L 244.230469 19.507812 C 244.191406 19.835938 244.191406 20.285156 244.109375 20.570312 L 244.109375 21.472656 L 244.027344 21.472656 C 244.027344 21.757812 244.027344 22.125 243.945312 22.371094 L 243.945312 23.230469 L 243.863281 23.230469 C 243.863281 23.679688 243.820312 24.171875 243.78125 24.621094 L 243.78125 24.703125 C 243.65625 25.4375 243.535156 26.175781 243.371094 26.871094 L 243.371094 27.195312 L 243.289062 27.195312 C 243.289062 27.195312 243.167969 27.523438 243.167969 27.726562 L 243.167969 28.464844 L 243.042969 28.464844 L 243.042969 29.40625 L 242.839844 29.40625 L 242.839844 30.183594 L 242.636719 30.183594 L 242.636719 31.082031 L 242.472656 31.082031 L 242.472656 31.898438 L 242.265625 31.898438 L 242.265625 32.636719 L 242.019531 32.636719 L 242.019531 33.25 L 241.859375 33.25 L 241.859375 34.027344 L 241.695312 34.027344 L 241.695312 34.640625 L 241.449219 34.640625 L 241.449219 35.210938 L 241.324219 35.210938 L 241.324219 35.867188 L 241.164062 35.867188 C 241.164062 35.867188 241.121094 35.988281 241.121094 36.03125 L 241.121094 36.480469 L 241 36.480469 C 241 36.480469 240.957031 36.644531 240.957031 36.726562 L 240.957031 36.972656 L 240.875 36.972656 C 240.875 36.972656 240.792969 37.296875 240.792969 37.421875 C 240.671875 37.707031 240.507812 38.035156 240.34375 38.320312 L 240.34375 38.402344 C 240.34375 38.402344 240.179688 38.605469 240.140625 38.6875 L 240.140625 39.015625 L 239.976562 39.015625 L 239.976562 39.34375 L 239.769531 39.34375 L 239.769531 39.671875 L 239.648438 39.671875 L 239.648438 40.121094 L 239.363281 40.121094 L 239.363281 40.734375 L 239.199219 40.734375 L 239.199219 40.898438 L 239.035156 40.898438 L 239.035156 41.222656 L 238.871094 41.222656 L 238.871094 41.714844 L 238.707031 41.714844 L 238.707031 42.042969 L 238.460938 42.042969 L 238.460938 42.535156 L 238.296875 42.535156 L 238.296875 42.859375 L 238.09375 42.859375 L 238.09375 43.1875 L 237.972656 43.1875 L 237.972656 43.636719 L 237.726562 43.636719 L 237.726562 43.964844 L 237.5625 43.964844 L 237.5625 44.210938 L 237.398438 44.210938 L 237.398438 44.539062 L 237.152344 44.539062 L 237.152344 44.945312 L 236.988281 44.945312 L 236.988281 45.191406 L 236.785156 45.191406 L 236.785156 45.519531 L 236.621094 45.519531 L 236.621094 46.007812 L 236.414062 46.007812 L 236.414062 46.171875 L 236.292969 46.171875 L 236.292969 46.5 L 236.046875 46.5 L 236.046875 46.664062 L 235.882812 46.664062 L 235.882812 47.113281 L 235.679688 47.113281 L 235.679688 47.277344 L 235.515625 47.277344 L 235.515625 47.605469 L 235.3125 47.605469 L 235.3125 47.851562 L 235.1875 47.851562 L 235.105469 48.011719 L 235.105469 48.175781 L 235.023438 48.175781 C 235.023438 48.175781 234.941406 48.257812 234.941406 48.339844 C 234.941406 48.339844 234.902344 48.382812 234.902344 48.382812 C 234.859375 48.503906 234.820312 48.585938 234.738281 48.667969 L 234.738281 48.789062 L 234.699219 48.789062 C 234.492188 49.035156 234.371094 49.320312 234.164062 49.566406 C 234.164062 49.566406 233.878906 49.855469 233.757812 50.058594 L 233.757812 50.140625 L 233.714844 50.140625 C 233.714844 50.140625 233.59375 50.222656 233.59375 50.261719 L 233.59375 50.386719 L 233.511719 50.386719 L 233.386719 50.507812 C 233.386719 50.507812 233.347656 50.550781 233.347656 50.550781 C 233.347656 50.589844 233.265625 50.632812 233.222656 50.710938 L 233.222656 50.875 L 233.101562 50.875 L 233.019531 50.957031 L 233.019531 51.039062 L 232.9375 51.039062 C 232.9375 51.039062 232.855469 51.121094 232.855469 51.164062 L 232.855469 51.285156 L 232.691406 51.285156 C 232.691406 51.285156 232.652344 51.367188 232.609375 51.40625 L 232.609375 51.652344 L 232.488281 51.652344 L 232.488281 51.816406 L 232.324219 51.816406 L 232.324219 52.0625 L 232.160156 52.0625 L 232.160156 52.390625 L 231.957031 52.390625 L 231.957031 52.0625 L 231.75 52.0625 L 231.75 52.226562 L 231.507812 52.226562 L 231.507812 52.472656 L 231.300781 52.472656 L 231.300781 52.796875 L 231.097656 52.796875 L 231.097656 52.960938 L 230.933594 52.960938 L 230.933594 53.207031 L 230.769531 53.207031 L 230.769531 53.371094 L 230.605469 53.371094 L 230.605469 53.699219 L 230.359375 53.699219 L 230.359375 53.863281 L 230.195312 53.863281 L 230.195312 54.105469 L 229.992188 54.105469 L 229.992188 54.269531 L 229.828125 54.269531 L 229.828125 54.476562 L 229.625 54.476562 L 229.625 54.925781 L 229.542969 54.925781 L 229.542969 55.089844 L 229.296875 55.089844 L 229.296875 55.292969 L 229.132812 55.292969 L 229.132812 55.375 L 228.96875 55.375 L 228.96875 55.539062 L 228.765625 55.539062 L 228.765625 55.988281 L 228.601562 55.988281 L 228.601562 56.152344 L 228.398438 56.152344 L 228.398438 56.316406 L 228.234375 56.316406 L 228.234375 56.5625 L 228.027344 56.5625 L 228.027344 56.726562 L 227.824219 56.726562 L 227.824219 56.886719 L 227.660156 56.886719 L 227.660156 57.050781 L 227.414062 57.050781 L 227.414062 57.5 L 227.25 57.5 L 227.25 57.707031 L 227.003906 57.707031 L 227.003906 57.871094 L 226.839844 57.871094 L 226.839844 58.035156 L 226.597656 58.035156 L 226.597656 58.277344 L 226.433594 58.277344 L 226.433594 58.441406 L 226.226562 58.441406 L 226.226562 58.730469 L 226.0625 58.730469 L 226.0625 58.890625 L 225.820312 58.890625 L 225.820312 59.136719 L 225.738281 59.136719 L 225.738281 59.300781 L 225.574219 59.300781 L 225.574219 59.464844 L 225.367188 59.464844 L 225.367188 59.628906 L 225.207031 59.628906 L 225.207031 59.875 L 225 59.875 L 225 60.039062 L 224.878906 60.039062 C 224.878906 60.039062 224.835938 60.117188 224.835938 60.117188 L 224.835938 60.199219 L 224.753906 60.199219 L 224.550781 60.363281 C 224.550781 60.363281 224.46875 60.445312 224.386719 60.488281 L 224.386719 60.734375 L 224.222656 60.734375 L 224.222656 60.9375 L 224.058594 60.9375 L 224.058594 61.101562 L 223.894531 61.101562 L 223.894531 61.265625 L 223.773438 61.265625 L 223.648438 61.386719 L 223.648438 61.507812 L 223.570312 61.507812 L 223.488281 61.589844 L 223.488281 61.714844 L 223.40625 61.714844 C 223.199219 61.960938 223.117188 62.164062 222.792969 62.410156 C 222.710938 62.492188 222.464844 62.695312 222.257812 62.859375 C 221.726562 63.1875 221.03125 63.757812 220.539062 64.25 C 220.214844 64.453125 219.84375 64.78125 219.601562 64.984375 C 219.601562 64.984375 219.558594 65.027344 219.558594 65.027344 C 218.863281 65.597656 218.167969 66.089844 217.390625 66.703125 C 216.367188 67.601562 215.304688 68.421875 214.117188 69.445312 C 214.117188 69.445312 214.035156 69.402344 214.035156 69.402344 C 211.539062 71.449219 208.839844 73.738281 205.8125 76.273438 C 205.8125 76.273438 205.769531 76.316406 205.769531 76.316406 C 198.28125 82.695312 189.445312 90.914062 179.503906 100.851562 L 178.683594 101.671875 C 117.597656 163.179688 22.957031 289.796875 12.976562 494.40625 C 12.117188 511.339844 12.28125 527.78125 13.222656 543.8125 L 13.222656 544.222656 C 18.007812 624.828125 43.90625 693.699219 76.3125 749.609375 C 89.203125 771.9375 103.113281 792.183594 117.230469 810.339844 C 165.878906 873.199219 215.550781 910.457031 228.273438 919.453125 C 247.75 963.625 245.949219 1039.488281 245.949219 1039.488281 L 274.304688 1048.773438 C 274.304688 1048.773438 268.492188 975.320312 276.636719 939.863281 C 279.132812 928.777344 285.105469 919.289062 292.0625 911.273438 C 296.726562 908.042969 310.597656 898.269531 327.289062 883.421875 C 328.066406 882.605469 328.558594 881.871094 329.253906 881.09375 C 396.4375 819.871094 521.925781 669.039062 478.882812 423.371094 C 423.113281 183.261719 291.53125 104.371094 277.414062 74.148438 C 261.824219 52.839844 245.007812 12.308594 245.007812 12.308594 Z M 244.925781 12.269531 "/>
<path style="fill:none;stroke-width:0.9;stroke-linecap:round;stroke-linejoin:round;stroke:rgb(100%,100%,100%);stroke-opacity:1;stroke-miterlimit:4;" d="M 59.570155 6.910403 C 59.570155 6.910403 60.799818 5.969595 60.880013 6.089942 C 61.159742 6.539811 58.470332 9.969701 58.510429 10.040381 C 58.609719 10.199889 61.720156 7.940039 61.760253 8.009764 C 62.259565 8.810167 54.570352 13.510387 55.169908 14.470298 C 55.339846 14.739646 62.129725 9.000239 62.629992 9.810194 C 63.470134 11.1598 44.969814 21.079834 45.950299 22.639569 C 47.079718 24.449551 63.55033 11.640233 63.55033 11.640233 C 63.55033 11.640233 39.169967 27.650209 39.909865 28.840307 C 41.109932 30.760129 62.580347 10.349845 64.520313 13.459765 C 66.210145 16.159932 35.290036 33.999947 35.370231 34.120294 C 37.750317 37.930329 64.279726 13.240084 65.550442 15.260195 C 65.550442 15.260195 30.069696 40.089889 30.400025 40.610438 C 30.400025 40.610438 66.780105 17.180017 67.090385 17.679552 C 68.250354 19.540156 25.480417 44.910457 26.430351 46.430077 C 26.58024 46.669816 67.640296 18.410231 68.659924 20.039691 C 69.31008 21.070282 23.579595 51.050066 23.579595 51.050066 C 23.579595 51.050066 68.400243 18.909767 70.260014 21.880237 C 73.800069 27.540368 19.480081 53.370089 20.950331 55.719722 C 23.109879 59.180176 72.070139 23.780001 72.070139 23.780001 C 72.740343 24.860259 15.669844 55.560214 18.599841 60.260434 C 20.740295 63.690325 70.479596 20.139981 73.940411 25.679765 C 78.459995 32.910138 14.239692 60.160145 16.740071 64.169803 C 19.390339 68.409648 75.139523 26.619618 75.610194 27.379905 C 75.809728 27.699876 12.770398 64.070469 15.130434 67.829881 C 17.050351 70.899685 74.070251 23.990131 77.219831 29.030379 C 82.049695 36.769839 8.949658 64.370381 13.550393 71.729698 C 13.550393 71.729698 74.439723 23.630045 78.960262 30.860418 C 78.960262 30.860418 8.430298 69.140326 12.23958 75.23982 C 16.48039 82.020324 79.079601 30.220477 80.540303 32.559604 C 83.839772 37.839591 9.789801 77.969596 10.770285 79.539838 C 14.14995 84.949724 82.489815 34.729671 82.489815 34.729671 C 82.489815 34.729671 9.139645 82.470193 9.630365 83.249583 C 11.459584 86.179938 81.819611 32.899632 84.1701 36.66955 L 8.609783 86.839936 C 8.609783 86.839936 83.430202 34.769786 85.819835 38.590327 C 89.270147 44.119605 1.850454 79.51978 7.970129 89.309916 C 12.299727 96.240377 86.939707 39.959991 86.939707 39.959991 C 92.989687 49.649837 1.229894 82.689874 7.250279 92.330053 C 7.250279 92.330053 86.61988 39.009631 88.289663 41.689741 C 91.690331 47.119684 1.100054 86.560082 6.589622 95.350191 C 11.219953 102.76013 84.429781 35.109814 89.639619 43.450055 C 91.469793 46.369903 -0.200257 88.28028 6.019661 98.229924 C 11.309695 106.689556 84.31999 34.610279 90.919882 45.179805 C 97.519774 55.750286 -0.29 91.940358 5.489799 101.189888 C 9.000258 106.809903 85.490461 36.199624 92.22974 46.989786 C 97.85965 55.990025 5.120327 103.50036 5.120327 103.50036 C 9.23989 110.089837 89.379939 42.270463 93.230274 48.439681 C 100.400126 59.920406 -1.890089 96.979652 4.570416 107.330452 C 4.570416 107.330452 94.200256 49.819852 94.880008 50.900109 C 98.080187 56.010083 4.130295 111.040197 4.130295 111.040197 C 8.07992 117.360326 93.38971 48.459739 96.449547 53.350031 C 102.190203 62.540342 -1.0404 106.850019 3.79042 114.570376 C 4.780451 116.15017 91.199611 45.009791 97.919797 55.750286 C 100.529967 59.929958 -2.160272 108.650449 3.549833 117.779631 C 10.839979 129.450428 99.229655 57.990078 99.229655 57.990078 C 103.509608 64.840308 -4.390468 108.120348 3.390397 120.560029 C 9.27044 129.970021 100.349527 59.970073 100.349527 59.970073 C 101.249816 61.410417 -1.400325 116.700328 3.270104 124.159934 C 7.19968 130.439948 98.710294 57.699717 101.779679 62.59956 C 105.449574 68.489879 3.250055 126.670029 3.250055 126.670029 C 9.789801 137.140221 99.870264 59.880291 102.749661 64.489773 C 110.710012 77.230321 -2.480099 120.130218 3.290153 129.35969 C 5.730385 133.270013 101.709985 63.250007 103.779791 66.570057 C 108.180037 73.610359 1.679562 129.99963 3.42954 132.800087 C 10.469553 144.060175 103.249928 66.379985 105.0696 69.290282 C 110.499976 77.949538 -0.399791 129.330081 3.659625 135.820224 C 3.659625 135.820224 101.140025 63.639703 106.199974 71.740204 C 112.710124 82.17028 3.86966 138.060016 3.86966 138.060016 C 7.959627 144.610333 104.159764 69.040037 107.009566 73.610359 C 113.329729 83.720465 4.199989 140.840415 4.199989 140.840415 C 12.080144 153.459661 101.03978 64.840308 107.999597 75.980049 C 108.729949 77.15009 -0.229853 135.919558 4.609559 143.659974 C 4.989532 144.270305 101.459852 66.400043 108.989629 78.440478 C 115.220049 88.41973 3.810468 144.060175 5.009581 145.979997 C 6.390088 148.179674 105.149796 73.100317 109.780127 80.510256 C 116.409615 91.130404 5.429652 148.179674 5.429652 148.179674 C 9.380231 154.499803 110.520025 82.510309 110.520025 82.510309 C 116.840188 92.620415 4.660158 148.570324 5.970017 150.66016 C 8.459894 154.640208 108.130392 79.669737 111.340119 84.819825 C 115.689766 91.779896 0.749677 144.259799 6.740466 153.850311 C 9.930143 158.960284 112.359746 87.850469 112.359746 87.850469 C 120.020318 100.10963 3.270104 149.57035 7.349569 156.110161 C 8.940111 158.660372 113.059547 90.059697 113.059547 90.059697 C 115.579974 94.099919 4.059647 152.260011 8.140067 158.799822 C 14.71991 169.339739 111.659946 89.209627 113.870093 92.730255 C 116.380019 96.750419 3.060068 151.899925 8.96016 161.329975 C 13.380456 168.410392 111.119581 89.730176 114.609991 95.310075 C 115.059659 96.039799 6.099857 158.07965 10.010338 164.339606 C 11.859607 167.29957 109.159567 88.370063 115.459681 98.449605 C 118.020206 102.55 11.139757 167.29957 11.139757 167.29957 C 16.489938 175.860446 111.150132 93.450427 116.259726 101.619698 C 119.909572 107.46035 8.580187 163.860128 11.930255 169.240404 C 18.289561 179.420235 115.03961 100.990264 116.759993 103.740098 C 119.090433 107.46035 9.849948 166.589904 12.880189 171.440081 C 12.880189 171.440081 110.710012 95.920407 117.180064 106.270252 C 125.549984 119.660292 8.350102 164.629967 13.589536 173.019874 C 16.950107 178.400151 117.450246 108.120348 117.450246 108.120348 C 117.450246 108.120348 8.600236 165.639545 14.800105 175.570085 C 17.580213 180.02006 111.950177 101.710436 117.859815 111.170095 C 118.369629 111.989601 15.669844 177.3304 15.739538 177.449791 C 22.570469 188.380359 117.07982 111.819587 118.120451 113.479612 C 124.300272 123.379588 14.880301 176.500387 17.189738 180.190074 C 17.949685 181.409782 113.289631 108.650449 118.449825 116.920009 C 123.610018 125.189569 11.369842 171.14972 18.769779 182.989576 C 23.699888 190.879947 111.499555 109.029637 118.699958 120.549523 C 118.699958 120.549523 16.539582 179.570192 20.320224 185.620018 C 21.440095 187.409941 114.220471 116.669764 118.8403 124.059645 C 124.099783 132.480116 21.120268 186.919957 21.339851 187.269536 C 28.030441 197.980422 111.650398 114.749942 118.880398 126.32045 C 118.880398 126.32045 21.900264 188.130113 22.280238 188.740445 C 26.500045 195.490385 116.060192 123.839963 118.889945 128.37017 C 124.139881 136.769629 21.999554 188.159722 23.749533 190.960179 L 118.829798 131.549815 L 25.469915 193.450216 C 25.469915 193.450216 115.559925 130.249876 118.65986 135.220399 C 119.500003 136.560454 22.969537 189.210371 26.609836 195.03001 C 33.890435 206.670242 118.489922 137.619699 118.489922 137.619699 C 124.85973 147.810036 28.25957 197.229686 28.279619 197.26025 C 31.410105 202.269935 116.579553 138.540449 118.170095 141.089705 C 118.849847 142.190021 29.819562 199.130405 30.180442 199.699666 C 30.180442 199.699666 112.359746 136.509832 117.68033 145.029638 C 117.68033 145.029638 30.16994 199.20013 31.4903 201.319575 C 31.4903 201.319575 112.670026 140.359982 117.269806 147.720253 C 118.429776 149.579902 26.810325 193.360433 32.659817 202.710252 C 35.79985 207.739994 113.249533 144.329524 116.860237 150.10045 C 116.860237 150.10045 29.309749 196.499963 34.599782 204.959595 C 38.839638 211.749651 116.060192 154.060441 116.060192 154.060441 C 116.990077 155.539945 35.969788 206.500228 35.969788 206.500228 C 40.130402 213.169937 112.989853 153.000241 115.399534 156.870449 C 119.129576 162.840044 37.419988 207.880399 37.810463 208.500281 C 37.810463 208.500281 108.700353 151.559897 114.379907 160.649919 C 119.549648 168.929986 39.86022 210.630233 39.86022 210.630233 C 41.27987 212.899634 113.070048 164.82959 113.090097 164.869706 C 116.900335 170.970154 36.850028 204.619567 41.840283 212.619779 C 41.840283 212.619779 108.850242 164.489562 111.659946 168.990159 C 111.939675 169.440028 42.140062 211.780216 43.899587 214.599775 C 43.899587 214.599775 105.620467 166.379775 109.959612 173.319787 C 111.570203 175.890056 46.100188 216.559712 46.18993 216.709668 C 51.229831 224.770054 106.340316 175.910114 107.780015 178.21963 C 108.43017 179.259773 45.389886 214.500441 47.519838 217.890215 C 47.519838 217.890215 105.770356 180.149959 106.369912 181.120376 C 106.369912 181.120376 46.390419 214.440267 49.729985 219.789979 C 51.010248 221.850206 103.710097 186.049829 103.710097 186.060335 C 106.810032 191.009846 46.849633 214.10979 51.109538 220.939962 C 51.109538 220.939962 99.779567 185.939988 101.839825 189.23998 C 105.299685 194.779764 50.610226 218.720228 52.890067 222.360248 C 54.729788 225.300154 96.75028 189.609618 99.150414 193.450216 C 102.389737 198.629914 54.150281 223.020247 54.499704 223.590462 C 56.450171 226.709934 93.619794 193.029957 96.370306 197.430264 C 98.339868 200.5803 53.819952 221.660134 56.530366 226.000268 L 90.689797 204.650131 C 91.579585 206.079969 56.380477 227.260092 57.570043 229.159856 C 59.000194 231.439763 81.859709 213.979892 81.859709 213.979892 C 82.659753 215.27028 56.779545 229.430159 58.229745 231.739676 C 58.58967 232.320398 69.079995 223.150145 69.889587 224.450084 C 69.889587 224.450084 58.660319 234.640421 58.879901 235.010059 C 59.449862 235.929854 66.82975 228.830334 67.379661 229.700462 C 67.819781 230.410127 58.810208 236.759866 59.279924 237.509647 C 59.299972 237.540212 66.599665 232.430238 66.820203 232.799876 C 66.840252 232.83044 59.279924 239.319629 59.570155 239.789555 C 59.679946 239.970076 65.969558 234.509568 66.540473 235.430318 C 67.110434 236.350113 59.860386 242.610069 59.860386 242.610069 C 60.290004 243.310183 65.939962 237.88024 66.360034 238.54979 C 66.570069 238.889818 60.05992 245.140222 60.05992 245.140222 C 60.05992 245.140222 66.190096 241.109552 66.279838 241.249957 C 66.659812 241.849782 59.729591 246.57006 60.180213 247.299783 C 60.379747 247.619753 65.919914 242.959649 66.259789 243.500255 C 66.38963 243.710385 60.120066 249.299836 60.260408 249.530024 C 60.690026 250.21008 65.930415 245.220454 66.270291 245.769657 C 66.659812 246.389539 60.299551 251.689584 60.299551 251.689584 C 60.649929 252.250249 65.950464 247.350405 66.310389 247.930172 C 66.409679 248.08968 59.869933 253.250275 60.290004 253.930332 C 60.470444 254.219738 66.380083 250.129849 66.380083 250.129849 C 66.69991 250.650397 63.559877 255.069808 63.559877 255.069808 C 63.740317 255.349662 66.42018 253.049697 66.520425 253.219711 C 66.599665 253.349609 66.460278 255.819589 66.630216 256.080341 C 66.630216 256.080341 66.670314 256.00011 66.690363 256.040225 " transform="matrix(4.091568,0,0,4.089735,0.12796,0)"/>
<path style="fill:none;stroke-width:6;stroke-linecap:round;stroke-linejoin:round;stroke:rgb(11.372549%,11.372549%,10.588235%);stroke-opacity:1;stroke-miterlimit:4;" d="M 59.829835 3.00008 C 59.809786 3.199703 59.789737 3.329601 59.78019 3.519673 L 59.78019 3.660078 L 59.769689 3.660078 C 59.74964 3.819586 59.740093 3.919875 59.729591 4.069831 L 59.729591 4.230294 L 59.709542 4.230294 C 59.709542 4.340134 59.690448 4.420366 59.690448 4.499642 L 59.690448 4.769945 L 59.659897 4.769945 C 59.65035 4.850176 59.65035 4.960017 59.630301 5.029742 L 59.630301 5.250378 L 59.610252 5.250378 C 59.610252 5.320103 59.610252 5.409886 59.590204 5.470059 L 59.590204 5.680189 L 59.570155 5.680189 C 59.570155 5.79003 59.559653 5.910377 59.550106 6.020217 L 59.550106 6.040275 C 59.519555 6.21984 59.489959 6.400361 59.449862 6.570375 L 59.449862 6.649651 L 59.429813 6.649651 C 59.429813 6.649651 59.400217 6.729883 59.400217 6.77955 L 59.400217 6.96007 L 59.369666 6.96007 L 59.369666 7.190258 L 59.320021 7.190258 L 59.320021 7.38033 L 59.270377 7.38033 L 59.270377 7.600011 L 59.230279 7.600011 L 59.230279 7.799634 L 59.179679 7.799634 L 59.179679 7.980155 L 59.119533 7.980155 L 59.119533 8.130111 L 59.08039 8.130111 L 59.08039 8.320183 L 59.040292 8.320183 L 59.040292 8.470139 L 58.980145 8.470139 L 58.980145 8.609589 L 58.949595 8.609589 L 58.949595 8.770051 L 58.910452 8.770051 C 58.910452 8.770051 58.89995 8.799661 58.89995 8.810167 L 58.89995 8.920008 L 58.870354 8.920008 C 58.870354 8.920008 58.859852 8.960123 58.859852 8.980181 L 58.859852 9.040355 L 58.839803 9.040355 C 58.839803 9.040355 58.819755 9.119631 58.819755 9.150195 C 58.790159 9.21992 58.750061 9.300151 58.709963 9.369876 L 58.709963 9.389934 C 58.709963 9.389934 58.669866 9.439601 58.660319 9.459659 L 58.660319 9.53989 L 58.620221 9.53989 L 58.620221 9.620122 L 58.569621 9.620122 L 58.569621 9.700353 L 58.540025 9.700353 L 58.540025 9.810194 L 58.470332 9.810194 L 58.470332 9.96015 L 58.430234 9.96015 L 58.430234 10.000265 L 58.390136 10.000265 L 58.390136 10.079542 L 58.350039 10.079542 L 58.350039 10.199889 L 58.309941 10.199889 L 58.309941 10.28012 L 58.249794 10.28012 L 58.249794 10.400467 L 58.209697 10.400467 L 58.209697 10.479743 L 58.160052 10.479743 L 58.160052 10.559975 L 58.130456 10.559975 L 58.130456 10.669815 L 58.070309 10.669815 L 58.070309 10.750047 L 58.030212 10.750047 L 58.030212 10.81022 L 57.990114 10.81022 L 57.990114 10.890451 L 57.929967 10.890451 L 57.929967 10.989786 L 57.88987 10.989786 L 57.88987 11.049959 L 57.840225 11.049959 L 57.840225 11.13019 L 57.800127 11.13019 L 57.800127 11.249582 L 57.749528 11.249582 L 57.749528 11.289698 L 57.719932 11.289698 L 57.719932 11.369929 L 57.659785 11.369929 L 57.659785 11.410045 L 57.619687 11.410045 L 57.619687 11.519886 L 57.570043 11.519886 L 57.570043 11.560001 L 57.529945 11.560001 L 57.529945 11.640233 L 57.4803 11.640233 L 57.4803 11.700406 L 57.44975 11.700406 L 57.429701 11.739567 L 57.429701 11.779682 L 57.409652 11.779682 C 57.409652 11.779682 57.389603 11.79974 57.389603 11.819798 C 57.389603 11.819798 57.380056 11.830304 57.380056 11.830304 C 57.369554 11.859914 57.360007 11.879972 57.339958 11.900029 L 57.339958 11.929639 L 57.330411 11.929639 C 57.279812 11.989812 57.250216 12.059537 57.199616 12.11971 C 57.199616 12.11971 57.129923 12.19039 57.100327 12.240057 L 57.100327 12.260115 L 57.089825 12.260115 C 57.089825 12.260115 57.060229 12.280173 57.060229 12.289725 L 57.060229 12.320289 L 57.04018 12.320289 L 57.009629 12.349898 C 57.009629 12.349898 57.000082 12.360405 57.000082 12.360405 C 57.000082 12.369956 56.980033 12.380462 56.969532 12.399565 L 56.969532 12.439681 L 56.939936 12.439681 L 56.919887 12.459739 L 56.919887 12.479796 L 56.899838 12.479796 C 56.899838 12.479796 56.879789 12.499854 56.879789 12.510361 L 56.879789 12.53997 L 56.839691 12.53997 C 56.839691 12.53997 56.830144 12.560028 56.819643 12.569579 L 56.819643 12.629753 L 56.790047 12.629753 L 56.790047 12.669868 L 56.749949 12.669868 L 56.749949 12.730042 L 56.709851 12.730042 L 56.709851 12.810273 L 56.660206 12.810273 L 56.660206 12.730042 L 56.609607 12.730042 L 56.609607 12.770158 L 56.550415 12.770158 L 56.550415 12.830331 L 56.499816 12.830331 L 56.499816 12.909607 L 56.450171 12.909607 L 56.450171 12.949723 L 56.410073 12.949723 L 56.410073 13.009896 L 56.369975 13.009896 L 56.369975 13.050012 L 56.329878 13.050012 L 56.329878 13.130243 L 56.269731 13.130243 L 56.269731 13.170359 L 56.229633 13.170359 L 56.229633 13.229578 L 56.179989 13.229578 L 56.179989 13.269693 L 56.139891 13.269693 L 56.139891 13.320315 L 56.090246 13.320315 L 56.090246 13.430156 L 56.070197 13.430156 L 56.070197 13.470272 L 56.010051 13.470272 L 56.010051 13.519939 L 55.969953 13.519939 L 55.969953 13.539996 L 55.929855 13.539996 L 55.929855 13.580112 L 55.880211 13.580112 L 55.880211 13.689953 L 55.840113 13.689953 L 55.840113 13.730068 L 55.790468 13.730068 L 55.790468 13.770184 L 55.75037 13.770184 L 55.75037 13.830358 L 55.699771 13.830358 L 55.699771 13.870473 L 55.650126 13.870473 L 55.650126 13.909634 L 55.610028 13.909634 L 55.610028 13.949749 L 55.549882 13.949749 L 55.549882 14.05959 L 55.509784 14.05959 L 55.509784 14.110212 L 55.449637 14.110212 L 55.449637 14.150328 L 55.40954 14.150328 L 55.40954 14.190444 L 55.350348 14.190444 L 55.350348 14.249662 L 55.31025 14.249662 L 55.31025 14.289778 L 55.259651 14.289778 L 55.259651 14.360458 L 55.219553 14.360458 L 55.219553 14.399618 L 55.160361 14.399618 L 55.160361 14.459792 L 55.140312 14.459792 L 55.140312 14.499907 L 55.100215 14.499907 L 55.100215 14.540023 L 55.049615 14.540023 L 55.049615 14.580139 L 55.010472 14.580139 L 55.010472 14.640312 L 54.959873 14.640312 L 54.959873 14.680428 L 54.930277 14.680428 C 54.930277 14.680428 54.919775 14.699531 54.919775 14.699531 L 54.919775 14.719588 L 54.899726 14.719588 L 54.850081 14.759704 C 54.850081 14.759704 54.830032 14.779762 54.809984 14.790268 L 54.809984 14.850442 L 54.769886 14.850442 L 54.769886 14.900109 L 54.729788 14.900109 L 54.729788 14.940225 L 54.68969 14.940225 L 54.68969 14.98034 L 54.660094 14.98034 L 54.629544 15.00995 L 54.629544 15.039559 L 54.61045 15.039559 L 54.590401 15.059617 L 54.590401 15.090181 L 54.570352 15.090181 C 54.519752 15.150354 54.499704 15.200021 54.420463 15.260195 C 54.400414 15.280253 54.340267 15.32992 54.289668 15.370035 C 54.159828 15.450267 53.98989 15.589717 53.869597 15.710064 C 53.790356 15.759731 53.699659 15.839962 53.640467 15.889629 C 53.640467 15.889629 53.629965 15.900136 53.629965 15.900136 C 53.460027 16.039585 53.290089 16.159932 53.100103 16.309889 C 52.849969 16.52957 52.590289 16.730148 52.300058 16.980393 C 52.300058 16.980393 52.280009 16.969887 52.280009 16.969887 C 51.669951 17.470378 51.010248 18.030087 50.27035 18.64997 C 50.27035 18.64997 50.259848 18.660476 50.259848 18.660476 C 48.429674 20.220212 46.270126 22.229816 43.840395 24.65968 L 43.639907 24.860259 C 28.710192 39.899817 5.579541 70.85957 3.140264 120.889551 C 2.930228 125.030062 2.970326 129.050226 3.20041 132.970101 L 3.20041 133.07039 C 4.369927 152.779605 10.699637 169.619593 18.61989 183.290443 C 21.770424 188.749996 25.170137 193.700462 28.62045 198.13993 C 40.510376 213.509965 52.650435 222.620045 55.759917 224.819721 C 60.520089 235.62039 60.079968 254.170071 60.079968 254.170071 L 67.010189 256.440427 C 67.010189 256.440427 65.589585 238.480065 67.58015 229.810303 C 68.190208 227.099629 69.649955 224.779606 71.350289 222.819668 C 72.49021 222.029771 75.880376 219.640023 79.959841 216.009554 C 80.149828 215.809931 80.270121 215.630366 80.440059 215.440294 C 96.860071 200.47046 127.530047 163.589825 117.010126 103.520417 C 103.379768 44.810167 71.220449 25.520257 67.770137 18.130376 C 63.959899 12.920114 59.849884 3.009631 59.849884 3.009631 Z M 59.829835 3.00008 " transform="matrix(4.091568,0,0,4.089735,0.12796,0)"/>
</g>
</svg>
