<?xml version="1.0" encoding="UTF-8"?>
<svg xmlns="http://www.w3.org/2000/svg" xmlns:xlink="http://www.w3.org/1999/xlink" width="500px" height="500px" viewBox="0 0 500 500" version="1.1">
<g id="surface1">
<path style=" stroke:none;fill-rule:nonzero;fill:rgb(38.039216%,29.019608%,57.254902%);fill-opacity:1;" d="M 294.445312 250 C 294.445312 274.550781 274.542969 294.457031 249.988281 294.457031 C 225.4375 294.457031 205.535156 274.550781 205.535156 250 C 205.535156 225.449219 225.4375 205.542969 249.988281 205.542969 C 274.542969 205.542969 294.445312 225.449219 294.445312 250 Z M 294.445312 250 "/>
<path style="fill:none;stroke-width:0.9;stroke-linecap:round;stroke-linejoin:round;stroke:rgb(100%,100%,100%);stroke-opacity:1;stroke-miterlimit:4;" d="M 112.279091 109.880601 C 112.489492 110.229948 118.309283 106.119174 118.309283 106.119174 C 119.450614 107.929423 105.56013 116.339537 106.560531 117.949309 C 107.420002 119.330814 127.880577 104.300986 128.03937 104.529252 C 128.069144 104.58086 104.019831 122.719076 104.970608 124.239526 C 106.630003 126.889397 132.930218 103.459379 134.420894 105.829376 C 134.420894 105.829376 102.580762 125.730202 105.050005 129.670272 C 106.350129 131.740546 139.270058 108.290679 139.270058 108.290679 C 141.719452 112.220824 104.510107 131.510295 106.109954 134.039085 C 109.069472 138.800913 141.239101 108.729347 142.759551 111.139042 C 143.960429 113.060446 105.9591 134.719914 107.60063 137.369784 C 110.02025 141.240382 144.289926 112.639643 145.099774 113.929842 L 109.960702 140.869202 C 110.849947 142.280481 146.939797 117.139461 147.219671 117.580113 C 149.599592 121.369329 110.790399 139.979957 113.529592 144.380528 C 113.529592 144.380528 147.809192 120.769883 148.799668 122.339956 C 150.840168 125.609122 114.039716 142.500807 116.399789 146.270174 C 117.179863 147.530599 148.549568 124.610707 149.240321 125.750052 C 151.620242 129.549192 119.899206 146.780299 120.750737 148.149895 C 121.600284 149.519491 149.01007 130.490045 149.01007 130.490045 C 149.099392 130.640899 124.510179 148.130046 125.079852 149.019291 C 125.079852 149.019291 146.800852 132.989062 147.900499 134.749687 C 148.190297 135.230039 133.019539 148.419844 133.019539 148.419844 C 133.019539 148.419844 142.989802 140.239981 143.859198 141.639351 " transform="matrix(1.967962,0,0,1.967962,0,0.442791)"/>
<path style=" stroke:none;fill-rule:nonzero;fill:rgb(38.039216%,29.019608%,57.254902%);fill-opacity:1;" d="M 411.046875 302.25 C 403.253906 305.359375 394.65625 308.113281 386.074219 310.4375 C 379.816406 290.933594 372.042969 270.289062 362.675781 249.605469 C 372.042969 228.921875 380.210938 208.671875 386.074219 189.171875 C 439.898438 204.777344 472.25 228.175781 472.25 250 C 472.25 268.320312 449.640625 287.824219 411.027344 302.25 Z M 375.941406 363.078125 C 382.570312 404.011719 377.121094 432.863281 361.121094 442.230469 C 357.222656 444.59375 352.539062 445.734375 347.484375 445.734375 C 324.082031 445.734375 294.839844 426.625 265.578125 397.773438 C 279.214844 382.957031 292.871094 365.816406 306.117188 347.097656 C 328.726562 345.132812 350.199219 341.628906 370.449219 337.359375 C 372.8125 346.332031 374.34375 354.890625 375.921875 363.097656 L 375.960938 363.097656 Z M 138.878906 442.230469 C 122.878906 432.863281 117.449219 404.011719 124.058594 363.078125 C 125.242188 354.890625 127.167969 346.332031 129.53125 337.339844 C 149.820312 342.023438 171.253906 345.132812 193.863281 347.078125 C 207.109375 365.792969 220.765625 382.542969 234.402344 397.753906 C 205.554688 426.230469 176.289062 445.714844 152.496094 445.714844 C 147.421875 445.714844 142.757812 444.53125 138.859375 442.210938 L 138.898438 442.210938 Z M 27.730469 250 C 27.730469 231.679688 49.945312 212.175781 88.953125 197.75 C 96.746094 194.640625 105.34375 191.886719 113.925781 189.5625 C 120.183594 209.066406 127.957031 229.710938 137.324219 250.394531 C 127.957031 271.078125 119.789062 291.328125 113.925781 310.828125 C 60.101562 295.222656 27.75 271.824219 27.75 250 Z M 124.058594 136.921875 C 117.429688 95.988281 122.878906 67.136719 138.878906 57.769531 C 142.777344 55.40625 147.460938 54.265625 152.515625 54.265625 C 175.917969 54.265625 205.160156 73.375 234.421875 102.226562 C 220.785156 117.042969 207.128906 134.183594 193.882812 152.902344 C 171.273438 154.867188 149.800781 158.371094 129.550781 162.640625 C 127.1875 153.667969 125.65625 145.109375 124.078125 136.902344 L 124.039062 136.902344 Z M 336.582031 200.09375 L 322.550781 176.695312 C 337.367188 178.660156 351.398438 180.984375 364.664062 184.09375 C 360.375 196.945312 355.6875 210.601562 349.84375 224.238281 C 345.554688 216.050781 341.265625 207.847656 336.601562 200.054688 L 336.601562 200.09375 Z M 249.988281 118.207031 C 259.359375 128.339844 268.3125 139.28125 276.890625 150.558594 C 267.917969 150.164062 258.964844 149.773438 249.988281 149.773438 C 241.015625 149.773438 232.0625 150.164062 223.089844 150.558594 C 231.667969 139.242188 240.621094 128.339844 249.988281 118.207031 Z M 150.175781 223.886719 C 144.3125 210.246094 139.648438 196.984375 135.355469 183.738281 C 148.601562 180.628906 162.652344 178.269531 177.472656 176.339844 C 172.785156 183.738281 167.730469 191.550781 163.4375 199.738281 C 158.753906 207.925781 154.464844 216.132812 150.195312 223.925781 L 150.195312 223.886719 Z M 177.449219 323.328125 C 162.632812 321.359375 148.601562 319.035156 135.335938 315.925781 C 139.625 303.074219 144.3125 289.417969 150.15625 275.78125 C 154.445312 283.574219 158.734375 291.78125 163.398438 299.574219 C 168.082031 308.152344 172.765625 315.574219 177.429688 323.367188 L 177.429688 323.328125 Z M 249.988281 381.792969 C 240.621094 371.660156 231.667969 360.71875 223.089844 349.441406 C 232.0625 349.835938 241.015625 350.226562 249.988281 350.226562 C 258.964844 350.226562 267.917969 349.835938 276.890625 349.441406 C 268.3125 360.757812 259.359375 371.660156 249.988281 381.792969 Z M 349.824219 276.132812 C 355.6875 289.773438 360.351562 303.035156 364.644531 316.28125 C 351.398438 319.390625 337.347656 321.75 322.527344 323.679688 C 327.214844 316.28125 332.269531 308.46875 336.5625 300.28125 C 341.246094 292.09375 345.535156 283.886719 349.804688 276.09375 L 349.804688 276.132812 Z M 317.472656 289.003906 C 310.445312 301.480469 302.257812 313.976562 293.679688 326.4375 C 279.253906 327.617188 264.828125 328.011719 249.988281 328.011719 C 235.152344 328.011719 220.351562 327.617188 206.300781 326.4375 C 197.722656 313.957031 189.910156 301.460938 182.902344 289.003906 C 175.503906 276.152344 168.476562 262.890625 162.21875 250 C 168.476562 237.148438 175.464844 223.886719 182.902344 210.996094 C 189.929688 198.519531 198.113281 186.023438 206.695312 173.5625 C 221.121094 172.382812 235.546875 171.988281 250.382812 171.988281 C 265.222656 171.988281 280.019531 172.382812 294.074219 173.5625 C 302.652344 186.042969 310.464844 198.539062 317.472656 210.996094 C 324.871094 223.847656 331.898438 237.109375 338.15625 250 C 331.523438 262.851562 324.910156 275.742188 317.472656 289.003906 Z M 361.140625 57.769531 C 377.140625 67.136719 382.570312 95.988281 375.960938 136.921875 C 374.777344 145.109375 372.851562 153.667969 370.488281 162.660156 C 350.199219 157.976562 328.769531 154.867188 306.15625 152.921875 C 292.910156 134.207031 279.253906 117.457031 265.617188 102.246094 C 294.464844 73.769531 323.730469 54.285156 347.523438 54.285156 C 352.601562 54.285156 357.265625 55.46875 361.160156 57.789062 L 361.121094 57.789062 Z M 418.839844 176.714844 C 410.261719 173.605469 401.308594 170.453125 391.9375 167.738281 C 394.300781 158.371094 396.230469 149.023438 397.804688 140.050781 C 405.992188 88.585938 397.015625 52.316406 372.0625 38.285156 C 364.664062 33.996094 356.457031 32.027344 347.089844 32.027344 C 319.792969 32.027344 285.078125 52.316406 250.011719 86.246094 C 214.902344 52.316406 180.226562 32.027344 152.929688 32.027344 C 143.5625 32.027344 135.394531 33.996094 127.957031 38.285156 C 102.984375 52.710938 94.027344 88.960938 102.214844 140.050781 C 103.789062 149.023438 105.71875 158.371094 108.082031 167.738281 C 98.714844 170.453125 89.757812 173.210938 81.179688 176.714844 C 32.414062 195.429688 5.902344 221.167969 5.902344 250 C 5.902344 278.832031 32.804688 304.570312 81.160156 323.285156 C 89.738281 326.394531 98.691406 329.546875 108.0625 332.261719 C 105.699219 341.628906 103.769531 350.976562 102.195312 359.949219 C 94.007812 411.414062 102.984375 447.683594 127.9375 461.714844 C 135.335938 466.003906 143.542969 467.972656 152.910156 467.972656 C 180.601562 467.972656 215.316406 447.683594 249.988281 413.753906 C 285.097656 447.683594 319.773438 467.972656 347.070312 467.972656 C 356.4375 467.972656 364.605469 466.003906 372.042969 461.714844 C 397.015625 447.289062 405.972656 411.039062 397.785156 359.949219 C 396.210938 350.976562 394.28125 341.628906 391.917969 332.261719 C 401.285156 329.546875 410.242188 326.789062 418.820312 323.285156 C 467.566406 304.570312 494.078125 278.832031 494.078125 250 C 494.078125 221.167969 467.566406 195.429688 418.820312 176.714844 Z M 418.839844 176.714844 "/>
<path style="fill:none;stroke-width:0.9;stroke-linecap:round;stroke-linejoin:round;stroke:rgb(100%,100%,100%);stroke-opacity:1;stroke-miterlimit:4;" d="M 200.760953 167.999114 C 203.950723 173.110288 246.259332 136.520238 247.620989 138.719531 C 249.399479 141.569879 223.83964 159.090784 223.83964 159.090784 C 223.83964 159.090784 236.189824 149.380547 237.090978 150.80969 " transform="matrix(1.967962,0,0,1.967962,0,0.442791)"/>
<path style="fill:none;stroke-width:0.9;stroke-linecap:round;stroke-linejoin:round;stroke:rgb(100%,100%,100%);stroke-opacity:1;stroke-miterlimit:4;" d="M 197.009451 95.789641 C 198.009851 97.389488 208.130968 87.609778 208.680791 88.499023 C 208.680791 88.520857 202.269494 97.34979 202.279418 97.399413 C 202.529519 97.800367 213.520031 90.160402 213.619277 90.309272 C 214.109553 91.089346 207.559311 99.239435 207.559311 99.239435 C 208.279837 100.39069 217.650653 90.930552 218.539898 92.369621 C 218.539898 92.369621 210.580362 100.130665 210.810613 100.499861 C 211.159959 101.069533 221.580799 93.770975 221.580799 93.770975 C 221.580799 93.770975 213.130986 100.720187 213.770131 101.750361 C 214.460884 102.850008 223.919037 94.489517 224.33984 95.140571 C 224.879739 95.980193 216.749499 102.859933 216.949976 103.179505 C 216.949976 103.179505 227.059183 96.369238 227.269585 96.720569 C 227.269585 96.720569 221.150071 104.620558 221.759442 105.620959 C 222.239793 106.389124 231.71978 99.410138 231.71978 99.410138 C 232.120734 100.039359 225.909913 108.050503 225.909913 108.050503 C 226.050843 108.260905 235.53083 102.04016 235.53083 102.04016 C 235.53083 102.04016 228.859507 109.959998 228.919055 110.059244 C 228.980587 110.160475 238.279946 104.219604 238.279946 104.219604 C 238.279946 104.219604 231.189806 111.510222 231.560986 112.089819 C 231.900408 112.629718 240.409768 105.950456 240.689642 106.379199 C 240.689642 106.379199 233.24023 113.249014 233.680882 113.959616 C 233.680882 113.959616 242.319262 107.889725 242.620971 108.38 C 242.799614 108.669799 235.379976 115.559463 235.669774 116.029889 C 235.669774 116.029889 243.909185 109.630501 244.459008 110.539595 C 244.490767 110.599143 238.250173 119.57099 238.399042 119.789331 C 238.710675 120.299456 246.509433 113.46934 247.079105 114.36057 C 247.289507 114.699992 239.379593 122.969176 240.119969 124.130355 C 240.300597 124.420154 248.629329 117.830213 249.079906 118.530891 C 249.449102 119.110488 239.820246 128.320526 240.169592 128.880274 C 240.169592 128.880274 249.859981 121.99061 250.229176 122.590056 C 251.090632 123.969577 237.069144 133.769136 237.650726 134.69014 C 238.430801 135.930716 250.38003 126.160931 250.640055 126.579749 " transform="matrix(1.967962,0,0,1.967962,0,0.442791)"/>
<path style="fill:none;stroke-width:0.9;stroke-linecap:round;stroke-linejoin:round;stroke:rgb(100%,100%,100%);stroke-opacity:1;stroke-miterlimit:4;" d="M 178.24003 140.089127 C 178.24003 140.089127 186.630294 133.560719 187.209892 134.479738 C 187.559238 135.049411 179.520304 143.219349 179.679098 143.469449 C 180.159449 144.239599 188.120971 137.099835 188.609261 137.889834 C 189.049914 138.600436 181.169774 147.340047 181.229322 147.429368 C 181.969698 148.610397 189.710893 141.129226 190.16941 141.849753 C 190.880012 142.969249 182.219798 150.920846 182.910551 152.000644 C 182.910551 152.000644 191.58069 145.889069 191.880413 146.389269 C 192.650562 147.600072 183.269822 154.039158 184.039971 155.26981 C 184.550096 156.079658 192.519558 148.810874 193.039607 149.640571 C 193.559657 150.470269 185.109844 158.83076 185.369869 159.259503 C 185.369869 159.259503 194.389354 153.580641 194.399279 153.62034 " transform="matrix(1.967962,0,0,1.967962,0,0.442791)"/>
<path style="fill:none;stroke-width:0.9;stroke-linecap:round;stroke-linejoin:round;stroke:rgb(100%,100%,100%);stroke-opacity:1;stroke-miterlimit:4;" d="M 156.810813 175.770083 C 157.01923 176.109505 176.900207 159.390508 178.61915 162.1297 C 179.790254 163.999496 163.400754 174.249633 163.87912 175.019782 C 166.399971 179.039249 195.080107 155.51991 195.080107 155.51991 C 195.860181 156.760486 172.960137 172.610087 173.619131 173.650186 C 173.619131 173.650186 201.310777 155.259885 201.799067 156.03996 C 202.63075 157.359933 184.869669 171.470742 184.960975 171.619611 C 188.760116 177.709352 245.459409 122.959252 250.340332 130.769919 C 254.669446 137.699281 189.369487 173.739508 189.369487 173.739508 C 192.019357 177.989226 244.280365 129.900523 248.559857 136.740564 C 251.080708 140.760031 188.249991 173.830814 190.010616 176.669253 L 199.240503 170.899085 C 199.810176 171.810164 190.739083 180.609322 190.820464 180.720478 C 190.820464 180.720478 199.409221 173.689885 200.149597 174.890763 C 200.149597 174.890763 190.81054 182.989244 191.449685 183.999569 C 191.600539 184.249669 200.209145 177.159528 200.820501 178.14008 C 201.3604 178.999551 191.949885 188.749487 192.170211 189.090894 C 192.430236 189.499788 201.189696 182.199245 201.759369 183.110324 C 202.1107 183.679997 192.509633 192.61016 192.529482 192.620085 C 192.870889 193.169908 201.689897 185.62919 202.259569 186.550194 C 202.539443 186.980922 192.729959 195.889251 192.759733 195.950784 C 192.779582 195.980557 202.640674 189.779662 202.640674 189.779662 C 203.51007 191.179031 192.849055 199.440276 192.849055 199.440276 C 192.870889 199.47005 202.299268 192.10996 202.940397 193.140134 C 203.879265 194.630811 192.249608 201.730876 192.819281 202.63997 C 193.079306 203.070698 202.73992 195.569679 203.13095 196.200884 C 204.079743 197.729274 191.489383 205.710645 192.450085 207.239034 C 193.35918 208.680088 203.220271 200.510149 203.220271 200.510149 C 204.049969 201.830122 190.989183 211.969103 191.43976 212.699554 C 191.43976 212.699554 202.940397 205.279916 203.049568 205.440695 C 203.770095 206.609814 188.059438 216.780554 189.180919 218.590803 C 189.810139 219.599143 202.219871 209.710262 202.539443 210.250161 " transform="matrix(1.967962,0,0,1.967962,0,0.442791)"/>
<path style="fill:none;stroke-width:0.9;stroke-linecap:round;stroke-linejoin:round;stroke:rgb(100%,100%,100%);stroke-opacity:1;stroke-miterlimit:4;" d="M 127.559019 210.000061 C 127.78927 210.369256 136.729358 204.259667 136.729358 204.259667 C 136.780966 204.339064 131.070346 212.900032 131.439542 213.509403 C 131.520923 213.630483 140.179153 207.209261 140.570182 207.800767 C 140.770659 208.110415 133.990166 215.450656 134.430819 216.159273 C 134.510216 216.280354 143.589248 210.440713 143.589248 210.440713 C 143.740102 210.700738 137.090614 218.110451 137.479659 218.739672 C 137.680136 219.079093 146.560676 212.739253 146.699621 212.969504 C 147.23952 213.83096 141.530884 221.959215 141.530884 221.959215 C 141.880231 222.530872 150.860017 216.129499 150.860017 216.129499 C 151.149816 216.609851 144.720654 224.059262 145.020377 224.539613 C 145.020377 224.539613 153.819536 217.560628 154.500364 218.620576 C 154.500364 218.620576 147.950122 226.339938 148.160524 226.669435 C 148.879065 227.820689 157.690133 220.430825 157.809229 220.639242 C 157.840987 220.700775 152.900517 229.599179 152.900517 229.599179 C 153.619059 230.750434 162.469825 222.479265 162.989875 223.299037 C 163.190352 223.620595 156.929908 231.550357 157.130385 231.86993 C 157.509506 232.49915 167.870798 225.170819 167.870798 225.170819 C 168.299541 225.859586 161.719525 233.620631 161.999399 234.079148 C 162.410278 234.740127 173.289634 225.049738 174.180864 226.470942 C 174.180864 226.470942 164.819973 234.059299 165.64967 235.399121 C 166.590523 236.889797 180.129675 224.319287 181.040754 225.78019 C 181.070528 225.839737 168.970444 235.210553 169.780293 236.500753 C 171.679863 239.539668 200.800652 216.369675 201.130149 216.909574 C 201.590651 217.64995 174.639381 234.470178 176.390082 237.270902 C 176.850584 238.009293 197.039225 220.609468 198.720454 223.310947 C 199.460829 224.480066 185.270623 233.789349 186.37027 235.54005 C 186.769239 236.179195 192.539407 231.639679 192.569181 231.669453 " transform="matrix(1.967962,0,0,1.967962,0,0.442791)"/>
<path style="fill:none;stroke-width:0.9;stroke-linecap:round;stroke-linejoin:round;stroke:rgb(100%,100%,100%);stroke-opacity:1;stroke-miterlimit:4;" d="M 162.839021 30.680234 C 163.650854 31.980357 183.80972 17.170855 183.990348 17.460654 C 184.389318 18.089874 176.610409 26.170491 177.160232 27.049811 C 177.620734 27.790187 188.970517 19.669872 188.970517 19.669872 C 189.079688 19.840575 181.749371 27.049811 182.400426 28.10976 C 182.650526 28.510714 191.630313 21.019619 192.219834 21.970396 L 185.560421 30.039104 C 185.560421 30.039104 194.119405 23.469012 194.669228 24.350318 C 195.149579 25.120467 187.76964 32.389251 187.779564 32.399176 C 188.039589 32.810055 196.570783 26.769938 196.630331 26.859259 C 196.880431 27.240364 188.91097 34.179651 189.250391 34.729474 C 189.250391 34.729474 197.610882 28.500789 198.04955 29.219331 C 198.160706 29.399959 190.099938 36.940677 190.500892 37.559973 C 190.909786 38.230876 198.909021 31.190359 199.399297 31.990282 C 199.659322 32.389251 191.409986 41.420646 191.759332 41.990318 C 191.93996 42.280117 200.610099 35.71995 200.949521 36.249924 C 200.949521 36.249924 192.100739 45.410339 192.410387 45.880765 C 192.849055 46.589382 201.6105 39.509166 201.890374 39.959743 C 202.600976 41.099089 192.039206 48.429405 192.720035 49.519127 C 193.059456 50.059026 202.48982 43.409538 202.48982 43.409538 C 203.059493 44.320617 192.170211 52.149149 192.829205 53.199172 C 192.980059 53.449272 202.569217 46.359131 202.910624 46.91094 C 203.279819 47.490537 192.299231 56.339319 192.739884 57.059845 C 192.920512 57.349644 202.469971 49.479429 203.140875 50.559226 C 203.809793 51.639024 191.43976 59.350445 192.46001 60.980066 C 192.630713 61.25994 203.039644 54.080478 203.180573 54.280955 C 203.500145 54.799019 191.110263 62.990792 192.070965 64.529106 C 192.529482 65.269482 202.819317 57.230549 203.079342 57.639443 C 203.079342 57.639443 190.820464 69.130155 191.280966 69.880456 L 202.720071 62.730767 C 203.180573 63.479083 190.260716 75.219896 190.280566 75.22982 C 190.68946 75.900724 201.779218 67.270283 202.140474 67.820107 C 202.890774 69.030909 188.730342 78.959488 189.240467 79.749487 C 189.899461 80.809436 200.729194 70.930479 201.46957 72.109523 " transform="matrix(1.967962,0,0,1.967962,0,0.442791)"/>
<path style="fill:none;stroke-width:0.9;stroke-linecap:round;stroke-linejoin:round;stroke:rgb(100%,100%,100%);stroke-opacity:1;stroke-miterlimit:4;" d="M 164.77035 89.34063 C 165.510726 90.519673 178.0991 80.229838 178.450431 80.799511 C 179.200732 82.010313 170.199111 89.110379 170.899789 90.229875 C 171.820792 91.700702 183.849419 81.329485 184.210675 81.920992 C 184.210675 81.940841 176.110208 91.109195 176.110208 91.109195 C 177.09076 92.689193 200.209145 74.590675 200.870124 75.650624 C 202.420348 78.129791 179.659249 90.9901 180.220982 91.889269 C 181.189624 93.439493 200.0702 79.479538 200.0702 79.479538 C 200.850275 80.720114 185.439341 92.899595 185.590195 93.159619 C 185.840295 93.560574 198.569599 84.310838 198.899096 84.850736 C 199.230578 85.390635 182.980023 97.840065 183.710474 99.019109 C 183.710474 99.019109 202.779619 85.769755 203.379065 86.730457 C 204.329843 88.250908 180.939523 100.930589 182.269421 103.080259 C 182.749772 103.830559 206.689915 87.82018 206.689915 87.82018 C 207.95034 89.84083 177.989929 105.809527 180.01058 109.050904 C 181.070528 110.740072 194.240485 99.479611 194.540208 99.969886 C 195.919729 102.179104 177.729905 112.270447 178.309502 113.209315 C 179.11935 114.509439 192.219834 102.329959 193.200386 103.900032 " transform="matrix(1.967962,0,0,1.967962,0,0.442791)"/>
<path style="fill:none;stroke-width:0.9;stroke-linecap:round;stroke-linejoin:round;stroke:rgb(100%,100%,100%);stroke-opacity:1;stroke-miterlimit:4;" d="M 127.570929 59.870495 C 128.200149 60.88082 136.18946 53.6299 136.570565 54.239271 C 136.649962 54.360352 130.000473 62.450893 130.000473 62.450893 C 130.000473 62.450893 138.21011 55.839118 138.869104 56.910976 C 138.869104 56.910976 132.060822 64.749433 132.209691 64.989608 C 132.729741 65.819306 141.050533 59.46954 141.050533 59.46954 C 141.459427 60.140444 134.730542 67.74071 135.329989 68.699427 C 135.439159 68.87013 143.769876 62.609687 144.129147 63.189284 C 144.490403 63.770866 138.120789 72.099598 138.289507 72.379472 C 138.380813 72.520402 146.699621 66.259958 147.080726 66.889178 C 147.170047 67.040032 139.549932 73.880073 139.960811 74.529143 C 139.960811 74.529143 148.640875 68.87013 148.750045 69.040834 " transform="matrix(1.967962,0,0,1.967962,0,0.442791)"/>
<path style="fill:none;stroke-width:0.9;stroke-linecap:round;stroke-linejoin:round;stroke:rgb(100%,100%,100%);stroke-opacity:1;stroke-miterlimit:4;" d="M 106.229049 87.629627 C 107.72965 90.039322 123.460156 74.499369 124.510179 76.200447 C 125.109626 77.14924 112.439869 87.230658 112.439869 87.230658 C 112.880522 87.939275 129.82977 75.829267 130.060021 76.220296 C 131.119969 77.919389 118.249736 86.180634 118.749936 86.990482 C 119.980588 88.9496 134.559839 74.529143 135.719033 76.389015 C 135.969133 76.789969 126.989347 86.790005 127.070729 86.899176 C 128.880977 89.799147 148.990221 68.860206 150.939414 71.990428 C 151.570619 72.990828 132.130294 86.089328 132.660269 86.950784 C 132.660269 86.970633 151.509087 72.45093 152.739738 74.400123 C 152.789361 74.47952 138.98026 85.870986 139.75041 87.119502 L 155.040263 77.560118 L 147.320902 87.530381 C 148.349091 89.189776 160.820355 76.789969 161.85053 78.449363 C 161.85053 78.449363 149.88939 87.869803 150.470973 88.790806 C 151.650016 90.690377 166.189569 78.959488 166.189569 78.959488 C 166.709618 79.789186 152.30901 91.430752 152.999763 92.540324 C 154.460666 94.890471 172.420239 78.749087 173.160615 79.949964 C 173.369031 80.299311 154.450741 94.769391 155.470991 96.389087 C 155.750865 96.82974 163.889044 90.61098 164.119295 90.980175 C 164.440853 91.500225 157.320938 99.390289 157.320938 99.390289 C 157.320938 99.390289 165.39957 93.179469 165.929544 94.009166 C 166.0407 94.189794 158.549605 101.480412 159.149051 102.429205 C 159.149051 102.429205 167.650471 96.879363 167.759642 97.050066 C 168.369013 98.030618 160.240758 104.340684 160.520632 104.769427 C 160.540481 104.799201 168.930746 98.989335 169.159012 99.37044 C 169.649288 100.150514 161.169701 106.000079 161.870379 107.119575 C 162.610755 108.320453 169.819991 100.509785 170.550442 101.690814 C 170.760844 102.04016 163.599246 110.249797 163.920803 110.759922 C 164.289999 111.339519 172.229686 104.670181 172.63064 105.309326 C 172.739811 105.48003 164.980751 112.780572 165.409495 113.489189 C 166.020851 114.469741 174.139181 108.040579 174.139181 108.040579 C 174.139181 108.040579 167.390447 117.290315 167.789416 117.919535 L 176.499253 112.470924 C 176.69973 112.780572 169.639363 121.520183 169.639363 121.520183 C 171.050643 123.7691 190.899861 106.180707 191.820865 107.669398 C 192.509633 108.769045 171.679863 125.599198 171.679863 125.599198 C 172.50956 126.929095 188.720417 114.189867 189.059839 114.73969 C 190.199184 116.569788 170.46906 128.790952 170.810467 129.330851 C 170.810467 129.330851 186.179717 117.290315 187.269439 119.039031 C 188.619186 121.190686 167.56909 132.540469 168.430546 133.91999 C 169.800142 136.109359 185.320246 123.169653 185.409567 123.310583 C 185.500874 123.459452 163.049422 141.520256 163.779874 142.67945 C 164.260225 143.4496 184.960975 129.440021 184.960975 129.440021 L 159.109353 150.849389 C 159.109353 150.849389 184.82997 130.460271 186.769239 133.560719 C 188.470317 136.289987 154.010088 158.930006 154.010088 158.930006 C 154.810012 160.220205 172.459937 144.170127 173.92084 146.4905 C 174.949029 148.130046 149.240321 163.550904 150.040245 164.839118 C 151.100193 166.530272 170.399588 150.70052 171.020869 151.72077 " transform="matrix(1.967962,0,0,1.967962,0,0.442791)"/>
<path style="fill:none;stroke-width:0.9;stroke-linecap:round;stroke-linejoin:round;stroke:rgb(100%,100%,100%);stroke-opacity:1;stroke-miterlimit:4;" d="M 114.329515 177.080131 C 114.329515 177.080131 129.670976 164.729947 130.909567 166.730749 C 131.780948 168.130119 122.959955 177.250835 123.059201 177.409628 C 124.029828 178.940003 139.520159 164.829194 140.550333 166.490573 C 141.52096 168.020948 127.769421 176.119429 128.620953 177.459251 C 128.620953 177.459251 146.110099 165.069369 146.769093 166.119393 C 146.769093 166.119393 135.560239 176.319906 136.159686 177.270684 C 137.370488 179.200028 167.18997 156.379381 167.870798 157.449254 C 168.609189 158.630283 138.019558 178.130155 139.089431 179.849097 C 139.089431 179.849097 161.590505 161.520329 163.509924 164.589018 C 163.509924 164.589018 132.340696 183.429896 134.029865 186.12939 C 134.029865 186.12939 167.219743 159.259503 169.990694 163.660075 " transform="matrix(1.967962,0,0,1.967962,0,0.442791)"/>
<path style="fill:none;stroke-width:0.9;stroke-linecap:round;stroke-linejoin:round;stroke:rgb(100%,100%,100%);stroke-opacity:1;stroke-miterlimit:4;" d="M 76.800597 139.880711 C 76.879994 139.999806 85.700987 134.330869 85.700987 134.330869 C 85.820082 134.509512 78.720017 143.380128 78.940343 143.6997 L 87.739502 138.189557 C 88.289325 139.080787 80.29009 146.149094 80.29009 146.149094 C 80.29009 146.149094 89.04955 140.579403 89.089249 140.660785 C 89.780001 141.760432 81.929635 149.080823 81.929635 149.080823 C 81.929635 149.080823 90.119423 142.649677 90.69902 143.59053 C 90.849874 143.850554 83.739884 152.300367 84.170612 152.97921 L 92.930072 147.500826 C 92.930072 147.500826 85.540208 155.420664 86.090032 156.299984 C 86.090032 156.299984 94.309593 149.960144 94.849492 150.819615 C 95.429089 151.740619 87.640256 158.920081 87.930054 159.380583 C 88.100757 159.640608 96.260771 153.209461 96.699439 153.900214 C 96.909841 154.24956 89.859398 162.580277 90.030101 162.840302 C 90.740704 163.979647 98.219889 156.369457 98.82926 157.330159 " transform="matrix(1.967962,0,0,1.967962,0,0.442791)"/>
<path style="fill:none;stroke-width:0.9;stroke-linecap:round;stroke-linejoin:round;stroke:rgb(100%,100%,100%);stroke-opacity:1;stroke-miterlimit:4;" d="M 66.689405 171.059863 C 66.979204 171.540214 79.760116 162.780754 79.819663 162.850226 C 80.300014 163.600527 71.810504 171.609687 72.169774 172.15951 C 72.320629 172.40961 85.010234 162.77083 85.619605 163.749396 C 86.169428 164.640626 75.929216 172.780791 75.990749 172.880037 C 76.219015 173.249232 88.610882 162.600126 89.69068 164.319069 C 90.240503 165.210299 79.950668 173.120212 80.240467 173.600563 C 81.610063 175.780008 100.889609 160.549702 100.959081 160.650933 C 101.129785 160.910958 83.569181 172.739107 84.500109 174.239708 C 85.899479 176.460836 102.290964 162.639825 102.509305 162.979246 C 103.579178 164.700174 91.600175 173.860588 92.449721 175.210335 C 93.680373 177.189302 106.419601 165.160676 107.019048 166.109468 C 107.019048 166.109468 97.110318 174.849079 97.660141 175.730385 L 112.539116 166.429041 C 113.150471 167.409592 99.72049 176.830031 100.480715 178.070607 C 100.99084 178.870531 117.809083 165.089218 118.77971 166.639442 C 119.950814 168.509239 101.159558 178.739526 102.229431 180.450529 C 102.229431 180.450529 123.210056 165.109068 124.210456 166.7109 C 125.470882 168.729565 103.440234 181.849899 104.279856 183.219495 C 104.53988 183.630374 112.439869 176.720861 113.06909 177.729201 C 113.269567 178.050758 106.520832 186.089692 106.659777 186.300094 C 107.150053 187.080168 114.680846 179.579148 115.449011 180.8098 L 109.069472 189.350918 C 109.649069 190.289786 117.279109 182.889998 117.870616 183.840775 C 118.620916 185.039668 111.320374 191.820161 112.060749 192.999205 C 112.060749 192.999205 120.510562 186.889615 120.879757 187.489062 C 120.879757 187.489062 114.609389 195.710608 115.35969 196.889652 C 115.540317 197.1993 123.890884 190.780062 124.24023 191.33981 C 124.809903 192.229055 117.870616 199.61098 118.180264 200.129044 C 118.180264 200.129044 154.09941 177.409628 154.230415 177.610106 L 108.599046 211.599908 C 108.599046 211.599908 144.919146 185.339391 146.520978 187.899941 " transform="matrix(1.967962,0,0,1.967962,0,0.442791)"/>
<path style="fill:none;stroke-width:0.9;stroke-linecap:round;stroke-linejoin:round;stroke:rgb(100%,100%,100%);stroke-opacity:1;stroke-miterlimit:4;" d="M 143.0295 30.13041 C 143.519776 30.930334 155.979131 21.430498 156.239156 21.87909 C 158.589303 25.640517 127.28907 40.060974 128.6805 42.270192 C 130.320046 44.880365 168.789817 17.210554 168.789817 17.210554 " transform="matrix(1.967962,0,0,1.967962,0,0.442791)"/>
<path style="fill:none;stroke-width:0.9;stroke-linecap:round;stroke-linejoin:round;stroke:rgb(100%,100%,100%);stroke-opacity:1;stroke-miterlimit:4;" d="M 73.499672 27.690941 C 74.279746 28.949382 87.999526 17.379272 88.559274 18.270502 C 88.729978 18.530527 79.01974 26.089109 79.66087 27.119284 C 80.550115 28.550412 91.500929 18.840175 91.899898 19.469395 C 92.149998 19.870349 85.949102 27.780263 86.389755 28.500789 C 86.929654 29.340411 96.92969 21.549593 97.100393 21.809618 C 97.100393 21.809618 91.389773 30.38051 91.439396 30.479756 L 101.489055 24.209388 C 101.489055 24.209388 95.309994 31.829503 95.90944 32.780281 C 96.510871 33.729074 105.099628 25.970014 105.589904 26.740164 C 106.159577 27.649258 100.010289 34.71955 100.639509 35.710026 C 101.419583 36.970451 110.040099 29.769154 110.069873 29.820762 C 110.530375 30.559153 104.950759 38.760851 104.950759 38.760851 C 105.359653 39.419845 113.620898 31.960508 114.230269 32.960909 C 114.230269 32.960909 108.720126 41.519892 108.970226 41.920846 C 109.260025 42.379363 117.930163 35.809272 118.160414 36.180452 C 118.329133 36.440477 111.840423 43.899813 112.439869 44.880365 C 112.590724 45.130465 121.429581 38.90972 121.580435 39.15982 L 115.149288 47.319834 C 115.409313 47.730713 124.279928 41.609213 124.279928 41.609213 C 124.690807 42.280117 117.640365 49.259102 118.239811 50.229729 C 121.770987 55.870877 170.320191 13.979101 171.989511 16.650806 C 174.919255 21.339191 111.630021 53.310328 114.269967 57.530272 C 119.379156 65.710135 175.55046 9.82069 179.780329 16.589273 C 184.010197 23.359842 107.870579 62.649385 108.799523 64.159911 C 112.209619 69.620431 150.679389 36.549648 151.320519 37.589747 C 153.150617 40.499642 101.669683 73.510878 101.669683 73.510878 C 104.400936 77.879691 132.580872 48.520711 135.129511 52.599726 " transform="matrix(1.967962,0,0,1.967962,0,0.442791)"/>
<path style="fill:none;stroke-width:0.9;stroke-linecap:round;stroke-linejoin:round;stroke:rgb(100%,100%,100%);stroke-opacity:1;stroke-miterlimit:4;" d="M 70.36945 92.570098 C 71.870051 94.979793 92.09045 76.279844 93.319117 78.229037 C 93.980096 79.29097 82.290891 88.540706 83.269458 90.09093 C 83.269458 90.09093 117.920239 62.109487 120.760662 66.670837 C 121.370033 67.649404 86.310358 88.040506 88.809375 92.030199 C 90.389372 94.560974 113.579215 76.549793 113.579215 76.549793 C 115.990895 80.420391 82.95981 96.980594 84.440561 99.330742 C 86.449302 102.550285 120.329934 74.660148 121.350184 76.269919 C 121.350184 76.269919 75.990749 102.909556 79.440543 108.419699 C 80.440944 110.019546 98.140492 93.820598 99.440616 95.920646 " transform="matrix(1.967962,0,0,1.967962,0,0.442791)"/>
<path style="fill:none;stroke-width:0.9;stroke-linecap:round;stroke-linejoin:round;stroke:rgb(100%,100%,100%);stroke-opacity:1;stroke-miterlimit:4;" d="M 35.639272 104.169981 C 38.519394 108.790879 69.559602 77.419189 72.060604 81.420791 L 55.970827 96.440695 C 56.719143 97.639588 82.449685 78.770921 82.949885 79.580769 C 83.130513 79.890417 59.470244 99.439912 59.470244 99.439912 C 60.220545 100.64079 67.999454 92.949218 68.519503 93.7809 C 69.039553 94.610597 60.599665 102.709079 60.599665 102.709079 C 60.770368 102.969103 68.960156 96.019892 69.599301 97.07984 C 70.399224 98.35019 61.75092 105.950456 61.75092 105.950456 C 62.13004 106.559827 69.940707 99.090566 70.720781 100.339082 C 71.240831 101.180689 62.640165 109.299019 63.479786 110.650751 C 64.190389 111.790096 71.790654 104.040961 72.419875 105.069151 C 72.540955 105.269628 64.79976 114.229565 64.980387 114.549138 C 64.980387 114.549138 73.519521 108.350227 73.910551 108.969522 C 74.140802 109.320853 66.359908 117.969158 66.379757 118.000917 C 66.689405 118.489207 75.319845 112.419316 75.319845 112.419316 C 76.040372 113.570571 66.899807 119.840939 67.679881 121.089455 C 68.59096 122.550358 93.999945 104.650332 93.999945 104.650332 C 94.549769 105.539577 67.57071 121.919152 69.120934 124.410229 C 69.660833 125.269701 89.770077 110.410575 90.270277 111.200574 C 91.96937 113.929842 68.430182 128.860424 68.920457 129.650423 C 70.299978 131.859641 84.690662 116.609486 86.119805 118.910011 C 86.199202 119.05094 65.960939 136.550012 65.960939 136.550012 C 65.960939 136.550012 81.330189 124.479702 82.429836 126.260177 C 83.090815 127.300276 62.929963 140.160585 63.870816 141.659201 C 65.270186 143.900177 83.259533 129.539268 83.259533 129.539268 L 61.939487 146.700902 C 62.88034 148.199518 84.460411 131.960872 84.750209 132.449163 C 85.129329 133.080368 58.630622 151.57984 59.650872 153.219386 C 59.650872 153.219386 73.440124 142.899777 74.210274 144.120504 C 75.309921 145.879144 57.459518 155.51991 58.430145 157.070134 C 59.529792 158.83076 71.899825 146.990701 72.650126 148.189594 " transform="matrix(1.967962,0,0,1.967962,0,0.442791)"/>
<path style="fill:none;stroke-width:0.9;stroke-linecap:round;stroke-linejoin:round;stroke:rgb(100%,100%,100%);stroke-opacity:1;stroke-miterlimit:4;" d="M 17.620151 102.310109 L 29.309356 95.009567 C 29.750009 95.730093 7.600266 112.909592 7.620115 112.929441 C 10.000036 116.730567 46.609935 82.760614 49.220108 86.930935 C 49.220108 86.930935 3.630422 118.669835 4.400572 119.910412 C 4.400572 119.910412 63.839057 79.600618 65.270186 81.869384 C 67.080435 84.769355 1.889646 121.089455 3.590724 123.820708 C 5.289817 126.549975 24.849237 110.089018 25.049714 110.410575 C 26.770641 113.169617 3.529191 128.70957 3.529191 128.70957 C 3.900371 129.309017 14.930582 121.589655 14.930582 121.589655 C 15.470481 122.449127 4.219944 132.590092 4.219944 132.590092 C 4.96032 133.769136 13.21958 125.869147 13.71978 126.649221 C 14.180282 127.369748 5.079415 135.549611 5.480369 136.160967 C 6.08974 137.139533 13.549077 129.459871 14.279528 130.650824 C 14.680482 131.289969 6.500619 138.370185 6.869815 138.949782 L 15.520104 133.54087 C 15.980606 134.259412 8.340642 141.290005 8.340642 141.290005 C 8.739611 141.92915 16.78053 135.490063 17.020705 135.859259 C 17.360127 136.399158 11.389482 145.079221 11.389482 145.079221 C 11.619733 145.450401 19.930601 138.959707 20.289871 139.529379 C 20.57967 140.00973 14.650708 148.300749 14.650708 148.300749 C 14.99013 148.840648 23.299013 141.690959 23.840897 142.560355 C 24.120771 142.989098 17.600302 150.249942 18.229522 151.240418 C 18.739647 152.050267 27.620188 145.039522 27.769057 145.289623 C 28.380413 146.270174 21.879794 153.300767 22.429617 154.190012 C 23.12037 155.289659 32.030684 147.500826 32.340332 147.989116 C 32.910005 148.900196 26.300215 156.530235 26.300215 156.530235 C 26.510617 156.879581 36.189096 149.569114 36.550351 150.130847 C 36.800452 150.509967 30.369305 158.350409 30.710711 158.890307 C 31.149379 159.600909 40.899315 151.589765 41.310194 152.260668 C 41.830244 153.090366 34.279601 159.849025 34.930655 160.899048 C 35.139072 161.240455 45.819937 154.029234 45.84971 154.070917 C 46.000564 154.319032 39.039443 162.479046 39.220071 162.75098 C 39.769895 163.620376 49.730233 154.529434 50.460684 155.720387 C 50.81003 156.27021 44.370944 164.100727 44.859234 164.880802 C 44.97039 165.04952 56.459118 157.56041 56.490877 157.610033 C 56.689369 157.919681 50.000182 166.520347 50.05973 166.639442 C 50.339604 167.080095 70.309903 153.189612 70.659249 153.769209 C 70.659249 153.769209 52.310631 165.899066 53.449976 167.709315 C 53.680227 168.080496 69.299577 157.820434 69.299577 157.820434 C 70.339676 159.479829 54.940653 169.910594 54.940653 169.910594 C 56.169319 171.869711 68.559202 159.229729 69.539753 160.779953 C 70.679098 162.590202 53.60083 176.059882 53.60083 176.059882 C 55.059748 178.39018 75.270222 161.039978 75.929216 162.099926 C 75.929216 162.099926 52.020832 180.279825 52.60043 181.210754 C 52.659977 181.300075 64.369031 172.790715 64.839458 173.560865 C 66.080034 175.539832 51.389627 187.030545 51.659577 187.469212 C 51.800506 187.679614 63.100666 179.769701 63.350767 180.170655 C 63.350767 180.170655 50.389227 190.920992 51.18915 192.209206 C 51.359854 192.469231 62.169738 184.569242 62.50916 185.140899 C 63.569108 186.830068 50.010107 195.970633 50.899352 197.399777 C 51.389627 198.179851 61.790618 190.599434 61.790618 190.599434 C 62.699712 192.060337 50.129202 199.730075 50.869578 200.909119 C 50.869578 200.909119 60.919237 193.459707 61.439287 194.299329 C 62.38014 195.79993 50.750482 205.009967 51.06013 205.500243 C 51.31023 205.899212 60.48057 197.919826 61.23087 199.150478 C 61.550442 199.670527 51.429326 209.319232 51.429326 209.319232 C 52.179626 210.52011 61.080016 202.880146 61.260644 203.169945 C 61.639764 203.779316 52.040682 213.090584 52.040682 213.090584 C 52.360254 213.600709 61.409513 206.919462 61.550442 207.149713 C 61.889864 207.689612 53.070856 217.290679 53.070856 217.290679 C 53.85093 218.549119 62.25906 211.550285 62.25906 211.550285 C 62.540918 211.990937 54.710402 221.770647 54.710402 221.770647 C 55.059748 222.34032 62.979586 215.200556 63.610791 216.220806 C 63.960138 216.790478 55.970827 224.329212 55.970827 224.329212 C 56.290399 224.839337 64.769986 218.819069 64.769986 218.819069 C 65.089558 219.339118 57.050625 226.060064 57.739392 227.15971 C 58.350748 228.140262 66.349984 221.210899 66.610008 221.619793 C 67.239229 222.630119 60.230469 229.839355 60.690971 230.579731 C 61.459136 231.810382 69.799778 224.210116 70.109426 224.690467 C 70.109426 224.720241 63.610791 232.300658 64.329333 233.449928 C 64.809684 234.200228 75.389318 226.179159 75.540172 226.439184 L 67.979604 235.369347 C 68.269403 235.829849 83.039207 225.13906 83.410387 225.720642 C 83.410387 225.720642 73.190024 236.5603 73.380577 236.869948 C 76.429417 241.750871 136.149761 186.879691 140.979076 194.630811 C 140.979076 194.630811 78.009415 233.090657 80.530265 237.100199 C 82.050716 239.519819 131.919893 197.4494 135.310139 202.880146 C 135.719033 203.549065 97.80901 231.500734 97.930091 231.699227 C 98.440215 232.49915 110.319973 222.46934 111.000801 223.539213 " transform="matrix(1.967962,0,0,1.967962,0,0.442791)"/>
<path style="fill:none;stroke-width:0.9;stroke-linecap:round;stroke-linejoin:round;stroke:rgb(100%,100%,100%);stroke-opacity:1;stroke-miterlimit:4;" d="M 61.469061 21.950547 L 67.669957 18.07995 C 68.410332 19.249069 55.710802 28.879909 55.889445 29.169708 C 55.889445 29.169708 76.260698 16.180379 76.379794 16.359022 C 76.379794 16.359022 52.239174 34.030782 53.22965 35.61078 C 53.489675 36.019673 83.170211 16.900906 83.170211 16.900906 C 83.319081 17.149021 49.380886 38.619921 51.689351 42.319815 C 52.33048 43.34999 65.04986 32.319779 65.80016 33.500808 C 66.94943 35.34083 50.980733 48.409556 51.010507 48.469103 C 51.270532 48.899831 62.350366 40.950219 62.550843 41.259867 C 63.060968 42.059791 50.879502 54.280955 50.879502 54.280955 C 51.679426 55.54932 61.159413 47.089583 61.490895 47.639406 C 62.409914 49.100309 50.30983 57.010222 50.980733 58.119794 C 51.409477 58.810546 61.040317 51.400833 61.240795 51.710481 C 62.050643 53.010605 50.43091 62.13926 51.419401 63.719258 C 51.790582 64.30084 60.58974 56.400851 61.300342 57.540196 C 61.649689 58.09002 52.070456 68.850281 52.070456 68.850281 C 52.610354 69.709752 61.089941 61.809763 61.719161 62.820089 C 62.300743 63.770866 52.530957 72.419171 52.719525 72.740728 C 52.949776 73.119848 61.689387 65.990009 62.199512 66.819706 C 62.199512 66.819706 52.810831 76.180598 53.660378 77.540269 C 53.660378 77.540269 62.709637 71.200429 63.019285 71.700629 C 63.680264 72.760577 54.170503 81.329485 54.710402 82.190941 C 54.789799 82.310036 63.319008 75.380674 63.960138 76.410849 " transform="matrix(1.967962,0,0,1.967962,0,0.442791)"/>
<path style="fill:none;stroke-width:6;stroke-linecap:round;stroke-linejoin:miter;stroke:rgb(23.921569%,21.176471%,23.921569%);stroke-opacity:1;stroke-miterlimit:10;" d="M 149.619441 126.81 C 149.619441 139.285234 139.506264 149.400396 127.029045 149.400396 C 114.553811 149.400396 104.440634 139.285234 104.440634 126.81 C 104.440634 114.334766 114.553811 104.219604 127.029045 104.219604 C 139.506264 104.219604 149.619441 114.334766 149.619441 126.81 Z M 149.619441 126.81 " transform="matrix(1.967962,0,0,1.967962,0,0.442791)"/>
<path style="fill:none;stroke-width:6;stroke-linecap:round;stroke-linejoin:miter;stroke:rgb(23.921569%,21.176471%,23.921569%);stroke-opacity:1;stroke-miterlimit:10;" d="M 208.869359 153.360315 C 204.90944 154.940313 200.540627 156.339683 196.179754 157.520711 C 192.999909 147.609996 189.049914 137.119684 184.290071 126.609523 C 189.049914 116.099362 193.200386 105.809527 196.179754 95.900797 C 223.529992 103.830559 239.969115 115.720241 239.969115 126.81 C 239.969115 136.119284 228.480387 146.029999 208.859434 153.360315 Z M 191.030866 184.269518 C 194.399279 205.069515 191.630313 219.730148 183.500073 224.48999 C 181.519121 225.690868 179.139199 226.270465 176.57071 226.270465 C 164.679043 226.270465 149.819918 216.560227 134.950868 201.899595 C 141.880231 194.370786 148.819518 185.660949 155.550388 176.149203 C 167.039115 175.150787 177.950231 173.370312 188.240066 171.200793 C 189.440944 175.760158 190.219033 180.109122 191.020942 184.279443 L 191.040791 184.279443 Z M 70.569927 224.48999 C 62.439687 219.730148 59.680646 205.069515 63.039134 184.269518 C 63.640565 180.109122 64.619132 175.760158 65.820009 171.190868 C 76.129694 173.57079 87.02096 175.150787 98.509688 176.139278 C 105.240558 185.649039 112.179845 194.160384 119.109207 201.88967 C 104.450559 216.35975 89.579524 226.260541 77.489365 226.260541 C 74.910952 226.260541 72.540955 225.659109 70.560003 224.480066 L 70.579852 224.480066 Z M 14.09096 126.81 C 14.09096 117.500716 25.379211 107.590001 45.200641 100.259685 C 49.16056 98.679687 53.529373 97.280317 57.890246 96.099289 C 61.070091 106.010004 65.020086 116.500316 69.779929 127.010477 C 65.020086 137.520638 60.869614 147.810473 57.890246 157.719203 C 30.540008 149.789441 14.100885 137.899759 14.100885 126.81 Z M 63.039134 69.350482 C 59.670721 48.550485 62.439687 33.889852 70.569927 29.13001 C 72.550879 27.929132 74.930801 27.349535 77.49929 27.349535 C 89.390957 27.349535 104.250082 37.059773 119.119132 51.720405 C 112.189769 59.249214 105.250482 67.959051 98.519612 77.470797 C 87.030885 78.469213 76.119769 80.249688 65.829934 82.419207 C 64.629056 77.859842 63.850967 73.510878 63.049058 69.340557 L 63.029209 69.340557 Z M 171.030793 101.450638 L 163.900954 89.560956 C 171.429763 90.559372 178.559602 91.7404 185.300397 93.320398 C 183.120952 99.850791 180.739046 106.790078 177.769603 113.71944 C 175.590159 109.559044 173.410715 105.390708 171.040718 101.430789 L 171.040718 101.450638 Z M 127.029045 59.840721 C 131.790873 64.989608 136.340314 70.549374 140.699202 76.279844 C 136.139837 76.079367 131.590396 75.880875 127.029045 75.880875 C 122.46968 75.880875 117.920239 76.079367 113.360873 76.279844 C 117.719762 70.529525 122.269203 64.989608 127.029045 59.840721 Z M 76.310321 113.540797 C 73.330954 106.60945 70.960957 99.87064 68.779528 93.13977 C 75.510398 91.559772 82.650162 90.36088 90.180956 89.380328 C 87.799049 93.13977 85.23056 97.109614 83.049131 101.27001 C 80.66921 105.430406 78.489766 109.600727 76.320246 113.560646 L 76.320246 113.540797 Z M 90.169046 164.070953 C 82.640237 163.070553 75.510398 161.889524 68.769603 160.309526 C 70.949047 153.779134 73.330954 146.839847 76.300397 139.910484 C 78.479841 143.870404 80.659285 148.040724 83.029282 152.000644 C 85.409203 156.359532 87.789125 160.130884 90.159121 164.090803 L 90.159121 164.070953 Z M 127.029045 193.779279 C 122.269203 188.630392 117.719762 183.070626 113.360873 177.340156 C 117.920239 177.540633 122.46968 177.739125 127.029045 177.739125 C 131.590396 177.739125 136.139837 177.540633 140.699202 177.340156 C 136.340314 183.090475 131.790873 188.630392 127.029045 193.779279 Z M 177.759679 140.089127 C 180.739046 147.020475 183.109043 153.759284 185.290472 160.490154 C 178.559602 162.070152 171.419838 163.269045 163.889044 164.249596 C 166.270951 160.490154 168.83944 156.520311 171.020869 152.359914 C 173.40079 148.199518 175.580234 144.029197 177.749754 140.069278 L 177.749754 140.089127 Z M 161.320556 146.629445 C 157.749681 152.969285 153.589285 159.31905 149.230396 165.650951 C 141.90008 166.250398 134.569763 166.450875 127.029045 166.450875 C 119.490312 166.450875 111.969443 166.250398 104.829679 165.650951 C 100.470791 159.309126 96.500947 152.959361 92.939997 146.629445 C 89.180555 140.099052 85.60968 133.360242 82.429836 126.81 C 85.60968 120.279607 89.160706 113.540797 92.939997 106.990555 C 96.510871 100.650715 100.669283 94.30095 105.030156 87.969049 C 112.360473 87.369602 119.690789 87.169125 127.229522 87.169125 C 134.770241 87.169125 142.289125 87.369602 149.430874 87.969049 C 153.789762 94.310874 157.759606 100.660639 161.320556 106.990555 C 165.079998 113.520948 168.650872 120.259758 171.830717 126.81 C 168.46032 133.340393 165.099847 139.890635 161.320556 146.629445 Z M 183.509997 29.13001 C 191.640237 33.889852 194.399279 48.550485 191.040791 69.350482 C 190.439359 73.510878 189.460793 77.859842 188.259915 82.429132 C 177.950231 80.04921 167.06095 78.469213 155.570237 77.480722 C 148.839367 67.970961 141.90008 59.459616 134.970718 51.73033 C 149.629366 37.26025 164.5004 27.359459 176.59056 27.359459 C 179.170958 27.359459 181.540955 27.960891 183.519922 29.139934 L 183.500073 29.139934 Z M 212.829278 89.570881 C 208.47039 87.990883 203.920949 86.389051 199.159121 85.00953 C 200.359999 80.249688 201.34055 75.49977 202.140474 70.940404 C 206.30087 44.789058 201.73952 26.359059 189.059839 19.229219 C 185.300397 17.049775 181.130076 16.049374 176.370233 16.049374 C 162.499599 16.049374 144.859598 26.359059 127.040955 43.60009 C 109.200477 26.359059 91.580325 16.049374 77.709691 16.049374 C 72.949849 16.049374 68.799377 17.049775 65.020086 19.229219 C 52.33048 26.559536 47.779054 44.979611 51.939451 70.940404 C 52.739374 75.49977 53.719926 80.249688 54.920803 85.00953 C 50.160961 86.389051 45.609535 87.790406 41.250646 89.570881 C 16.470882 99.080641 2.999217 112.159292 2.999217 126.81 C 2.999217 141.460708 16.669374 154.539359 41.240722 164.049119 C 45.59961 165.629117 50.149051 167.230949 54.910879 168.61047 C 53.710001 173.370312 52.72945 178.12023 51.929526 182.679596 C 47.76913 208.830942 52.33048 227.260941 65.010161 234.390781 C 68.769603 236.570225 72.939924 237.570626 77.699767 237.570626 C 91.770878 237.570626 109.410879 227.260941 127.029045 210.01991 C 144.869523 227.260941 162.489675 237.570626 176.360309 237.570626 C 181.120151 237.570626 185.270623 236.570225 189.049914 234.390781 C 201.73952 227.060464 206.290946 208.640389 202.130549 182.679596 C 201.330626 178.12023 200.350074 173.370312 199.149197 168.61047 C 203.909039 167.230949 208.460465 165.829594 212.819354 164.049119 C 237.589194 154.539359 251.060858 141.460708 251.060858 126.81 C 251.060858 112.159292 237.589194 99.080641 212.819354 89.570881 Z M 212.829278 89.570881 " transform="matrix(1.967962,0,0,1.967962,0,0.442791)"/>
</g>
</svg>
