<?xml version="1.0" encoding="UTF-8"?>
<svg xmlns="http://www.w3.org/2000/svg" xmlns:xlink="http://www.w3.org/1999/xlink" width="500px" height="500px" viewBox="0 0 500 497" version="1.1">
<defs>
<filter id="alpha" filterUnits="objectBoundingBox" x="0%" y="0%" width="100%" height="100%">
  <feColorMatrix type="matrix" in="SourceGraphic" values="0 0 0 0 1 0 0 0 0 1 0 0 0 0 1 0 0 0 1 0"/>
</filter>
<mask id="mask0">
  <g filter="url(#alpha)">
<rect x="0" y="0" width="500" height="497" style="fill:rgb(0%,0%,0%);fill-opacity:0.54902;stroke:none;"/>
  </g>
</mask>
<clipPath id="clip1">
  <rect x="0" y="0" width="500" height="497"/>
</clipPath>
<g id="surface5" clip-path="url(#clip1)">
<path style=" stroke:none;fill-rule:nonzero;fill:rgb(14.901961%,36.862745%,61.176471%);fill-opacity:1;" d="M 371.683594 366.027344 L 225.390625 255.789062 L 371.683594 145.554688 Z M 476.507812 57.714844 L 376.0625 9.042969 C 372.34375 7.539062 368.378906 6.714844 364.367188 6.609375 L 362.425781 6.609375 C 356.082031 6.570312 349.925781 8.632812 344.863281 12.445312 L 341.453125 15.375 L 149.332031 190.351562 L 65.707031 128.292969 C 61.949219 125.425781 57.277344 123.960938 52.546875 124.148438 C 47.898438 124.085938 43.371094 125.550781 39.632812 128.292969 L 12.8125 152.628906 C 8.554688 156.382812 6.15625 161.804688 6.21875 167.476562 C 6.21875 173.210938 8.597656 178.675781 12.8125 182.574219 L 85.957031 248.53125 L 12.789062 314.691406 C 8.617188 318.570312 6.261719 323.972656 6.261719 329.667969 C 6.261719 335.335938 8.617188 340.761719 12.789062 344.640625 L 39.609375 368.976562 C 43.660156 372.503906 48.867188 374.421875 54.238281 374.339844 C 58.371094 374.027344 62.320312 372.605469 65.707031 370.191406 L 149.332031 306.671875 L 341.453125 481.644531 C 346.371094 486.699219 352.941406 489.8125 359.988281 490.410156 L 364.140625 490.410156 C 368.316406 490.472656 372.425781 489.460938 376.085938 487.480469 L 476.527344 438.808594 C 486.898438 433.859375 493.59375 423.507812 493.84375 412.039062 L 493.84375 85.207031 C 493.800781 73.492188 487.085938 62.832031 476.527344 57.714844 Z M 476.507812 57.714844 "/>
<path style="fill:none;stroke-width:0.9;stroke-linecap:round;stroke-linejoin:round;stroke:rgb(100%,100%,100%);stroke-opacity:1;stroke-miterlimit:4;" d="M 180.140877 70.430579 C 180.409323 70.860521 234.240421 30.05005 237.200895 34.779421 C 239.180216 37.940542 177.889328 69.549859 180.140877 73.159863 C 182.800766 77.410046 234.830247 31.790656 238.059168 36.970803 C 242.429932 43.959741 177.359997 72.059437 180.140877 76.500916 C 181.239239 78.269932 234.52021 33.349435 238.639542 39.940628 C 240.779552 43.3707 177.870424 75.819068 180.140877 79.449907 C 183.689287 85.130076 237.210347 40.44065 238.709489 42.849845 C 241.9006 47.950443 175.639671 74.309534 180.140877 81.510602 C 180.140877 81.510602 236.140342 40.800514 238.709489 44.910539 C 241.490369 49.359595 176.450682 78.180913 180.140877 84.080788 C 180.570013 84.779682 235.480568 42.310049 238.709489 47.480726 C 243.509389 55.159087 175.819265 80.270018 180.140877 87.179407 C 184.460598 94.090689 237.070453 47.950443 238.709489 50.579344 C 242.479084 56.609907 178.269313 87.630184 180.140877 90.630313 C 183.780029 96.46011 235.830305 49.420203 238.709489 54.030251 C 241.590563 58.640298 180.140877 93.439146 180.140877 93.439146 C 180.339376 93.759236 238.709489 56.839084 238.709489 56.839084 C 240.900542 60.350599 176.140645 90.660617 180.140877 97.04915 C 180.140877 97.04915 236.919215 57.589116 238.709489 60.449088 C 243.000853 67.320596 179.67015 100.130722 180.140877 100.880755 C 181.269487 102.689545 234.769752 57.969814 238.709489 64.280692 C 240.669905 67.409615 175.900555 96.289648 180.140877 103.079713 C 184.029571 109.299678 238.709489 66.479651 238.709489 66.479651 C 240.8098 69.849114 180.140877 106.509785 180.140877 106.509785 C 183.029513 111.129302 236.560026 66.470181 238.709489 69.909723 C 239.830537 71.710937 176.550877 102.860007 180.140877 108.600784 C 180.520861 109.199295 234.109979 64.640556 238.709489 72.000722 C 238.709489 72.000722 179.719302 110.019406 180.140877 110.68989 C 183.090008 115.40979 238.509099 73.779208 238.709489 74.089827 C 238.709489 74.089827 179.30907 112.73922 180.140877 114.080187 C 181.409381 116.110578 238.709489 77.480125 238.709489 77.480125 C 243.199352 84.660359 175.809813 109.780759 180.140877 116.709088 C 182.379192 120.290682 237.210347 77.720666 238.709489 80.11092 C 240.909995 83.630011 179.269371 119.180786 180.140877 120.580467 C 184.539997 127.620543 234.569363 77.360802 238.709489 83.980405 C 239.100816 84.59975 176.100945 117.010238 180.140877 123.480213 C 184.850034 131.010841 238.199062 86.06004 238.709489 86.880151 C 238.709489 86.880151 178.360055 123.790833 180.140877 126.650805 C 183.110803 131.399115 238.709489 90.050742 238.709489 90.050742 C 242.859068 96.689286 177.630334 125.209455 180.140877 129.230461 C 181.449081 131.319566 238.709489 92.630399 238.709489 92.630399 C 238.709489 92.630399 179.180519 131.289262 180.140877 132.829101 C 180.140877 132.829101 234.849152 90.069683 238.709489 96.230933 C 238.709489 96.230933 176.089602 128.349742 180.140877 134.840552 C 182.749724 139.020656 238.320053 97.630615 238.709489 98.240489 C 241.509273 102.710379 177.36945 133.569663 180.150329 138.009249 C 182.710024 142.109804 235.9305 96.960131 238.709489 101.409186 C 240.840047 104.820318 175.749318 133.899223 180.150329 140.939299 C 181.940603 143.810635 234.329273 97.319995 238.709489 104.339237 C 242.630321 110.619811 176.329692 137.660749 180.150329 143.759497 C 182.439687 147.420639 238.140458 106.240834 238.709489 107.170798 C 243.469689 114.790445 175.979955 140.60974 180.150329 147.269117 C 184.320703 153.930389 234.280121 103.579735 238.709489 110.680419 C 239.700095 112.260033 176.719128 143.799271 180.150329 149.290038 C 180.980245 150.629111 235.079789 106.890483 238.709489 112.699446 C 240.390116 115.40032 178.22016 149.14041 180.150329 152.220088 C 182.899071 156.619899 234.820795 109.400061 238.709489 115.629496 C 242.879863 122.300238 180.150329 155.680465 180.150329 155.680465 C 183.640134 161.260251 236.0496 114.830219 238.709489 119.089873 C 239.499705 120.349397 178.38085 156.720282 180.150329 159.55942 C 180.150329 159.55942 236.629973 119.629669 238.709489 122.970722 C 243.490485 130.620673 175.91946 155.460758 180.150329 162.22999 C 183.880224 168.199944 236.200837 121.620285 238.709489 125.639397 L 180.150329 164.669489 C 180.150329 164.669489 238.420247 127.609179 238.709489 128.080791 C 243.02921 134.999649 180.070929 167.129822 180.150329 167.249145 C 181.089892 168.74921 238.709489 130.660447 238.709489 130.660447 C 243.329795 138.060387 177.569839 165.699836 180.150329 169.830696 C 182.570129 173.709651 235.779262 128.550508 238.709489 133.240104 C 240.509215 136.109546 180.129534 172.410353 180.150329 172.440657 C 183.509692 177.810206 235.210231 130.239974 238.709489 135.850065 C 242.14069 141.340832 175.819265 168.7208 180.150329 175.649128 C 181.539824 177.880285 234.35952 132.090433 238.709489 139.06043 " transform="matrix(2.066286,0,0,2.062411,0,0.42288)"/>
<path style="fill:none;stroke-width:0.9;stroke-linecap:round;stroke-linejoin:round;stroke:rgb(100%,100%,100%);stroke-opacity:1;stroke-miterlimit:4;" d="M 72.609124 148.460457 C 73.31994 149.589293 107.59981 120.910027 110.159505 124.999218 C 112.719199 129.090304 72.200783 146.759626 74.129061 149.839304 C 76.970435 154.390637 111.849584 126.270106 111.849584 126.270106 C 114.189984 130.010798 73.660224 147.649816 76.219919 151.740901 C 77.530014 153.839476 112.649252 125.590153 114.180532 128.020182 C 114.61912 128.719076 74.970319 148.57978 77.900546 153.269376 C 78.800409 154.710726 113.469715 125.319308 116.050205 129.429333 C 117.789436 132.209756 79.620872 154.830049 79.620872 154.830049 C 82.649403 159.680637 115.600274 127.090218 117.959579 130.870683 C 119.420911 133.209799 79.399687 152.920876 81.889435 156.900214 C 82.11062 157.250608 119.059831 130.489985 120.490916 132.779857 C 120.8709 133.389731 83.719409 158.559377 83.719409 158.559377 C 85.630673 161.610645 119.910542 130.120651 122.530732 134.310226 C 122.530732 134.310226 83.08043 156.189957 85.679825 160.349227 C 86.199704 161.180702 123.3304 133.749595 124.710442 135.959918 C 125.659458 137.490287 87.250804 161.769742 87.250804 161.769742 C 87.740436 162.559549 125.489316 135.719377 126.459126 137.270581 C 128.480037 140.499886 89.010831 163.37019 89.010831 163.37019 C 89.010831 163.37019 126.650063 135.929614 128.419542 138.749811 C 129.729637 140.84081 90.33983 164.58047 90.33983 164.58047 C 93.360799 169.410223 128.230495 137.189138 129.899779 139.859707 C 132.259084 143.630703 89.990093 162.980022 91.82952 165.930907 C 92.769082 167.440441 129.550042 137.899396 131.559611 141.109761 C 134.410438 145.670564 93.519599 167.419607 93.580094 167.51999 C 95.370368 170.379962 130.499058 137.770602 133.499232 142.570051 C 133.499232 142.570051 92.92032 165.260423 95.330668 169.109074 L 135.450195 144.039812 C 135.75078 144.520893 96.400673 169.87994 96.699367 170.359128 C 96.699367 170.359128 136.979585 145.189482 136.979585 145.189482 C 136.979585 145.189482 97.179546 169.989794 98.349746 171.859192 C 101.030431 176.14915 137.399269 144.310657 138.820901 146.570224 C 138.820901 146.570224 100.470852 173.580858 100.760094 174.050575 C 100.760094 174.050575 138.560017 143.899654 141.499695 148.58925 C 144.05939 152.680336 102.499325 175.389648 102.869857 175.969218 C 105.679094 180.469412 141.660385 146.860009 143.849548 150.36016 C 146.040601 153.860311 105.049567 177.950364 105.049567 177.950364 C 105.599694 178.82919 145.399732 150.790103 146.280691 152.189784 C 147.789285 154.600873 106.709399 179.170114 107.119631 179.829233 C 110.429842 185.130598 147.059564 151.479526 148.579501 153.920919 C 150.910449 157.640777 108.65091 180.899355 109.110294 181.639917 C 110.579189 183.990397 147.390396 150.140453 150.800802 155.589552 C 151.43978 156.610429 110.520584 182.609656 110.970516 183.329384 C 110.970516 183.329384 150.409475 153.229602 152.870865 157.150225 C 155.859696 161.930734 109.439236 179.899312 112.39971 184.630576 C 114.329879 187.719724 152.759327 155.629326 154.460749 158.34914 L 114.810058 186.829535 C 115.450927 187.850412 156.470317 159.299939 157.139543 160.379531 C 160.43085 165.650592 116.730774 188.179972 117.299805 189.109936 C 120.029642 193.479442 158.869322 160.809474 159.920423 162.48 C 160.969633 164.150527 118.36981 189.289868 119.509763 191.119492 C 122.260395 195.509833 160.529154 161.379574 162.379923 164.330459 C 162.589765 164.660019 118.099473 187.490548 121.489084 192.920706 C 124.519505 197.7694 161.720149 161.419349 164.580428 165.989621 C 164.860218 166.449868 123.559147 194.810939 123.559147 194.810939 C 123.629094 194.930262 166.890581 167.739697 166.890581 167.739697 C 169.300929 171.599712 124.950532 195.470058 125.850395 196.900044 C 126.750258 198.33003 169.440824 169.660234 169.440824 169.660234 C 169.440824 169.660234 125.020479 194.589339 127.260685 198.180403 C 130.620048 203.549952 169.380329 168.249188 171.009913 170.840209 C 173.42026 174.700224 125.960042 194.799575 129.139811 199.879339 C 132.319579 204.959104 173.100771 172.410353 173.100771 172.410353 C 174.919402 175.319569 130.880933 201.180532 131.279821 201.830181 C 131.909347 202.839694 172.389955 169.260596 175.480871 174.209673 C 175.970503 174.990009 131.780796 201.01007 133.629674 203.979895 C 135.179858 206.470533 175.219987 171.580771 178.09917 176.190819 L 135.259258 205.459125 C 143.369369 218.429381 230.410331 127.340228 238.790779 140.770731 C 240.979942 144.280352 137.140275 207.059573 137.310417 207.339888 C 141.949627 214.770133 233.370805 135.24966 238.790779 143.929958 C 246.220321 155.830093 131.340316 196.839436 138.699911 208.610776 C 139.399385 209.739613 234.779205 139.649471 238.790779 146.070202 C 245.6494 157.059312 137.110027 205.070851 140.159353 209.949849 C 147.569991 221.810209 236.420131 144.530363 238.790779 148.320299 C 238.790779 148.320299 138.879506 206.510307 142.180264 211.800308 C 142.180264 211.800308 232.799884 141.859793 238.790779 151.430282 C 242.359984 157.150225 140.63008 207.989537 144.110433 213.550383 C 145.569875 215.889499 234.620405 147.69906 238.790779 154.379272 C 241.81931 159.22986 139.529827 205.059487 145.800512 215.090222 C 148.689148 219.71921 233.159073 147.960435 238.790779 156.979763 C 241.800405 161.800047 144.29948 211.040805 148.190064 217.27024 C 155.489164 228.950668 237.870121 159.190086 238.790779 160.659846 C 240.579163 163.529288 148.749643 216.980455 149.919843 218.849854 C 156.910797 230.03973 234.060826 155.73918 238.790779 163.320946 C 242.490427 169.239761 152.260244 220.990098 152.260244 220.990098 C 155.320912 225.88046 238.790779 166.919586 238.790779 166.919586 C 244.250453 175.660493 151.23939 217.770262 154.549601 223.079203 C 154.549601 223.079203 233.569305 162.099302 238.790779 170.440571 C 242.119895 175.770346 150.749759 215.499331 156.729312 225.060349 C 162.65026 234.530454 235.079789 167.84955 238.790779 173.77973 C 238.790779 173.77973 157.090391 224.509189 158.379691 226.560414 L 238.790779 176.310142 C 240.8098 179.539448 160.370355 228.380568 160.370355 228.380568 C 166.130613 237.600662 236.019352 174.950235 238.790779 179.38035 C 244.110558 187.890186 162.429075 230.249967 162.429075 230.249967 C 162.429075 230.249967 234.900195 176.300672 238.790779 182.530107 C 242.080195 187.799273 161.589707 227.420299 164.580428 232.210278 C 166.949186 236.009684 236.529779 182.240322 238.790779 185.840856 C 243.989568 194.159396 163.540671 229.280228 166.44065 233.930049 C 167.160918 235.07972 237.2595 186.280268 238.790779 188.719768 C 244.290153 197.519389 165.87918 231.020833 168.69976 235.530497 C 170.820866 238.930265 237.439094 189.570183 238.790779 191.729367 L 170.580776 236.420687 C 175.499776 244.290344 236.040147 189.390251 238.790779 193.790062 C 239.340906 194.680252 174.280424 237.299513 174.280424 237.299513 C 179.250466 245.250613 235.499473 191.740731 238.790779 196.989063 C 241.620811 201.519562 176.630276 231.840944 179.78925 236.899874 C 184.220508 243.979725 233.979536 192.39038 238.769984 200.049801 C 238.879631 200.220263 196.589845 226.009253 198.009587 228.270715 L 238.3106 203.089705 C 238.439152 203.290471 219.209304 217.650939 219.369994 217.899055 C 219.369994 217.899055 236.369089 206.93078 236.520326 207.18079 " transform="matrix(2.066286,0,0,2.062411,0,0.42288)"/>
<path style="fill:none;stroke-width:0.9;stroke-linecap:round;stroke-linejoin:round;stroke:rgb(100%,100%,100%);stroke-opacity:1;stroke-miterlimit:4;" d="M 166.259165 6.499793 C 166.399059 6.7195 169.979607 4.179617 169.979607 4.179617 C 170.03065 4.27053 151.619375 16.699096 152.859522 18.689712 C 152.950265 18.82987 176.420434 1.590491 177.49044 3.300792 C 179.420608 6.38994 142.170812 28.440133 142.170812 28.440133 C 144.119885 31.559585 180.71936 3.539438 181.08044 4.120903 C 181.08044 4.120903 133.639126 34.040753 134.510633 35.4196 C 134.510633 35.4196 182.749724 4.420158 183.129708 5.039503 C 185.500356 8.840803 123.319057 45.630267 123.319057 45.630267 C 127.699274 52.649509 181.08044 -1.479717 186.029687 6.439184 C 188.290687 10.060553 109.469483 45.48064 114.560516 53.619248 C 114.849757 54.079495 186.920098 5.329288 188.30014 7.539611 C 191.65005 12.89969 105.21971 60.570305 105.839783 61.570348 C 107.819104 64.74094 190.090414 7.880534 190.549798 8.630567 C 190.780435 8.990431 96.419578 69.000593 96.880852 69.739261 C 103.100494 79.690447 190.829587 6.490323 192.869403 9.759403 C 193.10004 10.130631 83.36022 82.069338 83.36022 82.069338 C 85.800815 85.980491 189.489245 0.45029 196.370551 11.460234 C 204.790699 24.939982 70.219571 86.029736 73.420135 91.149275 C 73.420135 91.149275 191.610351 0.980616 198.939698 12.710288 " transform="matrix(2.066286,0,0,2.062411,0,0.42288)"/>
<path style="fill:none;stroke-width:0.9;stroke-linecap:round;stroke-linejoin:round;stroke:rgb(100%,100%,100%);stroke-opacity:1;stroke-miterlimit:4;" d="M 18.59087 62.65941 C 18.749669 62.909421 21.519206 60.829786 21.519206 60.829786 C 22.13928 61.820359 5.289532 71.479866 6.599626 73.559501 C 7.2991 74.680762 27.670791 60.390373 27.670791 60.390373 C 28.740796 62.110144 3.240263 77.839989 3.580548 78.389255 C 5.359479 81.239757 28.400512 58.060727 30.57077 61.51921 C 32.410196 64.460624 1.680627 79.519986 3.380158 82.23033 C 4.900095 84.660359 31.86007 61.119571 33.349759 63.500356 C 34.310117 65.040195 4.359421 85.349782 4.380216 85.400921 C 6.329289 88.529844 36.119296 65.559157 36.119296 65.559157 C 36.86036 66.750496 3.739347 83.999345 6.0892 87.770341 C 6.159147 87.880194 38.620386 67.400145 38.639291 67.430449 C 40.900291 71.040453 6.699821 87.789281 7.510832 89.090474 C 7.510832 89.090474 38.779185 66.280779 40.24997 68.629365 C 40.970239 69.780929 7.559985 88.200284 8.909779 90.349998 C 9.43911 91.200413 41.569517 69.400231 41.819059 69.7904 C 44.380644 73.889061 11.070585 92.219396 11.189685 92.410693 C 12.21999 94.050915 44.369302 71.680633 44.369302 71.680633 C 44.369302 71.680633 11.180232 91.130334 12.989411 94.030081 C 12.989411 94.030081 43.940165 69.260074 46.38076 73.169333 C 48.290134 76.230071 13.220048 93.380431 14.4394 95.340743 L 48.000892 74.370142 C 48.499976 75.159949 16.040627 96.789669 16.040627 96.789669 C 17.360175 98.899609 48.059497 72.930686 49.789275 75.699745 C 51.390502 78.260462 16.900791 96.759365 18.050196 98.600353 C 19.260096 100.539831 50.309154 74.589849 52.040824 77.360802 C 53.630708 79.910154 17.25998 96.410865 19.369743 99.780328 C 20.980422 102.359985 52.299818 76.500916 53.509718 78.449864 C 54.640218 80.260548 20.479448 100.589075 20.759237 101.039852 C 20.77058 101.060687 52.849944 76.059609 55.069355 79.599534 C 57.700887 83.800473 20.479448 99.359856 22.519264 102.63083 C 24.390828 105.629065 55.670524 78.879806 57.029771 81.059825 C 57.719792 82.169721 21.229964 99.619337 23.869058 103.85058 C 26.510043 108.079929 56.330297 78.639266 58.540255 82.179191 C 59.160329 83.169764 26.390944 106.119617 26.390944 106.119617 C 28.319222 109.210659 60.710513 83.220903 61.360835 84.27019 C 63.179466 87.190771 27.619748 107.019277 27.929785 107.519298 C 30.769269 112.070631 61.470482 82.970892 63.079271 85.550548 C 64.68995 88.130205 27.549801 105.469968 29.999849 109.390591 C 31.309943 111.489166 64.699403 86.149059 65.400766 87.27032 C 66.510472 89.050699 29.650112 107.860222 31.379891 110.640645 C 33.559601 114.119962 65.300572 85.789195 66.939608 88.41999 C 68.850872 91.480728 33.470749 112.510044 33.499106 112.549818 C 33.589849 112.689976 67.750619 87.669958 69.310256 90.170066 C 70.970087 92.829271 32.419649 109.670906 35.160828 114.049883 C 36.909512 116.849246 70.90014 91.130334 71.170477 91.550807 C 73.629977 95.490371 36.850907 115.440094 37.049407 115.760184 C 46.550902 130.980537 191.960087 -0.390655 200.669477 13.549339 C 211.439477 30.790613 39.510797 118.010281 39.510797 118.010281 C 44.399549 125.830694 200.070198 8.829439 204.049635 15.189562 C 210.840199 26.049878 32.300549 105.269201 41.240576 119.56906 C 43.350339 122.949888 205.040241 14.11944 206.429735 16.350596 C 216.029535 31.709213 37.259249 123.269977 37.660028 123.910156 C 50.110655 143.829575 200.289493 4.410688 208.320204 17.259727 C 208.320204 17.259727 17.199485 123.190428 24.889912 135.509141 C 39.24046 158.470358 200.170393 0.569613 211.590715 18.850704 C 214.180657 22.98914 15.119969 144.399676 15.119969 144.399676 C 28.929843 166.499113 211.579372 16.039977 214.089915 20.05909 C 219.109109 28.089739 -7.900269 133.679517 4.890643 154.140626 C 6.970158 157.470315 212.840315 14.68954 217.110884 21.530744 C 225.979073 35.720749 -9.849342 136.520548 3.450105 157.809344 C 13.830669 174.419909 219.600631 22.739129 219.600631 22.739129 C 233.970084 45.730651 3.359363 160.519689 3.359363 160.519689 C 6.809468 166.05023 216.989894 15.899819 221.990183 23.900164 C 233.790489 42.779766 -4.860395 148.659329 3.760142 162.459166 C 8.359653 169.819332 223.969504 24.860433 223.969504 24.860433 C 232.130658 37.910238 -6.319837 146.899783 4.550358 164.300155 C 5.060785 165.110796 211.949904 3.279957 226.069815 25.879416 C 228.100178 29.120086 1.620132 159.390852 5.739463 165.980151 C 17.900849 185.450687 214.800731 5.399367 228.249525 26.940068 C 241.700211 48.480769 3.739347 161.540566 7.669632 167.83061 C 9.259516 170.379962 230.790315 27.970415 230.979362 28.290505 C 230.979362 28.290505 -1.480237 152.199254 9.100717 169.139378 C 26.430644 196.86027 227.330758 20.759877 232.729936 29.409871 C 234.159131 31.699743 -2.470843 149.420725 10.819153 170.709522 C 19.619285 184.780204 217.549472 3.829223 234.489963 30.94024 C 246.339421 49.889921 11.240727 170.290943 12.390132 172.120567 C 20.430296 184.99044 234.140226 29.80951 235.830305 32.500914 C 250.999426 56.789839 5.620364 160.379531 13.709679 173.330847 C 24.549627 190.680079 231.879225 26.140791 236.760416 33.94984 C 236.760416 33.94984 -2.030363 146.740686 15.719248 175.149107 C 15.719248 175.149107 157.389085 75.540647 162.37047 83.510688 C 169.380329 94.730868 7.569437 160.970466 17.350722 176.630231 C 24.120491 187.460244 141.299306 94.480858 143.409069 97.859791 C 148.029375 105.259731 18.970854 178.099992 18.970854 178.099992 C 25.57048 188.659159 117.129663 100.28982 124.530848 112.14071 C 133.000148 125.700006 21.110865 179.70991 21.110865 179.70991 C 26.710433 188.679993 109.480826 124.489727 109.480826 124.489727 C 114.9802 133.289348 16.099232 169.2909 23.180928 180.620934 C 24.579875 182.859667 59.680208 155.41909 60.750213 157.140755 C 62.330645 159.669273 28.239822 180.810336 28.239822 180.810336 C 28.729454 181.590672 36.109844 175.889669 36.109844 175.889669 " transform="matrix(2.066286,0,0,2.062411,0,0.42288)"/>
<path style="fill:none;stroke-width:6;stroke-linecap:round;stroke-linejoin:round;stroke:rgb(11.372549%,11.372549%,10.588235%);stroke-opacity:1;stroke-miterlimit:4;" d="M 179.879992 177.27041 L 109.080047 123.819243 L 179.879992 70.36997 Z M 230.610721 27.779119 L 181.999208 4.179617 C 180.199481 3.450419 178.280655 3.050781 176.339144 2.999642 L 175.399581 2.999642 C 172.32946 2.980702 169.350081 3.980745 166.900034 5.82931 L 165.249654 7.249825 L 72.27073 92.090603 L 31.799575 62.000291 C 29.980944 60.61008 27.719943 59.899822 25.430586 59.990735 C 23.180928 59.96043 20.989875 60.670688 19.180696 62.000291 L 6.200737 73.800042 C 4.140127 75.620196 2.979379 78.249097 3.009626 80.999216 C 3.009626 83.779639 4.160922 86.429374 6.200737 88.319607 L 41.599765 120.300152 L 6.189395 152.379186 C 4.170374 154.259949 3.030421 156.87938 3.030421 159.640863 C 3.030421 162.389087 4.170374 165.019883 6.189395 166.900645 L 19.169353 178.700396 C 21.129769 180.410697 23.649764 181.340662 26.249159 181.300887 C 28.249275 181.149366 30.160538 180.459942 31.799575 179.289437 L 72.27073 148.490761 L 165.249654 233.329645 C 167.629755 235.780508 170.809523 237.290043 174.219929 237.579828 L 176.229497 237.579828 C 178.250408 237.610132 180.239181 237.119581 182.01055 236.159312 L 230.620173 212.55981 C 235.639368 210.160086 238.879631 205.14093 239.000621 199.580084 L 239.000621 41.109239 C 238.979826 35.42907 235.73011 30.260287 230.620173 27.779119 Z M 230.610721 27.779119 " transform="matrix(2.066286,0,0,2.062411,0,0.42288)"/>
</g>
</defs>
<g id="surface1">
<path style="fill-rule:nonzero;fill:rgb(33.333333%,44.313725%,71.372549%);fill-opacity:1;stroke-width:6;stroke-linecap:round;stroke-linejoin:round;stroke:rgb(11.372549%,11.372549%,10.588235%);stroke-opacity:1;stroke-miterlimit:4;" d="M 179.989639 173.730485 L 109.189694 120.279318 L 179.989639 66.830045 Z M 230.610721 27.779119 L 181.999208 4.179617 C 180.199481 3.450419 178.280655 3.050781 176.339144 2.999642 L 175.399581 2.999642 C 172.32946 2.980702 169.350081 3.980745 166.900034 5.82931 L 165.249654 7.249825 L 72.27073 92.090603 L 31.799575 62.000291 C 29.980944 60.61008 27.719943 59.899822 25.430586 59.990735 C 23.180928 59.96043 20.989875 60.670688 19.180696 62.000291 L 6.200737 73.800042 C 4.140127 75.620196 2.979379 78.249097 3.009626 80.999216 C 3.009626 83.779639 4.160922 86.429374 6.200737 88.319607 L 41.599765 120.300152 L 6.189395 152.379186 C 4.170374 154.259949 3.030421 156.87938 3.030421 159.640863 C 3.030421 162.389087 4.170374 165.019883 6.189395 166.900645 L 19.169353 178.700396 C 21.129769 180.410697 23.649764 181.340662 26.249159 181.300887 C 28.249275 181.149366 30.160538 180.459942 31.799575 179.289437 L 72.27073 148.490761 L 165.249654 233.329645 C 167.629755 235.780508 170.809523 237.290043 174.219929 237.579828 L 176.229497 237.579828 C 178.250408 237.610132 180.239181 237.119581 182.01055 236.159312 L 230.620173 212.55981 C 235.639368 210.160086 238.879631 205.14093 239.000621 199.580084 L 239.000621 41.109239 C 238.979826 35.42907 235.73011 30.260287 230.620173 27.779119 Z M 230.610721 27.779119 " transform="matrix(2.066286,0,0,2.062411,0,0.42288)"/>
<use xlink:href="#surface5" mask="url(#mask0)"/>
</g>
</svg>
